<svg xmlns:rdf="http://www.w3.org/1999/02/22-rdf-syntax-ns#" xmlns="http://www.w3.org/2000/svg" height="2594.3" width="10997" version="1.1" xmlns:cc="http://creativecommons.org/ns#" xmlns:dc="http://purl.org/dc/elements/1.1/" viewBox="0 0 8797.3857 2075.4575">
<defs>
<clipPath id="a">
<path d="m6813 1200h153.05v152h-153.05z"/>
</clipPath>
</defs>
<g fill="#fff" transform="matrix(.95749 0 0 .95749 2127.6 -.0043278)">
<path d="m6463.5 1338.4c19.207-13.891 31.801-36.43 31.801-61.902 0-42.117-34.273-76.391-76.391-76.391-42.121 0-76.391 34.273-76.391 76.391 0 26.152 13.27 49.203 33.352 62.973 0 0 14.148 12.391 43.039 12.391 24.785 0 44.551-13.102 44.59-13.461"/>
<path d="m6777.4 1338.4c19.215-13.891 31.789-36.434 31.789-61.902 0-42.121-34.254-76.387-76.402-76.387-42.109 0-76.363 34.266-76.363 76.387 0 26.152 13.242 49.203 33.336 62.969 0 0 14.117 12.391 43.027 12.391 24.77 0 44.531-13.098 44.613-13.457"/>
<path d="m6575.8 1315.8c-21.629 0-39.219-17.602-39.219-39.23 0-21.629 17.59-39.23 39.219-39.23s39.219 17.602 39.219 39.23c0 21.629-17.59 39.23-39.219 39.23zm76.398-39.23c0-42.121-34.281-76.391-76.398-76.391-0.121 0-0.246 0.02-0.4101 0.02-7.7539 0-15.223 1.211-22.281 3.4219-0.4101 0.1367-0.8164 0.3281-1.2656 0.4688-1.7969 0.5976-3.5898 1.2187-5.3476 1.9492-27.629 11.523-47.094 38.793-47.094 70.531 0 26.152 13.262 49.203 33.383 62.973 0 0 18.242 12.391 43.016 12.391s43.016-12.391 43.016-12.391c20.117-13.77 33.383-36.812 33.383-62.973"/>
<g clip-path="url(#a)">
<path fill="#fff" d="m6889.7 1315.8c-21.668 0-39.23-17.602-39.23-39.23 0-21.629 17.562-39.226 39.23-39.226 21.625 0 39.188 17.598 39.188 39.226 0 21.629-17.562 39.23-39.188 39.23zm76.371-39.23c0-42.121-34.277-76.387-76.371-76.387-0.1719 0-0.3008 0.016-0.4258 0.016-7.7383 0-15.258 1.211-22.27 3.418-0.4258 0.1445-0.8516 0.3359-1.2813 0.4727-1.7929 0.6015-3.5898 1.2226-5.3398 1.9531-27.609 11.516-47.098 38.785-47.098 70.527 0 26.148 13.25 49.203 33.379 62.973 0 0 18.246 12.391 43.035 12.391 24.742 0 42.992-12.391 42.992-12.391 20.086-13.77 33.379-36.812 33.379-62.973"/>
</g>
<path d="m1208.4 900.75 0.035-0.10157h0.3047zm-5.0625-0.76563 2.1797-0.0391 1.2695 0.0195zm-680.15 0.66406 0.85938-0.16015 0.15234 0.23828zm1208.8-64.71c0-446.47-392.7-828.6-858.06-835.63l-0.24-0.30391-7.67 0.1211-5.05-0.1211-2.79 0.14063-0.11 0.16406c-465.34 7.0937-857.98 389.2-857.98 835.63 0 1.8086 0.054688 3.5977 0.11719 5.3867l-0.1325 1305.1h528.52v-1192.3h0.24218l-0.14843-9.707c-0.0508-1.9922-0.0937-3.9609-0.0937-5.9727 0-3.375 0.0859-6.7109 0.16797-10.066l0.043-2.0938-0.21093-4.0781c0-0.90625 0.0742-1.7891 0.13672-2.6719 0.0742-1.0078 0.13671-2.0117 0.16015-3.2188l-0.22265-12.82 0.86328-0.38281 0.19922-3.2969c10.859-181.98 129.88-367.88 336.18-371.04 206.48 3.1562 325.49 189.05 336.35 371.04l1.0703 3.0547-0.2187 13.648c0.02 1.0039 0.078 2.0078 0.1562 3.0156 0.062 0.88282 0.1328 1.7656 0.1328 2.6719l-0.2109 4.3008 0.039 1.8711c0.09 3.3555 0.1718 6.6914 0.1718 10.066 0 2.0117-0.043 3.9805-0.09 5.9727l0.09 1202h528.52v-1299.7l-0.168-3.4766 0.027-1.1641c0.07-2.0312 0.1407-4.082 0.1407-6.1289"/>
<path d="m5807.3 953.21h525.85v-96.699h-525.85v96.699"/>
<path d="m6848.1 1331.9c-24.867 392.57-382.73 736.17-788.92 738.94-111.32-0.7578-219.04-26.707-317.27-71.988v-79.23c93.941 46.66 199.4 73.77 310.85 75.547-0.5547 0.043 0.2968 0.293 1.4023 0.293l5.0586-0.1289 5.8633 0.1289 1.2343-0.3203c373.38-6.2813 680.02-302.48 705.99-663.24h-79.742c-42.805 325.79-310.46 585.29-633.39 587.93-115.36-0.9414-223.67-33.973-317.27-90.801v-84.41c87.902 60.672 193.96 96.969 309.36 99.539l0.125 0.1485 2.7656 0.1523 5.1406-0.1289 7.5664 0.1289 0.2578-0.3008c288.23-6.3789 518.36-228.84 551.73-512.26h-79.23c-41.316 242.49-240.97 434.34-480.45 436.9-121.02-1.293-231.83-49.5-317.27-128v-102.06c72.305 92.371 180.61 150.04 308.21 154.08l0.043 0.1015 3.9961 0.5274c1.0195 0 2.0391-0.066 3.0586-0.1484l2.082-0.1016 1.9571 0.1016c0.9765 0.082 1.996 0.1484 3.0195 0.1484l3.9922-0.6289c204.63-6.4492 359.82-155.7 395.74-360.92h-83.059c-38.723 148.99-149.92 283.14-321.82 285.77-165.61-2.5351-274.89-122.82-317.23-264.28v-400.16l0.6797-96.703c1.914-27.098 9.4375-88.234 38.98-150.5 43.442-78.828 111.49-141.75 201.57-166.22 24.016-5.9219 50.367-9.7539 79.359-10.996 191.66 2.9336 317.61 144.24 334.36 327.71l0.6367 96.703h530.95v-84.758h0.086v-21.742l-0.168-3.4766 0.039-1.1758c0.043-2.0234 0.1289-4.0703 0.1289-6.1289 0-446.47-392.63-828.6-857.99-835.64l-0.2539-0.29297-7.6953 0.125-5.0586-0.125-2.7618 0.14453-0.1289 0.14844c-223.9 3.5009-430.9 93.685-585.5 236.02-154.6-142.36-361.5-232.55-585.4-235.93l-0.2539-0.29297-7.6523 0.125-5.0586-0.125-2.7618 0.14453-0.125 0.14844c-228.9 3.493-440.3 97.856-596 245.99-155.7-148.15-367.1-242.53-596.1-245.99l-0.25-0.29297-7.6718 0.125-5.0508-0.125-2.7813 0.14453-0.1172 0.14844c-465.33 7.1016-857.97 389.21-857.97 835.64 0 1.8086 0.051 3.5977 0.1133 5.3867l-0.098 64.723 2.2539 350.99v9.707c0.051 1.9805 0 3.957 0 5.9609 0 3.3789 0.082 6.7188 0 10.07v6.1797c0 0.8985 0.062 1.7891 0 2.668-0.074 0.9922 0.023 2.0039 0 3.2031v16.516c-10.859 181.97 25.613 291.02-111.91 305.67-205.34 21.863-325.49-123.7-336.35-305.67l-1.0664-3.0468 0.078-305.11h-528.67v361.27l0.1835 3.4805-0.031 1.1758c-0.078 2.0234-0.1523 4.0625-0.1523 6.1328 0 446.46 392.65 785.02 858.01 792.05l0.25 0.2968 7.6601-0.1289 5.0625 0.1289 2.7813-0.1484 0.1172-0.1484c326.39-4.9844 618.65 0.3086 618.65 0.3086s6.8594-659.09 6.8594-792.36c0-1.8203 0.07-3.6094 0-5.3984 0 0 5.0508-452.3 5.082-453.5l-0.2305-12.828 0.8672-0.37891 0.1992-3.3047c10.859-181.98 129.87-367.87 336.18-371.03 206.48 3.1641 325.49 189.05 336.35 371.03l1.0664 3.0508-0.2148 13.652c0.016 1.0117 0.078 2.0195 0.1484 3.0117 0.066 0.88672 0.1406 1.7695 0.1406 2.6758l-0.2109 4.2969 0.039 1.875c0.09 3.3516 0.1719 6.6992 0.1719 10.07 0 2.0039-0.043 3.9844-0.1015 5.9648l0.1015 1202h528.52v-1158l5.8672-88.617c10.84-181.98 129.86-367.87 336.18-371.03 206.45 3.1641 325.47 189.05 336.35 371.03l1.0625 3.0508-0.211 13.652c0 1.0117 0.082 2.0195 0.125 3.0117 0.086 0.88672 0.1719 1.7695 0.1719 2.6758l-0.2148 4.2969 0.043 1.875c0.086 3.3516 0.1719 6.6992 0.1719 10.07 0 2.0039-0.043 3.9844-0.1289 5.9648l0.1289 1202h528.48v-62.426c96.492 38.43 200.97 60.477 309.36 62.125l0.125 0.1524 2.7656 0.1484 5.0586-0.1289 7.6484 0.1289 0.2578-0.3008c457.16-6.9062 844.09-376.69 857.61-812.96 0.9336-0.3984 1.8672-0.8711 2.7617-1.3086h-79.402"/>
<path d="m2354.9 636.03h-75.496v264.64h75.547l-0.051-264.64"/>
<path d="m2203.9 334.02h-75.488v566.66h75.578l-0.09-566.66"/>
<path d="m2052.9 161.44h-75.5v739.23h75.594l-0.094-739.23"/>
<path d="m1901.9 485.02h-75.496v415.65h75.566l-0.07-415.65"/>
</g>
<g fill="#fff" transform="matrix(16.082 0 0 16.082 -11205 -6765.7)">
<path d="m736.2 472.71v3.6306h-37.964v-2.8414l23.362-23.204q4.5778-4.5778 6.1563-7.8137 1.6575-3.3149 1.6575-6.7877 0-5.2881-3.6306-8.2873-3.5517-2.9992-10.339-2.9992-5.2092 0-9.1555 1.5785-3.8674 1.5785-6.7088 4.8145l-2.8414-2.5257q3.1571-3.6306 7.9716-5.6038 4.8934-1.9732 11.05-1.9732 8.1294 0 12.944 3.9463 4.8145 3.9463 4.8145 10.655 0 4.262-1.8942 8.1294t-7.1034 8.9976l-20.363 20.284h32.044z"/>
<path d="m774.05 493.72q10.734 0 16.417 7.3402 5.7616 7.2613 5.7616 20.363 0 9.1555-3.0781 15.549-2.9992 6.3141-8.5241 9.5501t-12.944 3.236q-7.8138 0-12.549-2.8414l1.6575-3.236q3.9463 2.5257 10.892 2.5257 9.5501 0 14.996-6.1563 5.5249-6.2352 5.5249-17.995 0-3.6306-0.47356-6.6298-1.6575 5.367-6.472 8.3662-4.7356 2.9992-11.129 2.9992-5.446 0-9.708-1.9732-4.1831-2.0521-6.472-5.7616-2.2889-3.7885-2.2889-8.6819 0-4.9724 2.3678-8.7609t6.5509-5.8406 9.4712-2.0521zm0.63141 29.598q4.4199 0 7.8927-1.7364 3.5517-1.7364 5.446-4.7356 1.9732-2.9992 1.9732-6.7088 0-3.3149-1.8942-6.3141-1.8153-2.9992-5.367-4.8145t-8.5241-1.8153q-6.472 0-10.497 3.6306-4.0253 3.5517-4.0253 9.4712t4.0253 9.4712 10.971 3.5517z"/>
<path d="m722.32 494.11v55.249h-4.0253v-51.618h-13.496v-3.6306h17.522z"/>
<path d="m775.98 476.74q-6.3141 0-11.286-3.3938-4.8934-3.4728-7.6559-9.7869-2.6835-6.3141-2.6835-14.838 0-8.5241 2.6835-14.838 2.7624-6.3141 7.6559-9.708 4.9724-3.4728 11.286-3.4728 6.3141 0 11.208 3.4728 4.9724 3.3938 7.6559 9.708 2.7624 6.3141 2.7624 14.838 0 8.5241-2.7624 14.838-2.6835 6.3141-7.6559 9.7869-4.8934 3.3938-11.208 3.3938zm0-3.7096q5.2092 0 9.1555-2.8414 4.0253-2.9203 6.2352-8.3662 2.21-5.5249 2.21-13.102 0-7.577-2.21-13.023-2.21-5.5249-6.2352-8.3662-3.9463-2.9203-9.1555-2.9203t-9.2344 2.9203q-3.9463 2.8414-6.1563 8.3662-2.2099 5.4459-2.2099 13.023 0 7.577 2.2099 13.102 2.21 5.4459 6.1563 8.3662 4.0253 2.8414 9.2344 2.8414z"/>
</g>
</svg>
