<?xml version="1.0" encoding="UTF-8" standalone="no"?>
<svg
   xmlns:dc="http://purl.org/dc/elements/1.1/"
   xmlns:cc="http://creativecommons.org/ns#"
   xmlns:rdf="http://www.w3.org/1999/02/22-rdf-syntax-ns#"
   xmlns:svg="http://www.w3.org/2000/svg"
   xmlns="http://www.w3.org/2000/svg"
   xmlns:sodipodi="http://sodipodi.sourceforge.net/DTD/sodipodi-0.dtd"
   xmlns:inkscape="http://www.inkscape.org/namespaces/inkscape"
   id="svg2"
   version="1.1"
   viewBox="0 0 6966.05 3276.22"
   height="3276.22pt"
   width="6966.05pt"
   inkscape:version="0.91 r13725"
   sodipodi:docname="top2.svg">
  <sodipodi:namedview
     pagecolor="#ffffff"
     bordercolor="#666666"
     borderopacity="1"
     objecttolerance="10"
     gridtolerance="10"
     guidetolerance="10"
     inkscape:pageopacity="0"
     inkscape:pageshadow="2"
     inkscape:window-width="1554"
     inkscape:window-height="869"
     id="namedview110"
     showgrid="false"
     inkscape:zoom="0.095498321"
     inkscape:cx="2614.9716"
     inkscape:cy="2047.6375"
     inkscape:window-x="0"
     inkscape:window-y="0"
     inkscape:window-maximized="0"
     inkscape:current-layer="svg2" />
  <metadata
     id="metadata217">
    <rdf:RDF>
      <cc:Work
         rdf:about="">
        <dc:format>image/svg+xml</dc:format>
        <dc:type
           rdf:resource="http://purl.org/dc/dcmitype/StillImage" />
        <dc:title />
      </cc:Work>
    </rdf:RDF>
  </metadata>
  <defs
     id="defs4">
    <clipPath
       id="clip1">
      <path
         id="path7"
         d="M 6813 1200 L 6966.050781 1200 L 6966.050781 1352 L 6813 1352 Z M 6813 1200 " />
    </clipPath>
    <clipPath
       id="clip2">
      <path
         id="path10"
         d="M 5345 2401 L 5732 2401 L 5732 3276.21875 L 5345 3276.21875 Z M 5345 2401 " />
    </clipPath>
  </defs>
  <g
     id="g4345">
    <g
       transform="matrix(0.95748847,0,0,0.95748847,70.844133,92.148051)"
       id="g4238"
       style="fill:#ffffff">
      <path
         inkscape:connector-curvature="0"
         style="fill:#ffffff;fill-opacity:1;fill-rule:nonzero;stroke:none"
         d="m 6463.5391,1338.418 c 19.207,-13.8907 31.8007,-36.4297 31.8007,-61.9024 0,-42.1172 -34.2734,-76.3906 -76.3906,-76.3906 -42.1211,0 -76.3906,34.2734 -76.3906,76.3906 0,26.1524 13.2695,49.2032 33.3516,62.9727 0,0 14.1484,12.3906 43.039,12.3906 24.7852,0 44.5508,-13.1016 44.5899,-13.4609"
         id="path13" />
      <path
         inkscape:connector-curvature="0"
         style="fill:#ffffff;fill-opacity:1;fill-rule:nonzero;stroke:none"
         d="m 6777.3555,1338.4219 c 19.2148,-13.8906 31.789,-36.4336 31.789,-61.9024 0,-42.1211 -34.2539,-76.3867 -76.4023,-76.3867 -42.1094,0 -76.3633,34.2656 -76.3633,76.3867 0,26.1524 13.2422,49.2032 33.3359,62.9688 0,0 14.1172,12.3906 43.0274,12.3906 24.7695,0 44.5312,-13.0976 44.6133,-13.457"
         id="path15" />
      <path
         inkscape:connector-curvature="0"
         style="fill:#ffffff;fill-opacity:1;fill-rule:nonzero;stroke:none"
         d="m 6575.8437,1315.75 c -21.6289,0 -39.2187,-17.6016 -39.2187,-39.2305 0,-21.6289 17.5898,-39.2304 39.2187,-39.2304 21.629,0 39.2188,17.6015 39.2188,39.2304 0,21.6289 -17.5898,39.2305 -39.2188,39.2305 z m 76.3985,-39.2305 c 0,-42.1211 -34.2813,-76.3906 -76.3985,-76.3906 -0.121,0 -0.246,0.02 -0.4101,0.02 -7.7539,0 -15.2227,1.211 -22.2813,3.4219 -0.4101,0.1367 -0.8164,0.3281 -1.2656,0.4688 -1.7969,0.5976 -3.5898,1.2187 -5.3476,1.9492 -27.6289,11.5234 -47.0938,38.793 -47.0938,70.5312 0,26.1524 13.2617,49.2032 33.3828,62.9727 0,0 18.2422,12.3906 43.0156,12.3906 24.7735,0 43.0157,-12.3906 43.0157,-12.3906 20.1172,-13.7695 33.3828,-36.8125 33.3828,-62.9727"
         id="path17" />
      <g
         clip-path="url(#clip1)"
         id="g19"
         style="clip-rule:nonzero;fill:#ffffff">
        <path
           inkscape:connector-curvature="0"
           style="fill:#ffffff;fill-opacity:1;fill-rule:nonzero;stroke:none"
           d="m 6889.6797,1315.75 c -21.668,0 -39.2305,-17.6016 -39.2305,-39.2305 0,-21.6289 17.5625,-39.2265 39.2305,-39.2265 21.625,0 39.1875,17.5976 39.1875,39.2265 0,21.6289 -17.5625,39.2305 -39.1875,39.2305 z m 76.3711,-39.2305 c 0,-42.1211 -34.2774,-76.3867 -76.3711,-76.3867 -0.1719,0 -0.3008,0.016 -0.4258,0.016 -7.7383,0 -15.2578,1.211 -22.2695,3.418 -0.4258,0.1445 -0.8516,0.3359 -1.2813,0.4727 -1.7929,0.6015 -3.5898,1.2226 -5.3398,1.9531 -27.6094,11.5156 -47.0977,38.7851 -47.0977,70.5273 0,26.1485 13.25,49.2032 33.3789,62.9727 0,0 18.2461,12.3906 43.0352,12.3906 24.7422,0 42.9922,-12.3906 42.9922,-12.3906 20.0859,-13.7695 33.3789,-36.8125 33.3789,-62.9727"
           id="path21" />
      </g>
      <path
         inkscape:connector-curvature="0"
         style="fill:#ffffff;fill-opacity:1;fill-rule:nonzero;stroke:none"
         d="m 1208.3633,900.75391 0.035,-0.10157 0.3047,0 z m -5.0625,-0.76563 2.1797,-0.0391 1.2695,0.0195 z m -680.14846,0.66406 0.85938,-0.16015 0.15234,0.23828 z M 1731.8516,835.93359 C 1731.8516,389.46484 1339.1992,7.332031 873.83594,0.300781 L 873.59766,-0.00390625 865.92969,0.117188 860.875,-0.00390625 858.08984,0.136719 857.97656,0.300781 C 392.64062,7.394531 0,389.50391 0,835.93359 c 0,1.8086 0.0546875,3.59766 0.117188,5.38672 L 0,2146.4492 l 528.52344,0 0,-1192.31248 0.24218,0 -0.14843,-9.70703 c -0.0508,-1.99219 -0.0937,-3.96094 -0.0937,-5.97266 0,-3.375 0.0859,-6.71094 0.16797,-10.06641 l 0.043,-2.09375 -0.21093,-4.07812 c 0,-0.90625 0.0742,-1.78906 0.13672,-2.67188 0.0742,-1.00781 0.13671,-2.01171 0.16015,-3.21875 l -0.22265,-12.82031 0.86328,-0.38281 0.19922,-3.29688 c 10.85937,-181.98046 129.8789,-367.8789 336.18359,-371.03515 206.47656,3.15625 325.48826,189.05469 336.34766,371.03515 l 1.0703,3.05469 -0.2187,13.64844 c 0.02,1.00391 0.078,2.00781 0.1562,3.01562 0.062,0.88282 0.1328,1.76563 0.1328,2.67188 l -0.2109,4.30078 0.039,1.87109 c 0.09,3.35547 0.1718,6.69141 0.1718,10.06641 0,2.01172 -0.043,3.98047 -0.09,5.97266 l 0.09,1202.01951 528.5196,0 0,-1299.74608 -0.168,-3.47656 0.027,-1.16406 c 0.07,-2.03125 0.1407,-4.08203 0.1407,-6.12891"
         id="path23" />
      <path
         inkscape:connector-curvature="0"
         style="fill:#ffffff;fill-opacity:1;fill-rule:nonzero;stroke:none"
         d="m 5807.3359,953.21484 525.8516,0 0,-96.69922 -525.8516,0 0,96.69922"
         id="path25" />
      <path
         inkscape:connector-curvature="0"
         style="fill:#ffffff;fill-opacity:1;fill-rule:nonzero;stroke:none"
         d="m 6848.1211,1331.8828 c -24.8672,392.5703 -382.7266,736.168 -788.918,738.9375 -111.3242,-0.7578 -219.0351,-26.707 -317.2695,-71.9883 l 0,-79.2304 c 93.9414,46.6601 199.3984,73.7695 310.8516,75.5468 -0.5547,0.043 0.2968,0.293 1.4023,0.293 l 5.0586,-0.1289 5.8633,0.1289 1.2343,-0.3203 c 373.375,-6.2813 680.0157,-302.4805 705.9883,-663.2383 l -79.7422,0 c -42.8046,325.7852 -310.4648,585.2891 -633.3867,587.9297 -115.3633,-0.9414 -223.6679,-33.9727 -317.2695,-90.8008 l 0,-84.4101 c 87.9023,60.6718 193.957,96.9687 309.3633,99.539 l 0.125,0.1485 2.7656,0.1523 5.1406,-0.1289 7.5664,0.1289 0.2578,-0.3008 c 288.2344,-6.3789 518.3633,-228.8359 551.7305,-512.2578 l -79.2305,0 c -41.3164,242.4883 -240.9687,434.3399 -480.4492,436.8985 -121.0156,-1.293 -231.832,-49.5 -317.2695,-128 l 0,-102.0625 c 72.3047,92.371 180.6094,150.0429 308.2148,154.082 l 0.043,0.1015 3.9961,0.5274 c 1.0195,0 2.0391,-0.066 3.0586,-0.1484 l 2.082,-0.1016 1.9571,0.1016 c 0.9765,0.082 1.996,0.1484 3.0195,0.1484 l 3.9922,-0.6289 c 204.6289,-6.4492 359.8203,-155.6992 395.7383,-360.918 l -83.0586,0 c -38.7227,148.9883 -149.9219,283.1406 -321.8164,285.7656 -165.6055,-2.5351 -274.8907,-122.8164 -317.2266,-264.2773 l 0,-400.15626 0.6797,-96.70312 c 1.914,-27.09766 9.4375,-88.23438 38.9804,-150.5 43.4415,-78.82813 111.4922,-141.75391 201.5665,-166.21875 24.0156,-5.92188 50.3671,-9.75391 79.3593,-10.9961 191.6602,2.9336 317.6055,144.23829 334.3555,327.71485 l 0.6367,96.70312 530.9453,0 0,-84.75781 0.086,0 0,-21.74219 -0.168,-3.47656 0.039,-1.17578 c 0.043,-2.02344 0.1289,-4.07031 0.1289,-6.12891 0,-446.46875 -392.6328,-828.601559 -857.9922,-835.636715 l -0.2539,-0.29296875 -7.6953,0.12499975 -5.0586,-0.12499975 -2.7618,0.14453175 -0.1289,0.148437 C 5830.8594,3.710938 5623.8945,93.894531 5469.3398,236.22656 5314.7461,93.867188 5107.7812,3.683594 4883.9414,0.296875 l -0.2539,-0.29296875 -7.6523,0.12499975 -5.0586,-0.12499975 -2.7618,0.14453175 -0.125,0.148437 C 4639.0625,3.792969 4427.6797,98.15625 4272.0195,246.28906 4116.3359,98.136719 3904.9492,3.761719 3675.8984,0.296875 l -0.25,-0.29296875 -7.6718,0.12499975 -5.0508,-0.12499975 -2.7813,0.14453175 -0.1172,0.148437 c -465.332,7.101563 -857.9726,389.207035 -857.9726,835.636715 0,1.8086 0.051,3.59766 0.1133,5.38672 l -0.098,64.72266 2.2539,350.99223 0,9.707 c 0.051,1.9805 0,3.957 0,5.9609 0,3.3789 0.082,6.7188 0,10.0703 l 0,6.1797 c 0,0.8985 0.062,1.7891 0,2.668 -0.074,0.9922 0.023,2.0039 0,3.2031 l 0,16.5156 c -10.8594,181.9688 25.6133,291.0196 -111.9062,305.6719 -205.3399,21.8633 -325.4922,-123.7031 -336.3516,-305.6719 l -1.0664,-3.0468 0.078,-305.1094 -528.6718,0 0,361.2695 0.1835,3.4805 -0.031,1.1758 c -0.078,2.0234 -0.1523,4.0625 -0.1523,6.1328 0,446.4609 392.6523,785.0195 858.0078,792.0508 l 0.25,0.2968 7.6601,-0.1289 5.0625,0.1289 2.7813,-0.1484 0.1172,-0.1484 c 326.3906,-4.9844 618.6523,0.3086 618.6523,0.3086 0,0 6.8594,-659.0899 6.8594,-792.3594 0,-1.8203 0.07,-3.6094 0,-5.3984 0,0 5.0508,-452.30083 5.082,-453.50396 l -0.2305,-12.82812 0.8672,-0.37891 0.1992,-3.30469 c 10.8594,-181.97656 129.8711,-367.86718 336.1797,-371.03125 206.4844,3.16407 325.4922,189.05469 336.3516,371.03125 l 1.0664,3.05079 -0.2148,13.65234 c 0.016,1.01172 0.078,2.01953 0.1484,3.01172 0.066,0.88672 0.1406,1.76953 0.1406,2.67578 l -0.2109,4.29687 0.039,1.875 c 0.09,3.35157 0.1719,6.69922 0.1719,10.07032 0,2.0039 -0.043,3.98437 -0.1015,5.96484 l 0.1015,1202.02342 528.5156,0 0,-1158.00389 5.8672,-88.61719 c 10.8399,-181.97656 129.8555,-367.86718 336.1836,-371.03125 206.4531,3.16407 325.4688,189.05469 336.3516,371.03125 l 1.0625,3.05079 -0.211,13.65234 c 0,1.01172 0.082,2.01953 0.125,3.01172 0.086,0.88672 0.1719,1.76953 0.1719,2.67578 l -0.2148,4.29687 0.043,1.875 c 0.086,3.35157 0.1719,6.69922 0.1719,10.07032 0,2.0039 -0.043,3.98437 -0.1289,5.96484 l 0.1289,1202.02342 528.4805,0 0,-62.4258 c 96.4922,38.4297 200.9726,60.4766 309.3633,62.125 l 0.125,0.1524 2.7656,0.1484 5.0586,-0.1289 7.6484,0.1289 0.2578,-0.3008 c 457.1563,-6.9062 844.0899,-376.6875 857.6094,-812.957 0.9336,-0.3984 1.8672,-0.8711 2.7617,-1.3086 l -79.4023,0"
         id="path27" />
      <path
         inkscape:connector-curvature="0"
         style="fill:#ffffff;fill-opacity:1;fill-rule:nonzero;stroke:none"
         d="m 2354.9219,636.02734 -75.4961,0 0,264.63672 75.5469,0 -0.051,-264.63672"
         id="path29" />
      <path
         inkscape:connector-curvature="0"
         style="fill:#ffffff;fill-opacity:1;fill-rule:nonzero;stroke:none"
         d="m 2203.9063,334.01953 -75.4883,0 0,566.65625 75.5781,0 -0.09,-566.65625"
         id="path31" />
      <path
         inkscape:connector-curvature="0"
         style="fill:#ffffff;fill-opacity:1;fill-rule:nonzero;stroke:none"
         d="m 2052.9102,161.4375 -75.5,0 0,739.23437 75.5937,0 -0.094,-739.23437"
         id="path33" />
      <path
         inkscape:connector-curvature="0"
         style="fill:#ffffff;fill-opacity:1;fill-rule:nonzero;stroke:none"
         d="m 1901.8984,485.02344 -75.4961,0 0,415.64843 75.5665,0 -0.07,-415.64843"
         id="path35" />
    </g>
    <g
       transform="translate(0,-14.4)"
       id="g4432"
       style="fill:#ffffff">
      <g
         id="g4252"
         style="fill:#ffffff">
        <path
           inkscape:connector-curvature="0"
           id="path37"
           d="m 436.82422,2499.8008 0,164.9101 c 0,6.4297 -3.21875,7.1797 -12.62891,7.1797 -9.16015,0 -11.38672,-0.9922 -12.3789,-4.9492 -11.88282,-46.3125 -46.05469,-102.7617 -80.22266,-132.4726 l 0,130.2421 c 0,6.4297 -3.46875,7.1797 -13.86719,7.1797 -10.39844,0 -13.86719,-0.75 -13.86719,-7.1797 l 0,-164.9101 c 0,-6.4414 2.97266,-7.1797 11.88672,-7.1797 5.69532,0 8.41797,0.7383 11.63672,3.2187 31.94141,24.7618 62.39844,62.8907 81.71094,99.2891 l 0,-95.3281 c 0,-6.4414 3.46484,-7.1797 13.86719,-7.1797 10.39843,0 13.86328,0.7383 13.86328,7.1797"
           style="fill:#ffffff;fill-opacity:1;fill-rule:nonzero;stroke:none" />
        <path
           inkscape:connector-curvature="0"
           id="path39"
           d="m 499.21484,2600.0781 c 8.91407,0.7422 16.34375,1.2422 22.03907,1.2422 22.28125,0 31.19531,-5.9414 31.19531,-18.5703 0,-12.3789 -8.66406,-18.8203 -23.51953,-18.8203 -15.84766,0 -28.23047,7.1797 -29.71485,36.1484 z m 77.9961,56.211 c 0,6.6797 -3.21875,9.1601 -9.41016,11.6406 -8.16797,3.2109 -20.05469,5.9414 -34.16797,5.9414 -36.89453,0 -63.14062,-16.8398 -63.14062,-65.3711 0,-46.0508 23.76953,-64.8711 59.17968,-64.8711 32.6836,0 50.26172,16.3399 50.26172,40.1094 0,25.75 -22.03515,37.6406 -56.69922,37.6406 -8.17187,0 -15.84765,-0.75 -23.52343,-1.9805 2.97265,25.5 15.59765,32.1797 33.67578,32.1797 22.53125,0 32.68359,-8.6562 36.14844,-8.6562 4.20703,0 7.67578,6.9297 7.67578,13.3672"
           style="fill:#ffffff;fill-opacity:1;fill-rule:nonzero;stroke:none" />
        <path
           inkscape:connector-curvature="0"
           id="path41"
           d="m 768.35937,2553.0391 c 0,44.0703 -13.37109,85.1718 -32.4375,113.1523 -2.97265,4.707 -6.4375,5.6992 -15.10156,5.6992 -8.91406,0 -12.6289,-1.2422 -15.84765,-6.9414 -9.90625,-16.3398 -17.33204,-33.6679 -21.54297,-55.4609 -4.20703,21.793 -11.39063,39.1211 -21.53907,55.4609 -2.97265,5.6992 -6.93359,6.9414 -15.84765,6.9414 -8.66797,0 -12.13281,-0.9922 -14.85547,-5.6992 -18.57031,-27.9805 -31.94141,-69.082 -31.94141,-113.1523 0,-6.4375 3.21875,-7.4297 13.86328,-7.4297 10.40235,0 13.86719,0.9922 14.11329,7.4297 0.99218,35.4023 7.42968,69.5703 19.5625,95.3203 15.59765,-25.75 21.04687,-55.9492 22.03515,-82.9375 0.25,-6.4414 3.96485,-7.4336 14.60938,-7.4336 10.64843,0 14.36328,0.9922 14.60937,7.4336 1.23828,26.9883 6.19141,57.4375 22.03516,82.9375 12.13672,-25.75 19.3164,-61.6485 20.05859,-95.3203 0.2461,-6.4375 3.96094,-7.4297 14.35938,-7.4297 10.64843,0 13.86718,0.9922 13.86718,7.4297"
           style="fill:#ffffff;fill-opacity:1;fill-rule:nonzero;stroke:none" />
        <path
           inkscape:connector-curvature="0"
           id="path43"
           d="m 858.72266,2664.7109 0,-164.9101 c 0,-6.4414 3.46875,-7.1797 14.36328,-7.1797 10.64453,0 14.11328,0.7383 14.11328,7.1797 l 0,164.9101 c 0,6.4297 -3.46875,7.1797 -14.11328,7.1797 -10.89453,0 -14.36328,-0.75 -14.36328,-7.1797"
           style="fill:#ffffff;fill-opacity:1;fill-rule:nonzero;stroke:none" />
        <path
           inkscape:connector-curvature="0"
           id="path45"
           d="m 1033.0391,2584.7305 0,79.9804 c 0,6.4297 -3.4688,7.1797 -13.6172,7.1797 -10.1524,0 -13.6211,-0.75 -13.6211,-7.1797 l 0,-75.0312 c 0,-12.3789 -4.461,-22.0313 -19.80861,-22.0313 -10.40235,0 -20.55078,5.2032 -26.74219,12.8711 -2.72266,3.2188 -4.45703,7.6797 -4.45703,12.8789 l 0,71.3125 c 0,6.4297 -3.46875,7.1797 -13.61719,7.1797 -10.15234,0 -13.62109,-0.75 -13.62109,-7.1797 l 0,-111.9218 c 0,-5.9375 2.97265,-7.1797 10.15234,-7.1797 7.42969,0 9.41016,1.2422 10.64844,5.9414 l 3.46484,12.1289 c 11.39063,-13.1211 28.22656,-19.5586 41.84375,-19.5586 27.48434,0 39.37504,15.5977 39.37504,40.6094"
           style="fill:#ffffff;fill-opacity:1;fill-rule:nonzero;stroke:none" />
        <path
           inkscape:connector-curvature="0"
           id="path47"
           d="m 1141.4805,2659.0117 c 0,6.4375 -2.2305,9.4102 -8.1719,11.1367 -6.4375,2.2305 -13.3672,3.4727 -22.0391,3.4727 -21.289,0 -36.1484,-8.6719 -36.1484,-36.4023 l 0,-70.5586 -11.8828,0 c -4.707,0 -5.9375,-2.4805 -5.9375,-8.9219 0,-5.9375 0.7383,-7.668 4.2109,-8.6602 l 14.5977,-2.4765 4.2109,-23.7735 c 1.2383,-4.207 3.4688,-5.4492 11.1485,-5.4492 7.6718,0 10.8906,1.2422 10.8906,7.1797 l 0,21.543 31.4492,0 c 4.9531,0 5.9414,2.4765 5.9414,10.1601 0,7.668 -0.9883,10.3985 -5.9414,10.3985 l -31.4492,0 0,63.8789 c 0,15.3515 5.9414,20.3007 17.832,20.3007 7.918,0 13.6172,-3.2187 16.0899,-3.2187 3.4687,0 5.1992,6.4375 5.1992,11.3906"
           style="fill:#ffffff;fill-opacity:1;fill-rule:nonzero;stroke:none" />
        <path
           inkscape:connector-curvature="0"
           id="path49"
           d="m 1187.5313,2600.0781 c 8.9179,0.7422 16.3476,1.2422 22.039,1.2422 22.2891,0 31.1992,-5.9414 31.1992,-18.5703 0,-12.3789 -8.6679,-18.8203 -23.5195,-18.8203 -15.8516,0 -28.2305,7.1797 -29.7187,36.1484 z m 78,56.211 c 0,6.6797 -3.2227,9.1601 -9.4102,11.6406 -8.1719,3.2109 -20.0625,5.9414 -34.1719,5.9414 -36.8906,0 -63.1406,-16.8398 -63.1406,-65.3711 0,-46.0508 23.7695,-64.8711 59.1797,-64.8711 32.6836,0 50.2617,16.3399 50.2617,40.1094 0,25.75 -22.0312,37.6406 -56.6992,37.6406 -8.1719,0 -15.8399,-0.75 -23.5195,-1.9805 2.9687,25.5 15.5976,32.1797 33.6679,32.1797 22.5391,0 32.6914,-8.6562 36.1524,-8.6562 4.207,0 7.6797,6.9297 7.6797,13.3672"
           style="fill:#ffffff;fill-opacity:1;fill-rule:nonzero;stroke:none" />
        <path
           inkscape:connector-curvature="0"
           id="path51"
           d="m 1373.4805,2556.5 c 0,6.6914 -1.9805,13.8711 -6.4414,13.8711 -2.7188,0 -5.9375,-1.7305 -12.1289,-1.7305 -10.1485,0 -19.5586,2.9688 -26.7383,11.8789 -2.9727,2.9688 -4.461,7.6797 -4.461,12.8789 l 0,71.3125 c 0,6.4297 -3.4609,7.1797 -13.6211,7.1797 -10.3984,0 -13.6093,-0.75 -13.6093,-7.1797 l 0,-111.9218 c 0,-5.9375 2.7187,-7.1797 10.1484,-7.1797 7.4219,0 9.6524,1.2422 11.6328,5.6914 l 2.7266,11.6406 c 11.3906,-12.6328 28.4726,-18.8203 41.1015,-18.8203 8.4219,0 11.3907,3.9687 11.3907,12.3789"
           style="fill:#ffffff;fill-opacity:1;fill-rule:nonzero;stroke:none" />
        <path
           inkscape:connector-curvature="0"
           id="path53"
           d="m 1484.8984,2497.5703 c 0,6.6914 -3.707,13.6211 -7.6796,13.6211 -2.9688,0 -9.6485,-5.6914 -24.2579,-5.6914 -15.1093,0 -22.7812,7.9219 -22.7812,23.2695 l 0,17.3321 30.4492,0 c 4.7109,0 5.6992,2.4765 5.6992,10.1601 0,7.668 -0.9883,10.3985 -5.6992,10.3985 l -30.4492,0 0,98.0507 c 0,6.4297 -3.4688,7.1797 -13.6211,7.1797 -10.1484,0 -13.6172,-0.75 -13.6172,-7.1797 l 0,-98.0507 -11.8828,0 c -4.707,0 -5.9492,-2.4805 -5.9492,-8.9219 0,-5.9375 0.75,-7.668 4.2109,-8.6602 l 13.6211,-2.2265 0,-18.5703 c 0,-27.7305 17.5781,-45.0704 50.2695,-45.0704 6.9297,0 14.3594,0.9883 22.0274,2.7305 5.9531,1.4805 9.6601,4.6992 9.6601,11.6289"
           style="fill:#ffffff;fill-opacity:1;fill-rule:nonzero;stroke:none" />
        <path
           inkscape:connector-curvature="0"
           id="path55"
           d="m 1552,2624.6016 0,-13.1328 c -41.1094,-0.4883 -50.2695,11.6406 -50.2695,23.2812 0,10.8906 8.1679,16.8281 18.5703,16.8281 11.1406,0 21.789,-6.6797 27.2383,-13.8593 2.2304,-2.9688 4.4609,-6.9375 4.4609,-13.1172 z m 27.2305,-30.961 0,71.0703 c 0,5.9375 -1.7305,7.1797 -10.1524,7.1797 -8.1679,0 -10.3984,-1.2422 -11.3867,-6.4414 l -2.4805,-12.1289 c -10.1523,12.6211 -25.9921,20.5508 -43.332,20.5508 -20.8008,0 -37.8789,-11.8906 -37.8789,-35.1602 0,-22.7812 16.0898,-47.789 78,-46.0625 l 0,-4.6992 c 0,-13.1211 -5.9492,-22.039 -25.7617,-22.039 -22.7695,0 -33.168,8.9179 -37.1367,8.9179 -3.961,0 -7.4219,-6.6875 -7.4219,-13.6172 0,-5.9414 2.9687,-9.4101 10.3984,-11.8906 9.1602,-3.2187 23.5235,-5.6914 36.6407,-5.6914 35.6601,0 50.5117,14.6094 50.5117,50.0117"
           style="fill:#ffffff;fill-opacity:1;fill-rule:nonzero;stroke:none" />
        <path
           inkscape:connector-curvature="0"
           id="path57"
           d="m 1607.7109,2608.75 c 0,-47.0508 24.7539,-65.1211 57.1875,-65.1211 11.6368,0 22.5313,1.9805 30.7032,4.9492 6.9336,2.4805 10.1601,5.2032 10.1601,11.8907 0,6.6796 -3.7187,13.371 -7.6797,13.371 -3.707,0 -12.3789,-7.9296 -30.2109,-7.9296 -18.3203,0 -31.6875,9.1601 -31.6875,42.8398 0,33.918 13.3672,42.832 31.9414,42.832 18.3086,0 27.9766,-8.414 31.6875,-8.414 3.9688,0 7.6758,6.9336 7.6758,13.3711 0,6.6797 -3.2149,9.1601 -9.6563,11.6328 -7.9179,3.2187 -19.0664,5.6992 -32.6836,5.6992 -32.6836,0 -57.4375,-18.082 -57.4375,-65.1211"
           style="fill:#ffffff;fill-opacity:1;fill-rule:nonzero;stroke:none" />
        <path
           inkscape:connector-curvature="0"
           id="path59"
           d="m 1755.7734,2600.082 c 8.8985,0.7383 16.336,1.2383 22.0274,1.2383 22.2851,0 31.1953,-5.9414 31.1953,-18.5703 0,-12.3789 -8.6641,-18.8203 -23.5117,-18.8203 -15.8516,0 -28.2344,7.1797 -29.711,36.1523 z m 77.9883,56.2071 c 0,6.6797 -3.2226,9.1601 -9.4179,11.6406 -8.168,3.2109 -20.043,5.9414 -34.1524,5.9414 -36.9101,0 -63.1484,-16.8398 -63.1484,-65.3711 0,-46.0469 23.7734,-64.8711 59.1718,-64.8711 32.6993,0 50.2735,16.3399 50.2735,40.1133 0,25.7461 -22.0391,37.6367 -56.6953,37.6367 -8.1914,0 -15.8516,-0.75 -23.5352,-1.9766 2.9727,25.5 15.6055,32.1797 33.6758,32.1797 22.5352,0 32.6836,-8.6601 36.1562,-8.6601 4.2149,0 7.6719,6.9297 7.6719,13.3672"
           style="fill:#ffffff;fill-opacity:1;fill-rule:nonzero;stroke:none" />
        <path
           inkscape:connector-curvature="0"
           id="path61"
           d="m 1866.6953,2668.918 c -6.9297,-2.4805 -10.1523,-5.4492 -10.1523,-11.8867 0,-6.6836 3.7109,-13.6211 7.664,-13.6211 3.7227,0 15.1172,9.4101 39.875,9.4101 14.3555,0 21.5391,-4.9492 21.5391,-15.3515 0,-7.918 -4.9453,-13.3711 -26.7461,-17.5782 -24.5039,-4.6992 -42.0781,-13.8711 -42.0781,-38.3828 0,-19.8086 14.5898,-37.8789 49.0117,-37.8789 11.6484,0 21.5469,1.7305 29.9648,4.4609 6.9297,2.4688 9.9102,5.4375 9.9102,11.879 0,6.6914 -3.4727,13.621 -7.4336,13.621 -3.7227,0 -14.3555,-9.1601 -35.9023,-9.1601 -13.3711,0 -20.0547,6.9297 -20.0547,14.6094 0,8.4101 7.4258,13.6093 25.7539,17.332 24.5039,4.9492 43.3242,14.1094 43.3242,39.6094 0,21.0508 -14.6055,37.8906 -50.2578,37.8906 -13.875,0 -25.5117,-1.7305 -34.418,-4.9531"
           style="fill:#ffffff;fill-opacity:1;fill-rule:nonzero;stroke:none" />
        <path
           inkscape:connector-curvature="0"
           id="path63"
           d="m 2124.9336,2497.5703 c 0,6.6875 -3.7148,13.6172 -7.6797,13.6172 -2.9726,0 -9.6445,-5.6875 -24.2617,-5.6875 -15.0938,0 -22.7734,7.918 -22.7734,23.2695 l 0,17.3282 30.4531,0 c 4.707,0 5.6992,2.4804 5.6992,10.1601 0,7.6719 -0.9922,10.4024 -5.6992,10.4024 l -30.4531,0 0,98.0468 c 0,6.4336 -3.4805,7.1836 -13.6211,7.1836 -10.1563,0 -13.625,-0.75 -13.625,-7.1836 l 0,-98.0468 -11.875,0 c -4.7188,0 -5.9454,-2.4805 -5.9454,-8.9219 0,-5.9375 0.7422,-7.668 4.211,-8.6602 l 13.6094,-2.2304 0,-18.5704 c 0,-27.7265 17.5859,-45.0664 50.2695,-45.0664 6.9336,0 14.3672,0.9883 22.0312,2.7266 5.9454,1.4805 9.6602,4.7031 9.6602,11.6328"
           style="fill:#ffffff;fill-opacity:1;fill-rule:nonzero;stroke:none" />
        <path
           inkscape:connector-curvature="0"
           id="path65"
           d="m 2203.9102,2608.2539 c 0,-35.4023 -12.875,-43.082 -29.4727,-43.082 -16.5859,0 -29.2148,7.6797 -29.2148,43.082 0,35.4063 12.6289,44.3164 29.2148,44.3164 16.5977,0 29.4727,-8.9101 29.4727,-44.3164 z m -87.1602,0 c 0,-45.8008 24.5156,-64.6211 57.6875,-64.6211 33.4297,0 57.9453,18.0703 57.9453,64.6211 0,46.5469 -25.0078,65.6172 -57.9453,65.6172 -33.1719,0 -57.6875,-18.0781 -57.6875,-65.6172"
           style="fill:#ffffff;fill-opacity:1;fill-rule:nonzero;stroke:none" />
        <path
           inkscape:connector-curvature="0"
           id="path67"
           d="m 2339.3438,2556.5 c 0,6.6914 -1.9805,13.8711 -6.4454,13.8711 -2.7109,0 -5.9414,-1.7305 -12.125,-1.7305 -10.1484,0 -19.5625,2.9727 -26.7382,11.8828 -2.9727,2.9688 -4.4649,7.6797 -4.4649,12.8789 l 0,71.3086 c 0,6.4297 -3.4726,7.1797 -13.6172,7.1797 -10.3906,0 -13.6211,-0.75 -13.6211,-7.1797 l 0,-111.9179 c 0,-5.9414 2.7266,-7.1797 10.1602,-7.1797 7.4219,0 9.6445,1.2383 11.625,5.6875 l 2.7422,11.6406 c 11.3789,-12.6289 28.4609,-18.8203 41.0898,-18.8203 8.4219,0 11.3946,3.9687 11.3946,12.3789"
           style="fill:#ffffff;fill-opacity:1;fill-rule:nonzero;stroke:none" />
        <path
           inkscape:connector-curvature="0"
           id="path69"
           d="m 2620.6172,2664.7109 c 0,6.4297 -3.4727,7.1797 -14.3594,7.1797 -10.8984,0 -14.3555,-0.75 -14.3555,-7.1797 0,-43.0898 -4.2109,-92.8593 -12.3789,-137.1796 -21.5429,31.4492 -38.3945,75.2812 -45.5625,111.9179 -0.7421,3.961 -3.7304,4.711 -12.3828,4.711 -8.664,0 -11.6406,-0.75 -12.3789,-4.711 -7.1875,-36.6367 -24.2773,-80.2187 -45.3047,-111.6679 -8.1836,44.3203 -12.3789,94.0898 -12.3789,136.9296 0,6.4297 -3.4726,7.1797 -14.375,7.1797 -10.8984,0 -14.3554,-0.75 -14.3554,-7.1797 0,-52.25 7.4257,-111.6718 19.0664,-164.4101 1.4804,-6.6914 5.6914,-7.6797 14.5976,-7.6797 9.4219,0 11.8828,0.7422 14.6133,4.2109 20.0508,25.75 39.6172,66.1094 49.7773,101.5196 l 1.2227,0 c 9.6602,-34.6719 29.4688,-74.7813 50.0156,-101.5196 2.4922,-3.2226 5.211,-4.2109 14.6133,-4.2109 9.1641,0 13.3789,0.9883 14.8555,7.6797 11.6406,52.7383 19.0703,112.1601 19.0703,164.4101"
           style="fill:#ffffff;fill-opacity:1;fill-rule:nonzero;stroke:none" />
        <path
           inkscape:connector-curvature="0"
           id="path71"
           d="m 2764.4648,2552.793 0,111.9179 c 0,5.9414 -1.7304,7.1797 -10.3984,7.1797 -7.4258,0 -9.4101,-0.9883 -11.3945,-5.6992 l -2.4766,-12.6289 c -11.3984,13.3789 -27.7305,19.8086 -41.3476,19.8086 -27.7305,0 -39.3672,-15.5977 -39.3672,-40.3594 l 0,-80.2187 c 0,-6.1914 3.207,-7.1836 13.6211,-7.1836 10.1562,0 13.6172,0.9922 13.6172,7.1836 l 0,75.2695 c 0,12.1289 4.4609,21.7891 19.5546,21.7891 10.6524,0 20.3204,-5.1993 26.2539,-12.8711 2.9688,-3.2188 4.6993,-7.6797 4.6993,-12.8789 l 0,-71.3086 c 0,-6.1914 3.2226,-7.1836 13.6172,-7.1836 10.1445,0 13.621,0.9922 13.621,7.1836"
           style="fill:#ffffff;fill-opacity:1;fill-rule:nonzero;stroke:none" />
        <path
           inkscape:connector-curvature="0"
           id="path73"
           d="m 2802.832,2668.918 c -6.9257,-2.4766 -10.1484,-5.4492 -10.1484,-11.8867 0,-6.6797 3.7187,-13.6211 7.6875,-13.6211 3.7031,0 15.0937,9.4101 39.8594,9.4101 14.3672,0 21.539,-4.9492 21.539,-15.3515 0,-7.918 -4.957,-13.3672 -26.7461,-17.5782 -24.5,-4.6992 -42.0937,-13.8711 -42.0937,-38.3789 0,-19.8125 14.6172,-37.8789 49.0351,-37.8789 11.6407,0 21.543,1.7266 29.9571,4.457 6.9453,2.4727 9.9023,5.4415 9.9023,11.8829 0,6.6875 -3.4726,13.6171 -7.4219,13.6171 -3.7187,0 -14.3671,-9.1601 -35.9101,-9.1601 -13.3555,0 -20.0508,6.9297 -20.0508,14.6094 0,8.4101 7.4219,13.6093 25.7383,17.332 24.5351,4.9492 43.3476,14.1094 43.3476,39.6094 0,21.0508 -14.6132,37.8906 -50.2734,37.8906 -13.8516,0 -25.4922,-1.7305 -34.4219,-4.9531"
           style="fill:#ffffff;fill-opacity:1;fill-rule:nonzero;stroke:none" />
        <path
           inkscape:connector-curvature="0"
           id="path75"
           d="m 2915.2539,2664.7109 0,-111.9179 c 0,-6.1914 3.2149,-7.1797 13.6055,-7.1797 10.1562,0 13.6289,0.9883 13.6289,7.1797 l 0,111.9179 c 0,6.4297 -3.4727,7.1797 -13.6289,7.1797 -10.3906,0 -13.6055,-0.75 -13.6055,-7.1797 z m -2.9844,-158.2187 c 0,-11.1406 2.2422,-15.3516 16.5899,-15.3516 14.3672,0 16.8437,3.461 16.8437,15.3516 0,11.8789 -2.4765,15.3476 -16.8437,15.3476 -14.3477,0 -16.5899,-3.4687 -16.5899,-15.3476"
           style="fill:#ffffff;fill-opacity:1;fill-rule:nonzero;stroke:none" />
        <path
           inkscape:connector-curvature="0"
           id="path77"
           d="m 2972.207,2608.75 c 0,-47.0508 24.7461,-65.1211 57.1797,-65.1211 11.6485,0 22.5391,1.9805 30.7188,4.9531 6.9179,2.4766 10.1406,5.1993 10.1406,11.8868 0,6.6835 -3.7148,13.371 -7.6719,13.371 -3.7109,0 -12.3828,-7.9296 -30.2109,-7.9296 -18.3164,0 -31.6992,9.1601 -31.6992,42.8398 0,33.9219 13.3828,42.832 31.9453,42.832 18.3203,0 27.9883,-8.414 31.6797,-8.414 3.9765,0 7.6914,6.9336 7.6914,13.3711 0,6.6797 -3.2227,9.1601 -9.668,11.6289 -7.918,3.2226 -19.0547,5.7031 -32.6797,5.7031 -32.6797,0 -57.4258,-18.082 -57.4258,-65.1211"
           style="fill:#ffffff;fill-opacity:1;fill-rule:nonzero;stroke:none" />
        <path
           inkscape:connector-curvature="0"
           id="path79"
           d="m 3167.2969,2624.6016 0,-13.1328 c -41.0977,-0.4883 -50.25,11.6406 -50.25,23.2812 0,10.8906 8.1523,16.8281 18.5586,16.8281 11.1523,0 21.7929,-6.6758 27.2422,-13.8593 2.2343,-2.9688 4.4492,-6.9375 4.4492,-13.1172 z m 27.2422,-30.961 0,71.0703 c 0,5.9414 -1.7227,7.1797 -10.1524,7.1797 -8.1719,0 -10.4062,-1.2383 -11.3867,-6.4414 l -2.4883,-12.1289 c -10.1523,12.6211 -25.9883,20.5508 -43.332,20.5508 -20.793,0 -37.8633,-11.8906 -37.8633,-35.1602 0,-22.7812 16.0899,-47.789 77.9805,-46.0625 l 0,-4.6992 c 0,-13.1172 -5.9375,-22.039 -25.75,-22.039 -22.7735,0 -33.1836,8.9218 -37.1406,8.9218 -3.9571,0 -7.4297,-6.6914 -7.4297,-13.6211 0,-5.9414 2.9804,-9.4101 10.4101,-11.8906 9.1719,-3.2187 23.5156,-5.6914 36.6485,-5.6914 35.6484,0 50.5039,14.6133 50.5039,50.0117"
           style="fill:#ffffff;fill-opacity:1;fill-rule:nonzero;stroke:none" />
        <path
           inkscape:connector-curvature="0"
           id="path81"
           d="m 3230.9297,2664.707 0,-172.3359 c 0,-6.4336 3.2187,-7.1836 13.6328,-7.1836 10.1328,0 13.6133,0.75 13.6133,7.1836 l 0,172.3359 c 0,6.4336 -3.4805,7.1797 -13.6133,7.1797 -10.4141,0 -13.6328,-0.7461 -13.6328,-7.1797"
           style="fill:#ffffff;fill-opacity:1;fill-rule:nonzero;stroke:none" />
        <path
           inkscape:connector-curvature="0"
           id="path83"
           d="m 3467.3867,2659.75 c 0,8.6719 -0.7461,11.6406 -6.4492,11.6406 l -98.043,0 c -4.4648,0 -6.9336,-2.4687 -6.9336,-6.9297 l 0,-164.4101 c 0,-4.461 2.4688,-6.9297 6.9336,-6.9297 l 96.5547,0 c 5.4453,0 6.1914,2.9687 6.1914,11.6289 0,8.9219 -0.7461,11.6406 -6.1914,11.6406 l -75.0039,0 0,51.0117 58.668,0 c 5.6992,0 6.4453,2.9688 6.4453,11.879 0,8.6679 -0.7461,11.6406 -6.4453,11.6406 l -58.668,0 0,57.1992 76.4922,0 c 5.7031,0 6.4492,2.7187 6.4492,11.6289"
           style="fill:#ffffff;fill-opacity:1;fill-rule:nonzero;stroke:none" />
        <path
           inkscape:connector-curvature="0"
           id="path85"
           d="m 3597.6211,2664.457 c 0,6.6836 -3.2227,7.4336 -13.8594,7.4336 -10.6406,0 -13.1328,-0.75 -14.3672,-7.4336 -1.2382,-15.3476 -9.6484,-32.1875 -26.4882,-47.0468 -17.0821,14.8593 -25.5118,31.6992 -26.75,47.0468 -1.2344,6.6836 -3.7071,7.4336 -14.3477,7.4336 -10.6602,0 -13.8828,-0.75 -13.8828,-7.4336 0,-19.0664 15.6055,-45.5586 36.9062,-60.1679 -21.0586,-14.8477 -33.6836,-33.668 -33.6836,-51.25 0,-6.4375 3.2227,-7.4297 13.8633,-7.4297 10.418,0 13.375,0.9922 14.125,7.4297 0.7266,12.8711 7.1719,26.7422 23.7696,39.6093 16.332,-12.8671 23.0195,-26.7382 23.7734,-39.6093 0.7266,-6.4375 3.707,-7.4297 14.1016,-7.4297 10.6601,0 13.8593,0.9922 13.8593,7.4297 0,17.582 -13.1093,36.4023 -33.8984,51.25 21.2734,14.6093 36.8789,41.1015 36.8789,60.1679"
           style="fill:#ffffff;fill-opacity:1;fill-rule:nonzero;stroke:none" />
        <path
           inkscape:connector-curvature="0"
           id="path87"
           d="m 3709.7734,2608.75 c 0,-34.668 -12.1328,-41.3516 -26.7421,-41.3516 -10.6407,0 -19.3086,5.9414 -24.9961,13.6211 -2.7305,3.711 -4.2188,8.1719 -4.2188,20.793 l 0,13.8672 c 0,12.3828 1.2383,16.5898 4.2188,20.8008 5.4336,7.6797 14.3554,13.8711 24.9961,13.8711 14.6093,0 26.7421,-6.9414 26.7421,-41.6016 z m 28.4844,0 c 0,48.5313 -21.3047,64.8711 -48.5273,64.8711 -12.8907,0 -26.2617,-5.6914 -35.4102,-14.6094 l 0,64.8672 c 0,6.1914 -3.4648,6.9414 -13.625,6.9414 -10.1601,0 -13.6211,-0.75 -13.6211,-6.9414 l 0,-171.0859 c 0,-5.9414 1.7422,-7.1836 10.1602,-7.1836 7.6836,0 9.6562,0.9922 10.8945,5.9414 l 2.4766,10.9023 c 10.6406,-12.3828 25.5,-18.5742 39.3554,-18.5742 27.2422,0 48.2969,16.3399 48.2969,64.8711"
           style="fill:#ffffff;fill-opacity:1;fill-rule:nonzero;stroke:none" />
        <path
           inkscape:connector-curvature="0"
           id="path89"
           d="m 3845.2188,2556.5 c 0,6.6875 -1.9805,13.8711 -6.4415,13.8711 -2.7343,0 -5.9414,-1.7305 -12.125,-1.7305 -10.1679,0 -19.5781,2.9688 -26.75,11.8789 -2.9726,2.9727 -4.457,7.6797 -4.457,12.8828 l 0,71.3086 c 0,6.4297 -3.4687,7.1797 -13.6133,7.1797 -10.4023,0 -13.6132,-0.75 -13.6132,-7.1797 l 0,-111.9218 c 0,-5.9375 2.7148,-7.1797 10.1445,-7.1797 7.4336,0 9.6484,1.2422 11.6289,5.6914 l 2.7383,11.6367 c 11.3711,-12.625 28.4726,-18.8164 41.0937,-18.8164 8.4219,0 11.3946,3.9687 11.3946,12.3789"
           style="fill:#ffffff;fill-opacity:1;fill-rule:nonzero;stroke:none" />
        <path
           inkscape:connector-curvature="0"
           id="path91"
           d="m 3883.5859,2600.082 c 8.9024,0.7383 16.3438,1.2383 22.0352,1.2383 22.2773,0 31.2031,-5.9414 31.2031,-18.5703 0,-12.3789 -8.6601,-18.8203 -23.5195,-18.8203 -15.8555,0 -28.2344,7.1797 -29.7188,36.1523 z m 77.9961,56.2071 c 0,6.6836 -3.2109,9.164 -9.4101,11.6406 -8.1719,3.2109 -20.0664,5.9414 -34.1719,5.9414 -36.8945,0 -63.1367,-16.8398 -63.1367,-65.3711 0,-46.0508 23.7851,-64.8711 59.1719,-64.8711 32.6875,0 50.2734,16.3399 50.2734,40.1133 0,25.75 -22.0352,37.6367 -56.6953,37.6367 -8.1719,0 -15.8555,-0.75 -23.5156,-1.9805 2.9648,25.5039 15.5898,32.1836 33.6601,32.1836 22.5195,0 32.6875,-8.6601 36.1406,-8.6601 4.2071,0 7.6836,6.9297 7.6836,13.3672"
           style="fill:#ffffff;fill-opacity:1;fill-rule:nonzero;stroke:none" />
        <path
           inkscape:connector-curvature="0"
           id="path93"
           d="m 3994.5039,2668.9219 c -6.9336,-2.4844 -10.1367,-5.4492 -10.1367,-11.8946 0,-6.6757 3.7031,-13.6171 7.6836,-13.6171 3.7031,0 15.0898,9.4101 39.8398,9.4101 14.3633,0 21.5469,-4.9492 21.5469,-15.3515 0,-7.918 -4.9531,-13.3672 -26.7266,-17.5782 -24.5273,-4.6992 -42.0937,-13.8711 -42.0937,-38.3828 0,-19.8047 14.5898,-37.8789 49,-37.8789 11.6601,0 21.5742,1.7305 29.9805,4.4609 6.9336,2.4688 9.9101,5.4415 9.9101,11.879 0,6.6914 -3.4765,13.621 -7.4336,13.621 -3.7031,0 -14.3633,-9.1601 -35.9101,-9.1601 -13.3633,0 -20.0469,6.9297 -20.0469,14.6094 0,8.4101 7.4336,13.6132 25.7539,17.332 24.5,4.9492 43.3164,14.1094 43.3164,39.6094 0,21.0468 -14.6133,37.8867 -50.25,37.8867 -13.8906,0 -25.5,-1.7266 -34.4336,-4.9453"
           style="fill:#ffffff;fill-opacity:1;fill-rule:nonzero;stroke:none" />
        <path
           inkscape:connector-curvature="0"
           id="path95"
           d="m 4108.9141,2668.918 c -6.9454,-2.4766 -10.1641,-5.4453 -10.1641,-11.8907 0,-6.6757 3.707,-13.6171 7.668,-13.6171 3.7304,0 15.1015,9.4101 39.8789,9.4101 14.3554,0 21.5312,-4.9492 21.5312,-15.3515 0,-7.918 -4.9375,-13.3672 -26.7304,-17.5821 -24.5157,-4.6953 -42.0899,-13.8672 -42.0899,-38.375 0,-19.8125 14.5859,-37.8828 49.0117,-37.8828 11.6524,0 21.5352,1.7305 29.9727,4.4609 6.9219,2.4688 9.9062,5.4415 9.9062,11.879 0,6.6875 -3.4765,13.621 -7.4375,13.621 -3.7304,0 -14.3554,-9.1601 -35.8906,-9.1601 -13.3789,0 -20.0664,6.9297 -20.0664,14.6094 0,8.4101 7.4336,13.6132 25.7539,17.332 24.4922,4.9492 43.3242,14.1094 43.3242,39.6094 0,21.0468 -14.6133,37.8906 -50.2695,37.8906 -13.8672,0 -25.4961,-1.7344 -34.3984,-4.9531"
           style="fill:#ffffff;fill-opacity:1;fill-rule:nonzero;stroke:none" />
        <path
           inkscape:connector-curvature="0"
           id="path97"
           d="m 4221.3164,2664.7109 0,-111.9218 c 0,-6.1875 3.207,-7.1758 13.6172,-7.1758 10.1445,0 13.6133,0.9883 13.6133,7.1758 l 0,111.9218 c 0,6.4297 -3.4688,7.1797 -13.6133,7.1797 -10.4102,0 -13.6172,-0.75 -13.6172,-7.1797 z m -2.9727,-158.2226 c 0,-11.1406 2.2149,-15.3477 16.5899,-15.3477 14.3437,0 16.8242,3.461 16.8242,15.3477 0,11.8828 -2.4805,15.3515 -16.8242,15.3515 -14.375,0 -16.5899,-3.4687 -16.5899,-15.3515"
           style="fill:#ffffff;fill-opacity:1;fill-rule:nonzero;stroke:none" />
        <path
           inkscape:connector-curvature="0"
           id="path99"
           d="m 4365.4102,2608.25 c 0,-35.4023 -12.8829,-43.082 -29.461,-43.082 -16.6055,0 -29.2226,7.6797 -29.2226,43.082 0,35.4102 12.6171,44.3203 29.2226,44.3203 16.5781,0 29.461,-8.9101 29.461,-44.3203 z m -87.1758,0 c 0,-45.8008 24.5312,-64.6172 57.7148,-64.6172 33.4258,0 57.9258,18.0664 57.9258,64.6172 0,46.5508 -24.9883,65.6211 -57.9258,65.6211 -33.1836,0 -57.7148,-18.0781 -57.7148,-65.6211"
           style="fill:#ffffff;fill-opacity:1;fill-rule:nonzero;stroke:none" />
        <path
           inkscape:connector-curvature="0"
           id="path101"
           d="m 4529.3125,2584.7305 0,79.9804 c 0,6.4297 -3.4727,7.1797 -13.6133,7.1797 -10.1445,0 -13.6172,-0.75 -13.6172,-7.1797 l 0,-75.0273 c 0,-12.3828 -4.4726,-22.0313 -19.8125,-22.0313 -10.3906,0 -20.5625,5.1993 -26.7578,12.8672 -2.6953,3.2227 -4.4453,7.6797 -4.4453,12.8828 l 0,71.3086 c 0,6.4297 -3.4766,7.1797 -13.6172,7.1797 -10.1406,0 -13.6172,-0.75 -13.6172,-7.1797 l 0,-111.9179 c 0,-5.9414 2.9727,-7.1836 10.1446,-7.1836 7.4453,0 9.4179,1.2422 10.6679,5.9414 l 3.4453,12.1289 c 11.3946,-13.1211 28.2344,-19.5586 41.8477,-19.5586 27.4844,0 39.375,15.6016 39.375,40.6094"
           style="fill:#ffffff;fill-opacity:1;fill-rule:nonzero;stroke:none" />
        <path
           inkscape:connector-curvature="0"
           id="path103"
           d="m 1166.5703,2805.0586 c -1.2109,7.0898 -1.8203,9.5195 -6.2812,9.5195 l -59.7578,0 -7.0899,44.7735 46.1875,0 c 4.6602,0 4.4492,2.6289 3.4414,9.7187 -1.0117,7.0899 -1.8203,9.5195 -6.2812,9.5195 l -46.3907,0 -9.1093,57.9415 c -0.8086,4.8593 -3.8477,5.2695 -12.5586,5.2695 -8.9219,0 -11.75,-0.4102 -10.9414,-5.2695 l 21.2695,-134.711 c 0.8125,-4.2617 3.043,-6.2812 7.293,-6.2812 l 76.7773,0 c 4.6602,0 4.4492,2.4297 3.4414,9.5195"
           style="fill:#ffffff;fill-opacity:1;fill-rule:nonzero;stroke:none" />
        <path
           inkscape:connector-curvature="0"
           id="path105"
           d="m 1181.5586,2884.6719 6.6914,0 c 21.0703,0 35.25,-5.0625 35.25,-18.8438 0,-7.8984 -5.4687,-11.5468 -13.7812,-11.5468 -15.3907,0 -24.7071,13.3671 -28.1602,30.3906 z m -1.6172,15.3984 0,0.3985 c 0,19.4531 9.5195,24.9218 21.0703,24.9218 14.9883,0 24.3086,-8.5117 27.5469,-8.5117 3.6523,0 6.4805,5.6719 6.4805,9.7227 0,4.8672 -1.8203,6.8867 -6.6797,9.3203 -8.918,4.6562 -19.25,7.5 -30.7891,7.5 -23.3008,0 -40.5195,-12.5625 -40.5195,-41.7305 0,-33.832 19.6484,-64.832 55.3008,-64.832 21.6797,0 32.0078,11.5508 32.0078,26.9492 0,24.7109 -22.4805,36.8633 -51.8594,36.8633 -3.8516,0 -8.1016,-0.2031 -12.5586,-0.6016"
           style="fill:#ffffff;fill-opacity:1;fill-rule:nonzero;stroke:none" />
        <path
           inkscape:connector-curvature="0"
           id="path107"
           d="m 1325.1914,2866.4414 c -3.6523,-6.8906 -8.9101,-11.1406 -16.8125,-11.1406 -17.8281,0 -27.957,22.0781 -27.957,45.168 0,18.8398 7.289,24.7226 17.4179,24.7226 7.5,0 14.9883,-3.6523 21.0704,-11.3516 3.2382,-4.0507 4.4609,-7.8984 5.6679,-14.1796 1.2227,-5.8711 2.0313,-12.1485 2.8438,-18.2305 0.8086,-5.668 0.1992,-10.3281 -2.2305,-14.9883 z m 38.0899,-72.1211 -22.4922,141.6016 c -0.8086,4.8594 -2.2305,5.8789 -9.1172,5.8789 -6.2813,0 -8.3008,-0.4102 -8.711,-4.6602 l -0.8125,-8.9101 c -9.3203,9.9179 -20.0468,14.9883 -31.7968,14.9883 -17.8321,0 -33.0235,-12.1602 -33.0235,-41.5274 0,-33.832 19.2422,-64.6211 48.4102,-64.6211 11.1523,0 19.8633,4.6602 26.3398,14.1797 l 8.9102,-56.9297 c 0.8125,-4.8594 3.4531,-5.2617 11.75,-5.2617 8.5117,0 11.3515,0.4023 10.543,5.2617"
           style="fill:#ffffff;fill-opacity:1;fill-rule:nonzero;stroke:none" />
        <path
           inkscape:connector-curvature="0"
           id="path109"
           d="m 1395.2813,2884.6719 6.6875,0 c 21.0703,0 35.25,-5.0625 35.25,-18.8438 0,-7.8984 -5.4688,-11.5468 -13.7774,-11.5468 -15.3906,0 -24.7109,13.3671 -28.1601,30.3906 z m -1.6211,15.3984 0,0.3985 c 0,19.4531 9.5195,24.9218 21.0703,24.9218 14.9883,0 24.3086,-8.5117 27.5508,-8.5117 3.6484,0 6.4804,5.6719 6.4804,9.7227 0,4.8672 -1.8203,6.8867 -6.6836,9.3203 -8.9062,4.6562 -19.25,7.5 -30.789,7.5 -23.3008,0 -40.5196,-12.5625 -40.5196,-41.7305 0,-33.832 19.6524,-64.832 55.3086,-64.832 21.6719,0 32,11.5508 32,26.9492 0,24.7109 -22.4765,36.8633 -51.8593,36.8633 -3.8477,0 -8.0977,-0.2031 -12.5586,-0.6016"
           style="fill:#ffffff;fill-opacity:1;fill-rule:nonzero;stroke:none" />
        <path
           inkscape:connector-curvature="0"
           id="path111"
           d="m 1545.8008,2844.3594 c 0,7.289 -3.4414,14.3789 -8.3125,14.3789 -2.4297,0 -4.6602,-0.1992 -7.2891,-0.1992 -8.3008,0 -15.8008,2.832 -22.4883,9.5195 -3.0312,2.6328 -4.4492,5.6719 -5.2617,10.332 l -9.1211,58.1407 c -0.8086,4.8593 -3.4375,5.2695 -11.9492,5.2695 -8.3086,0 -11.1406,-0.4102 -10.3281,-5.2695 l 14.5781,-92.1719 c 0.8125,-4.8594 2.2305,-5.8789 9.3203,-5.8789 6.0821,0 7.5,0.8086 8.5117,4.6601 l 0.8086,10.1289 c 9.5196,-9.9179 21.0703,-16 33.8321,-16 6.2773,0 7.6992,2.2305 7.6992,7.0899"
           style="fill:#ffffff;fill-opacity:1;fill-rule:nonzero;stroke:none" />
        <path
           inkscape:connector-curvature="0"
           id="path113"
           d="m 1615.5,2866.6367 c -3.6562,-7.0898 -9.3203,-11.3398 -17.2187,-11.3398 -17.836,0 -27.9649,22.082 -27.9649,45.1719 0,18.8398 7.3008,24.7187 17.4297,24.7187 7.4961,0 14.9883,-3.6484 20.8672,-11.1484 3.4336,-4.25 4.8555,-8.1016 5.875,-14.3828 1.0117,-5.8672 2.0195,-12.1485 2.8281,-18.2305 0.8086,-5.668 0.4141,-10.3281 -1.8164,-14.7891 z m 29.7813,-22.2773 -14.5938,91.5586 c -0.8086,4.8593 -2.4336,5.8789 -9.3203,5.8789 -6.2813,0 -8.1016,-0.4102 -8.5156,-4.6602 l -0.8047,-8.9062 c -9.3125,9.9179 -20.0469,14.9883 -31.8008,14.9883 -17.8242,0 -33.0156,-12.1602 -33.0156,-41.5313 0,-33.8281 19.25,-64.6211 48.6172,-64.6211 12.1484,0 21.6718,5.2617 27.9531,15.3906 l 3.6445,-9.3203 c 1.625,-4.0508 3.8477,-4.6601 9.9258,-4.6601 7.1016,0 8.7187,1.0195 7.9102,5.8828"
           style="fill:#ffffff;fill-opacity:1;fill-rule:nonzero;stroke:none" />
        <path
           inkscape:connector-curvature="0"
           id="path115"
           d="m 1660.457,2936.5313 22.4922,-142.211 c 0.8086,-4.8594 3.6446,-5.2578 11.9531,-5.2578 8.5118,0 11.1368,0.3984 10.3321,5.2578 l -22.4844,142.211 c -0.8164,4.8593 -3.4531,5.2695 -11.9609,5.2695 -8.3008,0 -11.1368,-0.4102 -10.3321,-5.2695"
           style="fill:#ffffff;fill-opacity:1;fill-rule:nonzero;stroke:none" />
        <path
           inkscape:connector-curvature="0"
           id="path117"
           d="m 1770.4492,2878.3906 12.3594,-77.9883 c 0.8125,-4.8593 3.6406,-5.2695 12.3594,-5.2695 8.9179,0 11.7461,0.4102 11.1289,5.2695 l -12.3477,78.3985 c -4.4492,28.5625 3.4453,44.3594 23.293,44.3594 19.2461,0 31.0039,-12.3594 36.0586,-44.1602 l 12.1601,-78.5977 c 0.8125,-4.8593 3.836,-5.2695 12.5664,-5.2695 8.9063,0 11.7461,0.4102 10.9219,5.2695 l -12.3476,79.2071 c -7.0938,45.7812 -28.9727,63.8125 -61.375,63.8125 -36.0586,0 -50.8516,-25.5313 -44.7774,-65.0313"
           style="fill:#ffffff;fill-opacity:1;fill-rule:nonzero;stroke:none" />
        <path
           inkscape:connector-curvature="0"
           id="path119"
           d="m 1993.293,2874.7383 -9.7149,61.789 c -0.8086,4.8594 -3.4414,5.2696 -11.9531,5.2696 -8.3047,0 -11.1367,-0.4102 -10.3281,-5.2696 l 9.5195,-59.9609 c 1.6172,-10.5391 -1.0156,-19.4492 -12.7656,-19.4492 -8.1055,0 -16.6055,4.6601 -22.2774,10.5312 -2.6328,2.6407 -4.6679,6.2813 -5.2695,10.7383 l -9.1133,58.1406 c -0.8203,4.8594 -3.6484,5.2696 -11.9531,5.2696 -8.3047,0 -11.1328,-0.4102 -10.3242,-5.2696 l 14.5742,-92.1679 c 0.8086,-4.8594 2.2305,-5.8828 9.125,-5.8828 6.2734,0 7.6914,0.8125 8.0977,4.6601 l 1.2109,10.7422 c 9.7266,-10.332 22.0859,-16.6094 35.6562,-16.6094 22.086,0 28.7618,16.8086 25.5157,37.4688"
           style="fill:#ffffff;fill-opacity:1;fill-rule:nonzero;stroke:none" />
        <path
           inkscape:connector-curvature="0"
           id="path121"
           d="m 2030.5781,2808.9102 c 0,-10.3321 3.8516,-14.9922 14.7891,-14.9922 9.918,0 13.5664,3.4414 13.5664,10.1328 0,10.1172 -4.0547,14.9883 -14.7891,14.9883 -10.1328,0 -13.5664,-3.2383 -13.5664,-10.1289 z m -16.8125,127.6211 14.5742,-92.5821 c 0.8086,-5.0625 3.6524,-5.4687 11.9493,-5.4687 8.5156,0 11.1406,0.4062 10.332,5.4687 l -14.5742,92.5821 c -0.8086,4.8593 -3.4492,5.2695 -11.9492,5.2695 -8.3125,0 -11.1407,-0.4102 -10.3321,-5.2695"
           style="fill:#ffffff;fill-opacity:1;fill-rule:nonzero;stroke:none" />
        <path
           inkscape:connector-curvature="0"
           id="path123"
           d="m 2071.9063,2899.6602 8.707,-55.711 c 0.8086,-5.0586 3.6445,-5.4687 11.9531,-5.4687 8.5078,0 11.1328,0.4101 10.3242,5.4687 l -9.1172,58.9492 c -2.4257,15.2032 0.6094,23.1016 9.7266,23.1016 15.1875,0 33.8359,-20.8711 33.8359,-54.2891 0,-17.832 -4.2695,-23.5 -4.2695,-26.9492 0,-4.0508 5.4727,-7.2929 14.5938,-7.2929 5.6718,0 8.3086,1.8203 9.5273,7.0898 1.8164,5.8789 3.0352,13.1719 3.0352,23.7031 0,44.1602 -30.3907,75.1563 -61.7852,75.1563 -24.1055,0 -31,-16.6094 -26.5312,-43.7578"
           style="fill:#ffffff;fill-opacity:1;fill-rule:nonzero;stroke:none" />
        <path
           inkscape:connector-curvature="0"
           id="path125"
           d="m 2199.7266,2884.668 6.6757,0 c 21.0704,0 35.2422,-5.0586 35.2422,-18.836 0,-7.9023 -5.4687,-11.5547 -13.7695,-11.5547 -15.3945,0 -24.707,13.3711 -28.1484,30.3907 z m -1.625,15.4023 0,0.3985 c 0,19.4531 9.5234,24.9218 21.0703,24.9218 14.9922,0 24.3047,-8.5117 27.5547,-8.5117 3.6367,0 6.4804,5.6719 6.4804,9.7188 0,4.8711 -1.832,6.8906 -6.6914,9.3242 -8.9101,4.6562 -19.25,7.4961 -30.8008,7.4961 -23.289,0 -40.5,-12.5586 -40.5,-41.7305 0,-33.8281 19.6524,-64.8281 55.2969,-64.8281 21.6836,0 32.0117,11.5508 32.0117,26.9492 0,24.7109 -22.4882,36.8594 -51.8593,36.8594 -3.8594,0 -8.1055,-0.1992 -12.5625,-0.5977"
           style="fill:#ffffff;fill-opacity:1;fill-rule:nonzero;stroke:none" />
        <path
           inkscape:connector-curvature="0"
           id="path127"
           d="m 2350.2305,2844.3594 c 0,7.289 -3.4453,14.3789 -8.3047,14.3789 -2.4219,0 -4.6563,-0.1992 -7.2813,-0.1992 -8.3203,0 -15.8007,2.832 -22.4922,9.5195 -3.0429,2.6328 -4.457,5.6719 -5.2773,10.332 l -9.0977,58.1407 c -0.8242,4.8593 -3.4609,5.2695 -11.9531,5.2695 -8.3047,0 -11.1445,-0.4102 -10.3398,-5.2695 l 14.5937,-92.1719 c 0.8086,-4.8594 2.2188,-5.8789 9.3125,-5.8789 6.086,0 7.4844,0.8086 8.5078,4.6601 l 0.8086,10.1289 c 9.5313,-9.9218 21.0664,-16 33.8399,-16 6.2734,0 7.6836,2.2305 7.6836,7.0899"
           style="fill:#ffffff;fill-opacity:1;fill-rule:nonzero;stroke:none" />
        <path
           inkscape:connector-curvature="0"
           id="path129"
           d="m 2356.9141,2936.332 c -4.8555,-2.4297 -6.0782,-5.0703 -6.0782,-8.7109 0,-4.6602 3.8438,-11.1406 7.8946,-11.1406 3.8593,0 11.7539,10.3281 28.7812,10.3281 10.3242,0 16.211,-5.0664 16.211,-14.1797 0,-6.6875 -4.0664,-10.9375 -14.6016,-14.3867 -20.8555,-6.4805 -29.7773,-14.3828 -29.7773,-28.9727 0,-19.8476 16.0156,-32.4101 39.1054,-32.4101 9.5196,0 17.6211,2.0312 23.6992,5.2695 4.4571,2.0313 6.0782,4.6602 6.0782,8.9102 0,5.0742 -3.6485,10.539 -7.2852,10.539 -3.4531,0 -10.9492,-8.5078 -24.5195,-8.5078 -10.7422,0 -16,6.0781 -16,13.168 0,6.0703 3.8437,9.7226 15.3906,13.5742 20.2578,6.2773 28.957,14.9883 28.957,30.3906 0,20.8555 -15.1797,33.2188 -40.1015,33.2188 -11.1446,0 -20.0508,-2.6406 -27.7539,-7.0899"
           style="fill:#ffffff;fill-opacity:1;fill-rule:nonzero;stroke:none" />
        <path
           inkscape:connector-curvature="0"
           id="path131"
           d="m 2460.2344,2808.9102 c 0,-10.3321 3.8476,-14.9922 14.7969,-14.9922 9.9218,0 13.5703,3.4414 13.5703,10.1328 0,10.1172 -4.0469,14.9883 -14.793,14.9883 -10.1211,0 -13.5742,-3.2383 -13.5742,-10.1289 z m -16.8086,127.6211 14.582,-92.5821 c 0.8086,-5.0586 3.6485,-5.4687 11.9531,-5.4687 8.5039,0 11.1446,0.4101 10.336,5.4687 l -14.5821,92.5821 c -0.8085,4.8593 -3.4492,5.2695 -11.9687,5.2695 -8.2891,0 -11.1289,-0.4102 -10.3203,-5.2695"
           style="fill:#ffffff;fill-opacity:1;fill-rule:nonzero;stroke:none" />
        <path
           inkscape:connector-curvature="0"
           id="path133"
           d="m 2566.9922,2847.1914 c -1.0078,6.0781 -1.8125,8.5078 -5.6719,8.5078 l -26.1211,0 -8.3203,52.8711 c -1.4023,8.918 0.2227,15.1992 8.3203,15.1992 8.3008,0 13.1719,-5.0703 15.5977,-5.0703 3.2461,0 5.6719,5.8789 5.6719,10.1289 0,4.8594 -2.0313,7.5 -7.9102,9.9297 -6.2695,3.043 -12.9492,4.461 -20.0547,4.461 -21.8672,0 -27.1289,-13.7813 -23.9023,-34.8477 l 8.5078,-52.6719 -10.7266,0 c -3.4492,0 -3.6406,-2.0195 -2.8359,-7.289 0.8047,-5.0625 1.6211,-6.2813 4.664,-7.0899 l 12.1446,-2.0312 6.8867,-19.6485 c 1.8281,-3.8437 4.0469,-4.25 10.1289,-4.25 6.8867,0 8.0977,1.0078 7.293,5.8789 l -2.8321,17.6172 26.1368,0 c 3.8437,0 4.0468,2.2344 3.0234,8.3047"
           style="fill:#ffffff;fill-opacity:1;fill-rule:nonzero;stroke:none" />
        <path
           inkscape:connector-curvature="0"
           id="path135"
           d="m 2674.5625,2843.9492 -15.3945,97.4414 c -5.0703,33.0196 -23.3086,49.8399 -53.8867,49.8399 -11.3399,0 -20.6641,-2.6407 -28.3594,-6.8907 -4.8594,-2.6406 -6.2891,-5.0703 -6.2891,-8.9101 0,-5.0703 4.6641,-12.1602 8.7188,-12.1602 3.6406,0 10.3242,9.1211 27.7539,9.1211 17.6289,0 26.1289,-8.9218 29.3789,-29.1718 l 2.2148,-13.9805 c -8.9101,8.5117 -19.6445,13.7734 -31.8086,13.7734 -22.0742,0 -28.9687,-16.8125 -25.5039,-37.6797 l 9.5196,-61.3828 c 0.8046,-5.0586 3.6406,-5.4687 11.9492,-5.4687 8.5,0 11.125,0.4101 10.3242,5.4687 l -9.5234,59.7617 c -1.6211,10.5391 1.2148,19.4493 12.7539,19.4493 8.125,0 16.0195,-4.6602 21.6836,-10.7383 2.6406,-2.6328 4.25,-5.8711 5.0703,-10.5313 l 9.1093,-57.9414 c 0.8204,-5.0586 3.6602,-5.4687 11.9493,-5.4687 8.3203,0 11.1445,0.4101 10.3398,5.4687"
           style="fill:#ffffff;fill-opacity:1;fill-rule:nonzero;stroke:none" />
        <path
           inkscape:connector-curvature="0"
           id="path137"
           d="m 2809.4688,2879.6094 c 0,-19.4492 -8.7032,-25.3281 -18.836,-25.3281 -19.8437,0 -30.3945,22.4882 -30.3945,46.1875 0,19.25 8.7226,25.5312 18.8398,25.5312 19.8594,0 30.3907,-22.6914 30.3907,-46.3906 z m -72.3086,22.082 c 0,-33.8281 19.0312,-64.8281 56.0976,-64.8281 22.6953,0 39.3086,12.3555 39.3086,41.7265 0,33.6329 -19.0469,64.8321 -56.1133,64.8321 -22.6953,0 -39.2929,-12.3594 -39.2929,-41.7305"
           style="fill:#ffffff;fill-opacity:1;fill-rule:nonzero;stroke:none" />
        <path
           inkscape:connector-curvature="0"
           id="path139"
           d="m 2937.9102,2800.1992 c 0,5.0625 -3.6563,10.9414 -7.4961,10.9414 -3.0274,0 -7.8946,-5.0703 -18.4375,-5.0703 -10.1289,0 -17.2149,6.082 -19.2344,18.6406 l -2.2344,14.1797 23.7031,0 c 3.8555,0 4.0547,2.2305 3.0469,8.2969 -0.8125,6.082 -1.8398,8.5117 -5.6797,8.5117 l -23.6992,0 -12.7617,80.8321 c -0.8125,4.8593 -3.6406,5.2695 -11.9492,5.2695 -8.3125,0 -11.1407,-0.4102 -10.3282,-5.2695 l 12.7618,-80.8321 -10.7461,0 c -3.4414,0 -3.6407,-2.0195 -2.8282,-7.289 0.8125,-5.0586 1.6211,-6.2813 4.6524,-7.0899 l 11.5351,-1.8203 2.2344,-14.7891 c 4.0547,-24.7226 19.0508,-37.2695 41.7227,-37.2695 7.3008,0 13.375,1.207 19.6679,3.6406 4.4493,1.8164 6.0704,4.6563 6.0704,9.1172"
           style="fill:#ffffff;fill-opacity:1;fill-rule:nonzero;stroke:none" />
        <path
           inkscape:connector-curvature="0"
           id="path141"
           d="m 3061.0703,2836.8594 c 0,-16 -10.5234,-22.2774 -28.7539,-22.2774 l -20.0625,0 -8.1016,51.25 19.8555,0 c 21.0664,0 37.0625,-9.3203 37.0625,-28.9726 z m -20.2539,40.9179 0,0.8125 c 5.2617,1.6211 9.918,5.4688 13.7774,9.9297 10.9414,11.9493 17.414,29.7813 18.0195,48.0118 0.2109,4.8593 -3.2344,5.2695 -12.1485,5.2695 -8.9179,0 -12.5507,-0.4102 -13.1562,-5.2695 -0.8125,-17.0196 -7.2852,-34.0313 -18.0391,-45.1719 -4.8632,-5.2696 -8.3086,-6.6875 -14.1757,-6.6875 l -13.9883,0 -8.1016,51.8594 c -0.793,4.8593 -3.8398,5.2695 -12.5469,5.2695 -8.914,0 -11.7539,-0.4102 -10.9414,-5.2695 l 21.2774,-134.711 c 0.7929,-4.2578 3.0273,-6.2812 7.2851,-6.2812 l 37.2696,0 c 32.0039,0 49.8359,11.75 49.8359,37.0703 0,24.9219 -18.0391,40.9219 -44.3672,45.1679"
           style="fill:#ffffff;fill-opacity:1;fill-rule:nonzero;stroke:none" />
        <path
           inkscape:connector-curvature="0"
           id="path143"
           d="m 3113.5508,2808.9102 c 0,-10.3321 3.8359,-14.9922 14.7851,-14.9922 9.9258,0 13.5704,3.4414 13.5704,10.1328 0,10.1172 -4.0469,14.9883 -14.7852,14.9883 -10.1172,0 -13.5703,-3.2383 -13.5703,-10.1289 z m -16.8086,127.6211 14.5937,-92.5821 c 0.8086,-5.0586 3.625,-5.4687 11.9297,-5.4687 8.5196,0 11.1446,0.4101 10.3321,5.4687 l -14.5899,92.5821 c -0.8086,4.8593 -3.4336,5.2695 -11.9336,5.2695 -8.3047,0 -11.1406,-0.4102 -10.332,-5.2695"
           style="fill:#ffffff;fill-opacity:1;fill-rule:nonzero;stroke:none" />
        <path
           inkscape:connector-curvature="0"
           id="path145"
           d="m 3221.3086,2879.6094 c 0,-19.4492 -8.6992,-25.3321 -18.8281,-25.3321 -19.8477,0 -30.375,22.4922 -30.375,46.1915 0,19.25 8.6992,25.5312 18.8281,25.5312 19.8437,0 30.375,-22.6914 30.375,-46.3906 z m -72.3125,22.0781 c 0,-33.8281 19.0469,-64.8281 56.1289,-64.8281 22.6719,0 39.293,12.3594 39.293,41.7304 0,33.629 -19.0508,64.8282 -56.1094,64.8282 -22.6914,0 -39.3125,-12.3594 -39.3125,-41.7305"
           style="fill:#ffffff;fill-opacity:1;fill-rule:nonzero;stroke:none" />
        <path
           inkscape:connector-curvature="0"
           id="path147"
           d="m 3311.6641,2885.2813 c 0,-47 23.2968,-91.7696 72.1211,-91.7696 13.7578,0 25.9218,4.0508 34.2226,8.711 4.4531,2.4257 6.2813,5.4648 6.2813,9.7265 0,6.0703 -5.0625,13.5703 -9.5196,13.5703 -4.2422,0 -12.5625,-10.3281 -31.8047,-10.3281 -31.4062,0 -47.6054,33.2188 -47.3945,69.6797 0,29.168 13.5703,39.0977 29.5586,39.0977 21.2813,0 34.4531,-15.5977 34.4531,-43.5469 0,-5.4727 -0.4179,-10.3321 -1.2187,-15.6016 -0.6094,-5.2695 1.8281,-6.0781 10.7344,-6.0781 8.9101,0 11.5546,0.4062 12.3554,5.4687 0.6094,4.25 1.0078,8.9102 1.0078,13.7774 0,38.8906 -19.832,65.4297 -59.1367,65.4297 -26.5547,0 -51.6601,-14.586 -51.6601,-58.1367"
           style="fill:#ffffff;fill-opacity:1;fill-rule:nonzero;stroke:none" />
        <path
           inkscape:connector-curvature="0"
           id="path149"
           d="m 3514.2461,2844.3594 c 0,7.289 -3.4492,14.3789 -8.3008,14.3789 -2.4336,0 -4.6562,-0.1992 -7.3086,-0.1992 -8.3008,0 -15.7812,2.8281 -22.4648,9.5195 -3.0391,2.6289 -4.461,5.6719 -5.2813,10.332 l -9.1211,58.1407 c -0.7968,4.8593 -3.4257,5.2695 -11.9414,5.2695 -8.3008,0 -11.1484,-0.4102 -10.3281,-5.2695 l 14.5938,-92.1719 c 0.8007,-4.8594 2.2226,-5.8828 9.2929,-5.8828 6.0821,0 7.5039,0.8125 8.5156,4.664 l 0.8204,10.1289 c 9.5078,-9.9218 21.0664,-16 33.8281,-16 6.2734,0 7.6953,2.2305 7.6953,7.0899"
           style="fill:#ffffff;fill-opacity:1;fill-rule:nonzero;stroke:none" />
        <path
           inkscape:connector-curvature="0"
           id="path151"
           d="m 3583.9453,2866.6406 c -3.6601,-7.0898 -9.3359,-11.3437 -17.2305,-11.3437 -17.8281,0 -27.9414,22.082 -27.9414,45.1719 0,18.8398 7.2735,24.7226 17.4102,24.7226 7.4922,0 14.9883,-3.6523 20.8672,-11.1523 3.4375,-4.25 4.8555,-8.0977 5.875,-14.3789 1.0195,-5.8711 2.0195,-12.1485 2.8398,-18.2305 0.7969,-5.6719 0.3985,-10.3281 -1.8203,-14.7891 z m 29.7578,-22.2812 -14.5664,91.5625 c -0.8203,4.8554 -2.4414,5.875 -9.3359,5.875 -6.2774,0 -8.0938,-0.4102 -8.4922,-4.6563 l -0.8203,-8.9101 c -9.3164,9.9179 -20.0469,14.9883 -31.8008,14.9883 -17.8281,0 -33.0195,-12.1602 -33.0195,-41.5313 0,-33.8281 19.25,-64.6172 48.6093,-64.6172 12.1524,0 21.6875,5.2617 27.961,15.3906 l 3.6367,-9.3203 c 1.6211,-4.0508 3.8594,-4.6601 9.9336,-4.6601 7.0977,0 8.7148,1.0195 7.8945,5.8789"
           style="fill:#ffffff;fill-opacity:1;fill-rule:nonzero;stroke:none" />
        <path
           inkscape:connector-curvature="0"
           id="path153"
           d="m 3723.293,2874.7383 -9.7188,61.793 c -0.7969,4.8593 -3.4297,5.2695 -11.957,5.2695 -8.2969,0 -11.1328,-0.4102 -10.3086,-5.2695 l 9.5117,-59.961 c 1.6211,-10.539 -1.0078,-19.4492 -12.7578,-19.4492 -8.1172,0 -16.6211,4.6602 -22.293,10.5273 -2.6289,2.6407 -4.664,6.2813 -5.2578,10.7422 l -9.1211,58.1407 c -0.8242,4.8593 -3.6562,5.2695 -11.957,5.2695 -8.3008,0 -11.1328,-0.4102 -10.332,-5.2695 l 14.5859,-92.1719 c 0.8203,-4.8594 2.2383,-5.8789 9.1211,-5.8789 6.2852,0 7.7031,0.8086 8.0937,4.6601 l 1.2344,10.7383 c 9.7149,-10.3281 22.0625,-16.6094 35.6406,-16.6094 22.086,0 28.7618,16.8125 25.5157,37.4688"
           style="fill:#ffffff;fill-opacity:1;fill-rule:nonzero;stroke:none" />
        <path
           inkscape:connector-curvature="0"
           id="path155"
           d="m 3810.6094,2866.4414 c -3.6367,-6.8906 -8.9024,-11.1406 -16.8164,-11.1406 -17.8047,0 -27.9375,22.0781 -27.9375,45.168 0,18.8437 7.2734,24.7226 17.4062,24.7226 7.5078,0 14.9961,-3.6484 21.0664,-11.3516 3.2578,-4.0507 4.461,-7.8984 5.668,-14.1796 1.2266,-5.8711 2.0312,-12.1524 2.8555,-18.2305 0.8047,-5.668 0.1914,-10.3281 -2.2422,-14.9883 z m 38.0937,-72.1211 -22.4843,141.6016 c -0.8008,4.8594 -2.2422,5.8789 -9.1133,5.8789 -6.2852,0 -8.3164,-0.4102 -8.7149,-4.6602 l -0.8047,-8.9101 c -9.3281,9.9218 -20.0742,14.9922 -31.8125,14.9922 -17.8281,0 -33.039,-12.1602 -33.039,-41.5313 0,-33.832 19.2734,-64.6211 48.4375,-64.6211 11.125,0 19.8398,4.6602 26.332,14.1797 l 8.9063,-56.9297 c 0.8242,-4.8594 3.4453,-5.2578 11.7578,-5.2578 8.5039,0 11.3359,0.3984 10.5351,5.2578"
           style="fill:#ffffff;fill-opacity:1;fill-rule:nonzero;stroke:none" />
        <path
           inkscape:connector-curvature="0"
           id="path157"
           d="m 3880.7031,2884.6719 6.6992,0 c 21.0508,0 35.2266,-5.0625 35.2266,-18.8399 0,-7.9023 -5.4414,-11.5507 -13.7656,-11.5507 -15.3867,0 -24.7031,13.371 -28.1602,30.3906 z m -1.6211,15.3984 0,0.3985 c 0,19.4531 9.5313,24.9218 21.0703,24.9218 15,0 24.3165,-8.5117 27.5586,-8.5117 3.6524,0 6.4844,5.6719 6.4844,9.7227 0,4.8672 -1.8164,6.8906 -6.6797,9.3164 -8.9258,4.664 -19.2578,7.5 -30.7968,7.5 -23.3008,0 -40.5235,-12.5586 -40.5235,-41.7266 0,-33.832 19.6445,-64.832 55.3047,-64.832 21.6758,0 32.0078,11.5508 32.0078,26.9531 0,24.707 -22.5,36.8555 -51.8711,36.8555 -3.8476,0 -8.0781,-0.1992 -12.5547,-0.5977"
           style="fill:#ffffff;fill-opacity:1;fill-rule:nonzero;stroke:none" />
        <path
           inkscape:connector-curvature="0"
           id="path159"
           d="m 4071.5508,2866.4414 c -3.6563,-6.8906 -8.9258,-11.1445 -16.8203,-11.1445 -17.8282,0 -27.9649,22.082 -27.9649,45.1719 0,18.8437 7.3125,24.7187 17.4258,24.7187 7.5117,0 15.0039,-3.6484 21.082,-11.3477 3.2266,-4.0507 4.4375,-7.8984 5.6719,-14.1796 1.211,-5.8711 2.0195,-12.1524 2.8242,-18.2305 0.8086,-5.668 0.2032,-10.3281 -2.2187,-14.9883 z m 38.0781,-72.125 -22.4922,141.6016 c -0.8086,4.8633 -2.2187,5.8828 -9.1054,5.8828 -6.2774,0 -8.3204,-0.4141 -8.7266,-4.6602 l -0.8047,-8.9101 c -9.3047,9.9218 -20.0469,14.9883 -31.8008,14.9883 -17.8281,0 -33.0351,-12.1602 -33.0351,-41.5313 0,-33.8281 19.2695,-64.6172 48.4453,-64.6172 11.1211,0 19.8437,4.6602 26.3242,14.1797 l 8.9023,-56.9336 c 0.8086,-4.8594 3.4571,-5.2578 11.7539,-5.2578 8.5235,0 11.3477,0.3984 10.5391,5.2578"
           style="fill:#ffffff;fill-opacity:1;fill-rule:nonzero;stroke:none" />
        <path
           inkscape:connector-curvature="0"
           id="path161"
           d="m 4189.4453,2879.6094 c 0,-19.4492 -8.7109,-25.3281 -18.8398,-25.3281 -19.875,0 -30.3946,22.4882 -30.3946,46.1875 0,19.2539 8.711,25.5312 18.8399,25.5312 19.8515,0 30.3945,-22.6875 30.3945,-46.3906 z m -72.3359,22.082 c 0,-33.832 19.0468,-64.8281 56.1054,-64.8281 22.6914,0 39.3086,12.3555 39.3086,41.7265 0,33.6329 -19.0468,64.8321 -56.1054,64.8321 -22.6914,0 -39.3086,-12.3594 -39.3086,-41.7305"
           style="fill:#ffffff;fill-opacity:1;fill-rule:nonzero;stroke:none" />
        <path
           inkscape:connector-curvature="0"
           id="path163"
           d="m 4278.7852,2932.2813 c -5.2618,-3.25 -6.6836,-6.4922 -6.6836,-10.7422 0,-5.2696 5.0468,-13.1719 9.7187,-13.1719 5.0781,0 14.3672,14.793 36.4688,14.793 16.4101,0 27.125,-7.6993 27.125,-21.8829 0,-13.9804 -10.9297,-19.039 -24.7071,-24.707 -15.789,-6.4805 -33.8086,-14.5898 -33.8086,-39.0976 0,-27.9532 23.6836,-43.961 52.2578,-43.961 12.3516,0 23.4961,3.4453 31.793,8.5078 4.461,2.6289 6.2852,5.2696 6.2852,10.1289 0,5.8711 -4.6719,13.3711 -8.9141,13.3711 -4.6758,0 -13.5625,-11.75 -31.6094,-11.75 -14.9843,0 -25.5117,7.8985 -25.5117,20.6602 0,12.1601 9.5078,16.4101 23.0938,21.8789 16.1953,6.4805 35.8515,15.1914 35.8515,41.1211 0,30.5898 -24.1133,45.9883 -53.6797,45.9883 -15.8203,0 -28.1718,-4.6602 -37.6796,-11.1367"
           style="fill:#ffffff;fill-opacity:1;fill-rule:nonzero;stroke:none" />
        <path
           inkscape:connector-curvature="0"
           id="path165"
           d="m 4487.6328,2843.9492 -14.5937,91.9688 c -0.8243,4.8633 -2.2305,5.8828 -9.1133,5.8828 -6.2774,0 -8.3164,-0.6094 -8.7031,-4.6602 l -0.8243,-10.1289 c -9.1132,9.7188 -19.25,16 -32.4101,16 -22.086,0 -31.0078,-16.8125 -27.7578,-37.6836 l 9.7226,-61.3789 c 0.8242,-5.0586 3.6602,-5.4687 11.9492,-5.4687 8.3164,0 11.1524,0.4101 10.3555,5.4687 l -9.5312,59.7617 c -1.6211,10.5391 1.2148,19.4493 12.75,19.4493 8.0976,0 16,-4.6602 21.6992,-10.7383 2.6172,-2.6328 4.2422,-5.8711 5.039,-10.5313 l 9.1172,-57.9414 c 0.8242,-5.0586 3.4414,-5.4687 11.9492,-5.4687 8.3165,0 11.1524,0.4101 10.3516,5.4687"
           style="fill:#ffffff;fill-opacity:1;fill-rule:nonzero;stroke:none" />
        <path
           inkscape:connector-curvature="0"
           id="path167"
           d="m 4502.832,2936.5313 22.4922,-142.211 c 0.8086,-4.8594 3.6289,-5.2578 11.9414,-5.2578 8.5117,0 11.1367,0.3984 10.3242,5.2578 l -22.4882,142.211 c -0.8086,4.8593 -3.4336,5.2695 -11.9454,5.2695 -8.3125,0 -11.1328,-0.4102 -10.3242,-5.2695"
           style="fill:#ffffff;fill-opacity:1;fill-rule:nonzero;stroke:none" />
        <path
           inkscape:connector-curvature="0"
           id="path169"
           d="m 2940.1406,3109.5 c 0,-17.0195 -9.1289,-24.918 -26.9492,-24.918 l -20.4609,0 -9.5274,60.3672 20.875,0 c 23.4961,0 36.0625,-13.1679 36.0625,-35.4492 z m 24.0977,-2.0312 c 0,35.25 -23.8985,56.7226 -61.5781,56.7226 l -22.4961,0 -6.6719,42.3399 c -0.8203,4.8593 -3.8555,5.2695 -12.5664,5.2695 -8.9102,0 -11.75,-0.4102 -10.9297,-5.2695 l 21.2578,-134.711 c 0.8203,-4.2578 3.0391,-6.2812 7.293,-6.2812 l 36.6601,0 c 29.9883,0 49.0313,13.7734 49.0313,41.9297"
           style="fill:#ffffff;fill-opacity:1;fill-rule:nonzero;stroke:none" />
        <path
           inkscape:connector-curvature="0"
           id="path171"
           d="m 3040.4063,3149.6094 c 0,-19.4492 -8.7227,-25.3281 -18.8321,-25.3281 -19.8672,0 -30.3906,22.4882 -30.3906,46.1875 0,19.25 8.6992,25.5312 18.832,25.5312 19.8633,0 30.3907,-22.6914 30.3907,-46.3906 z m -72.3243,22.082 c 0,-33.832 19.0586,-64.832 56.1211,-64.832 22.6875,0 39.3008,12.3594 39.3008,41.7304 0,33.629 -19.0586,64.8321 -56.1211,64.8321 -22.6836,0 -39.3008,-12.3633 -39.3008,-41.7305"
           style="fill:#ffffff;fill-opacity:1;fill-rule:nonzero;stroke:none" />
        <path
           inkscape:connector-curvature="0"
           id="path173"
           d="m 3153.4453,3114.3594 c 0,7.289 -3.4414,14.3789 -8.2969,14.3789 -2.4375,0 -4.664,-0.1992 -7.2929,-0.1992 -8.3008,0 -15.8086,2.832 -22.4805,9.5195 -3.0391,2.6328 -4.4687,5.6719 -5.2812,10.332 l -9.1133,58.1407 c -0.8125,4.8593 -3.4453,5.2695 -11.9571,5.2695 -8.3007,0 -11.1445,-0.4102 -10.332,-5.2695 l 14.5899,-92.1719 c 0.8125,-4.8594 2.2226,-5.8789 9.3242,-5.8789 6.0742,0 7.4883,0.8086 8.4922,4.6601 l 0.8125,10.1289 c 9.5195,-9.9179 21.0664,-16 33.8359,-16 6.2891,0 7.6992,2.2305 7.6992,7.0899"
           style="fill:#ffffff;fill-opacity:1;fill-rule:nonzero;stroke:none" />
        <path
           inkscape:connector-curvature="0"
           id="path175"
           d="m 3230.2344,3117.1914 c -1.0078,6.0781 -1.8242,8.5078 -5.668,8.5078 l -26.1484,0 -8.2852,52.8711 c -1.4258,8.918 0.1992,15.1992 8.2852,15.1992 8.3281,0 13.1836,-5.0703 15.6015,-5.0703 3.25,0 5.6719,5.8789 5.6719,10.1289 0,4.8633 -2.0234,7.5 -7.8906,9.9297 -6.2852,3.043 -12.9649,4.461 -20.0625,4.461 -21.8672,0 -27.1367,-13.7774 -23.9063,-34.8477 l 8.5235,-52.6719 -10.7461,0 c -3.4492,0 -3.6446,-2.0195 -2.8321,-7.289 0.8125,-5.0586 1.625,-6.2813 4.6563,-7.0899 l 12.1523,-2.0312 6.8985,-19.6485 c 1.8047,-3.8398 4.0429,-4.25 10.1289,-4.25 6.8789,0 8.0898,1.0078 7.2773,5.8789 l -2.8164,17.6211 26.1289,0 c 3.8438,0 4.043,2.2305 3.0313,8.3008"
           style="fill:#ffffff;fill-opacity:1;fill-rule:nonzero;stroke:none" />
        <path
           inkscape:connector-curvature="0"
           id="path177"
           d="m 3311.8633,3149.6094 c 0,-19.4492 -8.6953,-25.3281 -18.8203,-25.3281 -19.8672,0 -30.4063,22.4882 -30.4063,46.1875 0,19.25 8.7188,25.5312 18.8438,25.5312 19.8476,0 30.3828,-22.6914 30.3828,-46.3906 z m -72.3047,22.082 c 0,-33.832 19.0273,-64.832 56.1016,-64.832 22.6914,0 39.3046,12.3594 39.3046,41.7304 0,33.629 -19.0507,64.8321 -56.1015,64.8321 -22.6914,0 -39.3047,-12.3633 -39.3047,-41.7305"
           style="fill:#ffffff;fill-opacity:1;fill-rule:nonzero;stroke:none" />
        <path
           inkscape:connector-curvature="0"
           id="path179"
           d="m 3424.5039,3157.9102 56.5313,0 c -1.2266,-26.1289 -5.8907,-52.0586 -16.2149,-73.3321 -16.6211,20.2617 -30.1875,45.9805 -40.3164,73.3321 z m 80.418,18.8398 c 0,10.5391 -0.4063,21.2695 -1.418,29.7813 -0.4062,4.8593 -3.6328,5.2695 -12.75,5.2695 -9.1406,0 -11.957,-0.8125 -11.5703,-5.2695 1.0352,-8.711 1.6367,-19.6524 2.043,-29.5821 l -63,0 c -3.0313,9.7305 -5.4649,19.6524 -7.5039,29.5821 -1.0118,4.6601 -3.4414,5.2695 -13.375,5.2695 -9.0977,0 -12.3438,-0.6094 -11.1407,-5.8828 12.1719,-54.0899 38.4922,-107.1602 66.4649,-136.3282 3.8281,-4.0507 6.8828,-4.4609 14.5781,-4.4609 7.8945,0 10.5391,0.4102 13.5703,5.0703 15.9961,24.5117 24.1016,63.1992 24.1016,106.5508"
           style="fill:#ffffff;fill-opacity:1;fill-rule:nonzero;stroke:none" />
        <path
           inkscape:connector-curvature="0"
           id="path181"
           d="m 3528.418,3206.5313 22.4961,-142.211 c 0.8125,-4.8594 3.6406,-5.2617 11.9492,-5.2617 8.5078,0 11.1406,0.4023 10.3281,5.2617 l -22.4961,142.211 c -0.8125,4.8593 -3.4414,5.2695 -11.9492,5.2695 -8.2891,0 -11.1406,-0.4102 -10.3281,-5.2695"
           style="fill:#ffffff;fill-opacity:1;fill-rule:nonzero;stroke:none" />
        <path
           inkscape:connector-curvature="0"
           id="path183"
           d="m 3605.207,3154.6719 6.6836,0 c 21.0625,0 35.2383,-5.0625 35.2383,-18.8399 0,-7.9023 -5.4687,-11.5507 -13.7734,-11.5507 -15.3907,0 -24.7071,13.3671 -28.1485,30.3906 z m -1.6211,15.3984 0,0.3985 c 0,19.4531 9.5196,24.9218 21.0625,24.9218 14.9883,0 24.3047,-8.5117 27.543,-8.5117 3.6445,0 6.4805,5.6719 6.4805,9.7227 0,4.8672 -1.8203,6.8867 -6.6836,9.3203 -8.9102,4.6601 -19.2383,7.5 -30.7813,7.5 -23.3164,0 -40.5312,-12.5625 -40.5312,-41.7305 0,-33.832 19.6484,-64.832 55.3125,-64.832 21.6719,0 32,11.5508 32,26.9492 0,24.7109 -22.4805,36.8633 -51.8672,36.8633 -3.8281,0 -8.1016,-0.2031 -12.5352,-0.6016"
           style="fill:#ffffff;fill-opacity:1;fill-rule:nonzero;stroke:none" />
        <path
           inkscape:connector-curvature="0"
           id="path185"
           d="m 3749.2383,3136.6406 c -3.6641,-7.0898 -9.3242,-11.3398 -17.2305,-11.3398 -17.832,0 -27.9414,22.0781 -27.9414,45.168 0,18.8398 7.2813,24.7226 17.4141,24.7226 7.4883,0 15.0039,-3.6523 20.8711,-11.1523 3.4297,-4.25 4.6601,-8.0977 5.8632,-14.3789 1.2071,-5.8711 2.0196,-12.1524 2.8321,-18.2305 0.8086,-5.6719 0.4179,-10.3281 -1.8086,-14.7891 z m 29.7734,-22.2812 -15.3984,97.0312 c -5.2617,32.8203 -23.2813,49.8399 -54.9102,49.8399 -11.7343,0 -21.0547,-2.6407 -28.7539,-6.8907 -4.8476,-2.6406 -6.2851,-5.0703 -6.2851,-8.9101 0,-5.0703 4.4531,-12.1602 8.7187,-12.1602 3.6406,0 10.3203,9.1211 27.9414,9.1211 18.8555,0 27.3633,-8.9218 30.586,-29.1718 l 2.25,-13.3672 c -8.5079,8.707 -18.4336,13.3672 -29.1719,13.3672 -17.832,0 -33.0195,-12.1602 -33.0195,-41.5274 0,-33.832 19.4531,-64.6211 48.6054,-64.6211 12.1485,0 21.6797,5.2617 27.9649,15.3906 l 3.6406,-9.3203 c 2.4336,-3.8515 4.0586,-4.6601 10.3437,-4.6601 6.8868,0 8.3008,1.0195 7.4883,5.8789"
           style="fill:#ffffff;fill-opacity:1;fill-rule:nonzero;stroke:none" />
        <path
           inkscape:connector-curvature="0"
           id="path187"
           d="m 3869.1641,3114.3594 c 0,7.289 -3.4414,14.3789 -8.3086,14.3789 -2.4219,0 -4.6524,-0.1992 -7.2891,-0.1992 -8.3047,0 -15.8086,2.832 -22.5,9.5195 -3.0391,2.6328 -4.4648,5.6719 -5.2695,10.332 l -9.0938,58.1407 c -0.8281,4.8593 -3.4414,5.2695 -11.9609,5.2695 -8.3086,0 -11.1328,-0.4102 -10.3281,-5.2695 l 14.5742,-92.1719 c 0.8086,-4.8594 2.2344,-5.8789 9.332,-5.8789 6.0742,0 7.4766,0.8086 8.4961,4.6601 l 0.8086,10.1289 c 9.5156,-9.9179 21.0781,-16 33.8477,-16 6.2656,0 7.6914,2.2305 7.6914,7.0899"
           style="fill:#ffffff;fill-opacity:1;fill-rule:nonzero;stroke:none" />
        <path
           inkscape:connector-curvature="0"
           id="path189"
           d="m 3895.0938,3154.6719 6.6757,0 c 21.0782,0 35.2578,-5.0625 35.2578,-18.8399 0,-7.9023 -5.4882,-11.5507 -13.7929,-11.5507 -15.3946,0 -24.7188,13.3671 -28.1406,30.3906 z m -1.629,15.3984 0,0.3985 c 0,19.4531 9.5196,24.9218 21.0782,24.9218 14.9804,0 24.2812,-8.5117 27.5351,-8.5117 3.6407,0 6.4805,5.6719 6.4805,9.7227 0,4.8672 -1.8203,6.8867 -6.6758,9.3203 -8.9101,4.6601 -19.2539,7.5 -30.789,7.5 -23.3086,0 -40.5274,-12.5625 -40.5274,-41.7305 0,-33.832 19.668,-64.832 55.3164,-64.832 21.6836,0 32,11.5508 32,26.9492 0,24.7109 -22.4844,36.8633 -51.8633,36.8633 -3.8359,0 -8.1093,-0.2031 -12.5547,-0.6016"
           style="fill:#ffffff;fill-opacity:1;fill-rule:nonzero;stroke:none" />
        <path
           inkscape:connector-curvature="0"
           id="path191"
           d="m 3960.3281,3212 63.6172,-147.0703 c 2.4102,-5.4688 4.4453,-5.8711 12.3438,-5.8711 7.1015,0 11.1484,0.4023 8.7148,5.8711 L 3981.3867,3212 c -2.4101,5.4688 -4.4453,5.8711 -12.3398,5.8711 -7.1016,0 -11.1524,-0.4023 -8.7188,-5.8711"
           style="fill:#ffffff;fill-opacity:1;fill-rule:nonzero;stroke:none" />
        <path
           inkscape:connector-curvature="0"
           id="path193"
           d="m 4107.6055,3084.5781 -19.0469,0 -6.6836,42.3399 20.0469,0 c 21.6758,0 30.6015,-11.75 30.6015,-23.9102 0,-11.3398 -7.5,-18.4297 -24.9179,-18.4297 z m 21.8828,81.6407 c 0,-12.9688 -9.1289,-20.2579 -27.3633,-20.2579 l -23.2852,0 -7.2929,46.3907 25.2968,0 c 21.7032,0 32.6446,-10.5313 32.6446,-26.1328 z m 23.4883,0.6093 c 0,26.1328 -22.4922,44.5625 -59.1407,44.5625 l -42.3593,0 c -4.2578,0 -6.0703,-2.4297 -5.4571,-6.8906 l 21.0664,-132.6797 c 0.8164,-4.2617 3.0352,-6.2812 7.293,-6.2812 l 36.875,0 c 30.3711,0 45.5703,12.3593 45.5703,32.2109 0,18.2305 -10.3281,31.8008 -28.7656,37.6797 l 0,0.6016 c 14.1797,3.2382 24.918,12.1601 24.918,30.7968"
           style="fill:#ffffff;fill-opacity:1;fill-rule:nonzero;stroke:none" />
        <path
           inkscape:connector-curvature="0"
           id="path195"
           d="m 4245.7422,3114.3594 c 0,7.289 -3.4375,14.3789 -8.3086,14.3789 -2.4219,0 -4.6641,-0.1992 -7.293,-0.1992 -8.3086,0 -15.7851,2.832 -22.4804,9.5195 -3.0469,2.6328 -4.4532,5.6719 -5.2618,10.332 l -9.1172,58.1407 c -0.8046,4.8593 -3.4375,5.2695 -11.9531,5.2695 -8.3086,0 -11.1484,-0.4102 -10.3437,-5.2695 l 14.5898,-92.1719 c 0.8047,-4.8594 2.2383,-5.8789 9.3242,-5.8789 6.0703,0 7.5,0.8086 8.5157,4.6601 l 0.8086,10.1289 c 9.5078,-9.9179 21.0742,-16 33.8085,-16 6.2774,0 7.711,2.2305 7.711,7.0899"
           style="fill:#ffffff;fill-opacity:1;fill-rule:nonzero;stroke:none" />
        <path
           inkscape:connector-curvature="0"
           id="path197"
           d="m 4315.4531,3136.6406 c -3.6523,-7.0898 -9.332,-11.3398 -17.2226,-11.3398 -17.836,0 -27.9688,22.0781 -27.9688,45.168 0,18.8398 7.3047,24.7226 17.4375,24.7226 7.4922,0 14.9844,-3.6523 20.8477,-11.1523 3.4414,-4.25 4.8828,-8.0977 5.8672,-14.3789 1.039,-5.8711 2.0546,-12.1524 2.8515,-18.2305 0.8008,-5.6719 0.4024,-10.3281 -1.8125,-14.7891 z m 29.7852,-22.2812 -14.6133,91.5586 c -0.8008,4.8633 -2.4258,5.8828 -9.3047,5.8828 -6.293,0 -8.1055,-0.4102 -8.5039,-4.6602 l -0.8281,-8.9101 c -9.3047,9.9179 -20.0508,14.9883 -31.7813,14.9883 -17.8398,0 -33.0351,-12.1602 -33.0351,-41.5274 0,-33.832 19.25,-64.6211 48.6328,-64.6211 12.1289,0 21.6484,5.2578 27.9414,15.3906 l 3.6523,-9.3203 c 1.6289,-4.0508 3.8399,-4.6601 9.918,-4.6601 7.0938,0 8.7188,1.0195 7.9219,5.8789"
           style="fill:#ffffff;fill-opacity:1;fill-rule:nonzero;stroke:none" />
        <path
           inkscape:connector-curvature="0"
           id="path199"
           d="m 4438.1953,3126.918 c -23.0859,15.6015 -46.9844,40.5117 -59.7383,66.2422 l 47.3907,0 c 4.2539,0 4.0351,2.6289 3.246,8.7109 -1.0117,7.0898 -1.8281,9.5195 -5.8867,9.5195 l -62.9843,0 c -4.0586,0 -5.2852,-1.4218 -5.668,-7.0898 -0.4102,-5.0625 0,-7.0899 2.0156,-10.9414 12.9727,-24.5078 32.625,-49.0196 54.2891,-66.2383 l -38.0703,0 c -4.2813,0 -4.0625,-2.4297 -3.0547,-9.1211 1.0078,-6.6797 1.8281,-9.1094 5.8593,-9.1094 l 61.4024,0 c 3.4336,0 4.4414,1.6172 4.8516,7.0899 0.4062,6.2773 0.2187,8.3008 -3.6524,10.9375"
           style="fill:#ffffff;fill-opacity:1;fill-rule:nonzero;stroke:none" />
        <path
           inkscape:connector-curvature="0"
           id="path201"
           d="m 4467.5781,3078.9102 c 0,-10.3321 3.8321,-14.9883 14.7813,-14.9883 9.9297,0 13.5703,3.4375 13.5703,10.1289 0,10.1172 -4.0547,14.9883 -14.7813,14.9883 -10.125,0 -13.5703,-3.2383 -13.5703,-10.1289 z m -16.8281,127.6211 14.5937,-92.5821 c 0.8243,-5.0586 3.6407,-5.4687 11.9688,-5.4687 8.4961,0 11.1172,0.4101 10.3164,5.4687 l -14.5898,92.5821 c -0.8008,4.8593 -3.4493,5.2695 -11.9454,5.2695 -8.3007,0 -11.1406,-0.4102 -10.3437,-5.2695"
           style="fill:#ffffff;fill-opacity:1;fill-rule:nonzero;stroke:none" />
        <path
           inkscape:connector-curvature="0"
           id="path203"
           d="m 4502.832,3206.5313 22.4922,-142.211 c 0.8086,-4.8594 3.6289,-5.2617 11.9414,-5.2617 8.5117,0 11.1367,0.4023 10.3242,5.2617 l -22.4882,142.211 c -0.8086,4.8593 -3.4336,5.2695 -11.9454,5.2695 -8.3125,0 -11.1328,-0.4102 -10.3242,-5.2695"
           style="fill:#ffffff;fill-opacity:1;fill-rule:nonzero;stroke:none" />
        <path
           inkscape:connector-curvature="0"
           id="path205"
           d="m 5001.7695,2689.8125 -112.875,0 -1.0937,-33.75 c 0,-93.3125 14.0078,-158.9492 42.0234,-196.9531 28.4024,-38.336 75.9805,-57.5313 142.7617,-57.5313 125.7539,0 188.6289,69.7227 188.6289,209.125 0,94.0469 -47.0273,229.5782 -141.082,406.6055 l -68.043,127.8008 c -0.3554,0.75 -1.4843,2.9492 -3.3242,6.6406 -1.8398,3.6914 -4.4219,9.0508 -7.7148,16.0508 l 211.3203,0 0,98.4687 -375.0938,0 c 6.2618,-14 19.3672,-41.8476 39.2813,-83.5312 19.9141,-41.6797 47.0273,-97.9297 81.3398,-168.7383 29.1133,-61.9727 53.4493,-114.5078 73.0118,-157.6719 19.5273,-43.1562 34.2773,-78.5586 44.25,-106.2187 19.914,-55.3086 29.8906,-103.0781 29.8906,-143.2774 0,-70.8086 -24.5313,-106.2226 -73.5938,-106.2226 -47.2226,0 -70.8164,43.8906 -70.8164,131.6601 l 0.5508,48.6797 0.5781,8.8633"
           style="fill:#ffffff;fill-opacity:1;fill-rule:nonzero;stroke:none" />
        <g
           style="clip-rule:nonzero;fill:#ffffff"
           id="g207"
           clip-path="url(#clip2)">
          <path
             inkscape:connector-curvature="0"
             id="path209"
             d="m 5614.3164,2845.8086 c 0,-129.0703 -5.5547,-218.3203 -16.5977,-267.75 -11.0742,-49.0352 -31.1875,-73.5664 -60.3046,-73.5664 -29.1485,0 -49.4375,24.3398 -60.8672,73.0078 -11.0391,48.6914 -16.5977,136.2773 -16.5977,262.7813 0,126.5195 5.5586,214.3007 16.5977,263.3476 11.4297,48.6797 31.7187,73.0117 60.8672,73.0117 28.7656,0 48.6679,-24.1523 59.7421,-72.4687 11.4297,-46.0899 17.1602,-132.2227 17.1602,-258.3633 z m 117.2695,0 c 0,153.4414 -14.7343,264.082 -44.2343,331.9414 -29.1524,65.6602 -78.7657,98.4688 -148.8477,98.4688 -70.0781,0 -119.8359,-33 -149.3359,-99.0196 -29.1875,-64.1679 -43.7422,-176.8398 -43.7422,-338.0273 0,-161.1485 14.5547,-273.8203 43.7422,-338.0117 29.1132,-66.3789 78.7304,-99.5782 148.8086,-99.5782 64.9101,0 112.8398,29.1368 143.8164,87.4102 33.1953,61.5898 49.7929,180.5391 49.7929,356.8164"
             style="fill:#ffffff;fill-opacity:1;fill-rule:nonzero;stroke:none" />
        </g>
        <path
           inkscape:connector-curvature="0"
           id="path211"
           d="m 5809.8672,2412.1016 194.7265,0 0,854.1679 -110.0703,0 0,-756.25 -84.6562,0 0,-97.9179"
           style="fill:#ffffff;fill-opacity:1;fill-rule:nonzero;stroke:none" />
        <path
           inkscape:connector-curvature="0"
           id="path213"
           d="m 6395.4336,2675.418 c 0,-112.4766 -24.1524,-168.7305 -72.4649,-168.7305 -47.9492,0 -71.9023,55.5117 -71.9023,166.5117 0,58.2891 5.5898,100.5235 16.8477,126.711 11.2578,26.1914 29.5859,39.2617 55.0546,39.2617 25.4336,0 43.879,-13 55.2969,-39.0039 11.461,-26 17.168,-67.5664 17.168,-124.75 z m -64.7188,590.8515 -122.8086,0 82.4063,-165.9687 c 14.7305,-30.2422 29.4258,-61.3008 43.9961,-93.1992 14.5742,-31.9102 28.8672,-65.1914 42.8789,-99.8828 -28.4258,22.8828 -57.7305,34.3125 -87.9531,34.3125 -50.5469,0 -87.7969,-20.3711 -111.7891,-61.1211 -23.957,-40.7461 -35.9336,-104.1094 -35.9336,-190.0508 0,-103.2578 14.0156,-177.2188 42.043,-221.8399 28.0273,-44.6289 74.6992,-66.9414 139.9765,-66.9414 65.9922,0 113.2266,22.5039 141.6133,67.5039 28.3828,44.9961 42.5977,119.8594 42.5977,224.6055 0,77.4531 -8.8633,149 -26.5508,214.6445 -8.5039,32.4688 -20.6797,68.6993 -36.5312,108.7188 -15.8477,40.0078 -35.6133,84.918 -59.168,134.6992 l -44.836,93.5 -9.9414,21.0195"
           style="fill:#ffffff;fill-opacity:1;fill-rule:nonzero;stroke:none" />
      </g>
    </g>
  </g>
</svg>
