<svg xmlns:rdf="http://www.w3.org/1999/02/22-rdf-syntax-ns#" xmlns="http://www.w3.org/2000/svg" viewBox="0 0 6669.9133 3169.6746" height="3169.7pt" width="6669.9pt" version="1.1" xmlns:cc="http://creativecommons.org/ns#" xmlns:dc="http://purl.org/dc/elements/1.1/">
<defs>
<clipPath id="b">
<path d="m6813 1200h153.05v152h-153.05z"/>
</clipPath>
<clipPath id="a">
<path d="m5345 2401h387v875.22h-387z"/>
</clipPath>
</defs>
<g fill="#fff" transform="translate(-70.844 -92.144)">
<g transform="matrix(.95749 0 0 .95749 70.844 92.148)">
<g>
<path d="m6463.5 1338.4c19.207-13.891 31.801-36.43 31.801-61.902 0-42.117-34.273-76.391-76.391-76.391-42.121 0-76.391 34.273-76.391 76.391 0 26.152 13.27 49.203 33.352 62.973 0 0 14.148 12.391 43.039 12.391 24.785 0 44.551-13.102 44.59-13.461"/>
<path d="m6777.4 1338.4c19.215-13.891 31.789-36.434 31.789-61.902 0-42.121-34.254-76.387-76.402-76.387-42.109 0-76.363 34.266-76.363 76.387 0 26.152 13.242 49.203 33.336 62.969 0 0 14.117 12.391 43.027 12.391 24.77 0 44.531-13.098 44.613-13.457"/>
<path d="m6575.8 1315.8c-21.629 0-39.219-17.602-39.219-39.23 0-21.629 17.59-39.23 39.219-39.23s39.219 17.602 39.219 39.23c0 21.629-17.59 39.23-39.219 39.23zm76.398-39.23c0-42.121-34.281-76.391-76.398-76.391-0.121 0-0.246 0.02-0.4101 0.02-7.7539 0-15.223 1.211-22.281 3.4219-0.4101 0.1367-0.8164 0.3281-1.2656 0.4688-1.7969 0.5976-3.5898 1.2187-5.3476 1.9492-27.629 11.523-47.094 38.793-47.094 70.531 0 26.152 13.262 49.203 33.383 62.973 0 0 18.242 12.391 43.016 12.391s43.016-12.391 43.016-12.391c20.117-13.77 33.383-36.812 33.383-62.973"/>
</g>
<g clip-path="url(#b)">
<path d="m6889.7 1315.8c-21.668 0-39.23-17.602-39.23-39.23 0-21.629 17.562-39.226 39.23-39.226 21.625 0 39.188 17.598 39.188 39.226 0 21.629-17.562 39.23-39.188 39.23zm76.371-39.23c0-42.121-34.277-76.387-76.371-76.387-0.1719 0-0.3008 0.016-0.4258 0.016-7.7383 0-15.258 1.211-22.27 3.418-0.4258 0.1445-0.8516 0.3359-1.2813 0.4727-1.7929 0.6015-3.5898 1.2226-5.3398 1.9531-27.609 11.516-47.098 38.785-47.098 70.527 0 26.148 13.25 49.203 33.379 62.973 0 0 18.246 12.391 43.035 12.391 24.742 0 42.992-12.391 42.992-12.391 20.086-13.77 33.379-36.812 33.379-62.973" fill="#fff"/>
</g>
<g>
<path d="m1208.4 900.75 0.035-0.10157h0.3047zm-5.0625-0.76563 2.1797-0.0391 1.2695 0.0195zm-680.15 0.66406 0.85938-0.16015 0.15234 0.23828zm1208.8-64.71c0-446.47-392.7-828.6-858.06-835.63l-0.24-0.30391-7.67 0.1211-5.05-0.1211-2.79 0.14063-0.11 0.16406c-465.34 7.0937-857.98 389.2-857.98 835.63 0 1.8086 0.054688 3.5977 0.11719 5.3867l-0.11719 1305.1h528.52v-1192.3h0.24218l-0.14843-9.707c-0.0508-1.9922-0.0937-3.9609-0.0937-5.9727 0-3.375 0.0859-6.7109 0.16797-10.066l0.043-2.0938-0.21093-4.0781c0-0.90625 0.0742-1.7891 0.13672-2.6719 0.0742-1.0078 0.13671-2.0117 0.16015-3.2188l-0.22265-12.82 0.86328-0.38281 0.19922-3.2969c10.859-181.98 129.88-367.88 336.18-371.04 206.48 3.1562 325.49 189.05 336.35 371.04l1.0703 3.0547-0.2187 13.648c0.02 1.0039 0.078 2.0078 0.1562 3.0156 0.062 0.88282 0.1328 1.7656 0.1328 2.6719l-0.2109 4.3008 0.039 1.8711c0.09 3.3555 0.1718 6.6914 0.1718 10.066 0 2.0117-0.043 3.9805-0.09 5.9727l0.09 1202h528.52v-1299.7l-0.168-3.4766 0.027-1.1641c0.07-2.0312 0.1407-4.082 0.1407-6.1289"/>
<path d="m5807.3 953.21h525.85v-96.699h-525.85v96.699"/>
<path d="m6848.1 1331.9c-24.867 392.57-382.73 736.17-788.92 738.94-111.32-0.7578-219.04-26.707-317.27-71.988v-79.23c93.941 46.66 199.4 73.77 310.85 75.547-0.5547 0.043 0.2968 0.293 1.4023 0.293l5.0586-0.1289 5.8633 0.1289 1.2343-0.3203c373.38-6.2813 680.02-302.48 705.99-663.24h-79.742c-42.805 325.79-310.46 585.29-633.39 587.93-115.36-0.9414-223.67-33.973-317.27-90.801v-84.41c87.902 60.672 193.96 96.969 309.36 99.539l0.125 0.1485 2.7656 0.1523 5.1406-0.1289 7.5664 0.1289 0.2578-0.3008c288.23-6.3789 518.36-228.84 551.73-512.26h-79.23c-41.316 242.49-240.97 434.34-480.45 436.9-121.02-1.293-231.83-49.5-317.27-128v-102.06c72.305 92.371 180.61 150.04 308.21 154.08l0.043 0.1015 3.9961 0.5274c1.0195 0 2.0391-0.066 3.0586-0.1484l2.082-0.1016 1.9571 0.1016c0.9765 0.082 1.996 0.1484 3.0195 0.1484l3.9922-0.6289c204.63-6.4492 359.82-155.7 395.74-360.92h-83.059c-38.723 148.99-149.92 283.14-321.82 285.77-165.61-2.5351-274.89-122.82-317.23-264.28v-400.16l0.6797-96.703c1.914-27.098 9.4375-88.234 38.98-150.5 43.442-78.828 111.49-141.75 201.57-166.22 24.016-5.9219 50.367-9.7539 79.359-10.996 191.66 2.9336 317.61 144.24 334.36 327.71l0.6367 96.703h530.95v-84.758h0.086v-21.742l-0.168-3.4766 0.039-1.1758c0.043-2.0234 0.1289-4.0703 0.1289-6.1289 0-446.47-392.63-828.6-857.99-835.64l-0.2539-0.29297-7.6953 0.125-5.0586-0.125-2.7618 0.14453-0.1289 0.14844c-223.9 3.5009-430.9 93.685-585.5 236.02-154.6-142.36-361.5-232.55-585.4-235.93l-0.2539-0.29297-7.6523 0.125-5.0586-0.125-2.7618 0.14453-0.125 0.14844c-228.9 3.493-440.3 97.856-596 245.99-155.7-148.15-367.1-242.53-596.1-245.99l-0.25-0.29297-7.6718 0.125-5.0508-0.125-2.7813 0.14453-0.1172 0.14844c-465.33 7.1016-857.97 389.21-857.97 835.64 0 1.8086 0.051 3.5977 0.1133 5.3867l-0.098 64.723 2.2539 350.99v9.707c0.051 1.9805 0 3.957 0 5.9609 0 3.3789 0.082 6.7188 0 10.07v6.1797c0 0.8985 0.062 1.7891 0 2.668-0.074 0.9922 0.023 2.0039 0 3.2031v16.516c-10.859 181.97 25.613 291.02-111.91 305.67-205.34 21.863-325.49-123.7-336.35-305.67l-1.0664-3.0468 0.078-305.11h-528.67v361.27l0.1835 3.4805-0.031 1.1758c-0.078 2.0234-0.1523 4.0625-0.1523 6.1328 0 446.46 392.65 785.02 858.01 792.05l0.25 0.2968 7.6601-0.1289 5.0625 0.1289 2.7813-0.1484 0.1172-0.1484c326.39-4.9844 618.65 0.3086 618.65 0.3086s6.8594-659.09 6.8594-792.36c0-1.8203 0.07-3.6094 0-5.3984 0 0 5.0508-452.3 5.082-453.5l-0.2305-12.828 0.8672-0.37891 0.1992-3.3047c10.859-181.98 129.87-367.87 336.18-371.03 206.48 3.1641 325.49 189.05 336.35 371.03l1.0664 3.0508-0.2148 13.652c0.016 1.0117 0.078 2.0195 0.1484 3.0117 0.066 0.88672 0.1406 1.7695 0.1406 2.6758l-0.2109 4.2969 0.039 1.875c0.09 3.3516 0.1719 6.6992 0.1719 10.07 0 2.0039-0.043 3.9844-0.1015 5.9648l0.1015 1202h528.52v-1158l5.8672-88.617c10.84-181.98 129.86-367.87 336.18-371.03 206.45 3.1641 325.47 189.05 336.35 371.03l1.0625 3.0508-0.211 13.652c0 1.0117 0.082 2.0195 0.125 3.0117 0.086 0.88672 0.1719 1.7695 0.1719 2.6758l-0.2148 4.2969 0.043 1.875c0.086 3.3516 0.1719 6.6992 0.1719 10.07 0 2.0039-0.043 3.9844-0.1289 5.9648l0.1289 1202h528.48v-62.426c96.492 38.43 200.97 60.477 309.36 62.125l0.125 0.1524 2.7656 0.1484 5.0586-0.1289 7.6484 0.1289 0.2578-0.3008c457.16-6.9062 844.09-376.69 857.61-812.96 0.9336-0.3984 1.8672-0.8711 2.7617-1.3086h-79.402"/>
<path d="m2354.9 636.03h-75.496v264.64h75.547l-0.051-264.64"/>
<path d="m2203.9 334.02h-75.488v566.66h75.578l-0.09-566.66"/>
<path d="m2052.9 161.44h-75.5v739.23h75.594l-0.094-739.23"/>
<path d="m1901.9 485.02h-75.496v415.65h75.566l-0.07-415.65"/>
</g>
</g>
<g transform="translate(0,-14.4)">
<g fill="#fff">
<g>
<path d="m436.82 2499.8v164.91c0 6.4297-3.2188 7.1797-12.629 7.1797-9.1602 0-11.387-0.9922-12.379-4.9492-11.883-46.312-46.055-102.76-80.223-132.47v130.24c0 6.4297-3.4688 7.1797-13.867 7.1797s-13.867-0.75-13.867-7.1797v-164.91c0-6.4414 2.9727-7.1797 11.887-7.1797 5.6953 0 8.418 0.7383 11.637 3.2187 31.941 24.762 62.398 62.891 81.711 99.289v-95.328c0-6.4414 3.4648-7.1797 13.867-7.1797 10.398 0 13.863 0.7383 13.863 7.1797"/>
<path d="m499.21 2600.1c8.9141 0.7422 16.344 1.2422 22.039 1.2422 22.281 0 31.195-5.9414 31.195-18.57 0-12.379-8.6641-18.82-23.52-18.82-15.848 0-28.23 7.1797-29.715 36.148zm77.996 56.211c0 6.6797-3.2188 9.1601-9.4102 11.641-8.168 3.2109-20.055 5.9414-34.168 5.9414-36.895 0-63.141-16.84-63.141-65.371 0-46.051 23.77-64.871 59.18-64.871 32.684 0 50.262 16.34 50.262 40.109 0 25.75-22.035 37.641-56.699 37.641-8.1719 0-15.848-0.75-23.523-1.9805 2.9726 25.5 15.598 32.18 33.676 32.18 22.531 0 32.684-8.6562 36.148-8.6562 4.207 0 7.6758 6.9297 7.6758 13.367"/>
<path d="m768.36 2553c0 44.07-13.371 85.172-32.438 113.15-2.9726 4.707-6.4375 5.6992-15.102 5.6992-8.9141 0-12.629-1.2422-15.848-6.9414-9.9062-16.34-17.332-33.668-21.543-55.461-4.207 21.793-11.391 39.121-21.539 55.461-2.9726 5.6992-6.9336 6.9414-15.848 6.9414-8.668 0-12.133-0.9922-14.855-5.6992-18.57-27.98-31.941-69.082-31.941-113.15 0-6.4375 3.2188-7.4297 13.863-7.4297 10.402 0 13.867 0.9922 14.113 7.4297 0.99218 35.402 7.4297 69.57 19.562 95.32 15.598-25.75 21.047-55.949 22.035-82.938 0.25-6.4414 3.9648-7.4336 14.609-7.4336 10.648 0 14.363 0.9922 14.609 7.4336 1.2383 26.988 6.1914 57.438 22.035 82.938 12.137-25.75 19.316-61.648 20.059-95.32 0.2461-6.4375 3.9609-7.4297 14.359-7.4297 10.648 0 13.867 0.9922 13.867 7.4297"/>
<path d="m858.72 2664.7v-164.91c0-6.4414 3.4688-7.1797 14.363-7.1797 10.645 0 14.113 0.7383 14.113 7.1797v164.91c0 6.4297-3.4688 7.1797-14.113 7.1797-10.895 0-14.363-0.75-14.363-7.1797"/>
<path d="m1033 2584.7v79.98c0 6.4297-3.4688 7.1797-13.617 7.1797-10.152 0-13.621-0.75-13.621-7.1797v-75.031c0-12.379-4.461-22.031-19.809-22.031-10.402 0-20.551 5.2032-26.742 12.871-2.7227 3.2188-4.457 7.6797-4.457 12.879v71.312c0 6.4297-3.4688 7.1797-13.617 7.1797-10.152 0-13.621-0.75-13.621-7.1797v-111.92c0-5.9375 2.9726-7.1797 10.152-7.1797 7.4297 0 9.4102 1.2422 10.648 5.9414l3.4648 12.129c11.391-13.121 28.227-19.559 41.844-19.559 27.484 0 39.375 15.598 39.375 40.609"/>
<path d="m1141.5 2659c0 6.4375-2.2305 9.4102-8.1719 11.137-6.4375 2.2305-13.367 3.4727-22.039 3.4727-21.289 0-36.148-8.6719-36.148-36.402v-70.559h-11.883c-4.707 0-5.9375-2.4805-5.9375-8.9219 0-5.9375 0.7383-7.668 4.2109-8.6602l14.598-2.4765 4.2109-23.774c1.2383-4.207 3.4688-5.4492 11.148-5.4492 7.6718 0 10.891 1.2422 10.891 7.1797v21.543h31.449c4.9531 0 5.9414 2.4765 5.9414 10.16 0 7.668-0.9883 10.398-5.9414 10.398h-31.449v63.879c0 15.352 5.9414 20.301 17.832 20.301 7.918 0 13.617-3.2187 16.09-3.2187 3.4687 0 5.1992 6.4375 5.1992 11.391"/>
<path d="m1187.5 2600.1c8.9179 0.7422 16.348 1.2422 22.039 1.2422 22.289 0 31.199-5.9414 31.199-18.57 0-12.379-8.6679-18.82-23.52-18.82-15.852 0-28.23 7.1797-29.719 36.148zm78 56.211c0 6.6797-3.2227 9.1601-9.4102 11.641-8.1719 3.2109-20.062 5.9414-34.172 5.9414-36.891 0-63.141-16.84-63.141-65.371 0-46.051 23.77-64.871 59.18-64.871 32.684 0 50.262 16.34 50.262 40.109 0 25.75-22.031 37.641-56.699 37.641-8.1719 0-15.84-0.75-23.52-1.9805 2.9687 25.5 15.598 32.18 33.668 32.18 22.539 0 32.691-8.6562 36.152-8.6562 4.207 0 7.6797 6.9297 7.6797 13.367"/>
<path d="m1373.5 2556.5c0 6.6914-1.9805 13.871-6.4414 13.871-2.7188 0-5.9375-1.7305-12.129-1.7305-10.148 0-19.559 2.9688-26.738 11.879-2.9727 2.9688-4.461 7.6797-4.461 12.879v71.312c0 6.4297-3.4609 7.1797-13.621 7.1797-10.398 0-13.609-0.75-13.609-7.1797v-111.92c0-5.9375 2.7187-7.1797 10.148-7.1797 7.4219 0 9.6524 1.2422 11.633 5.6914l2.7266 11.641c11.391-12.633 28.473-18.82 41.102-18.82 8.4219 0 11.391 3.9687 11.391 12.379"/>
<path d="m1484.9 2497.6c0 6.6914-3.707 13.621-7.6796 13.621-2.9688 0-9.6485-5.6914-24.258-5.6914-15.109 0-22.781 7.9219-22.781 23.27v17.332h30.449c4.7109 0 5.6992 2.4765 5.6992 10.16 0 7.668-0.9883 10.398-5.6992 10.398h-30.449v98.051c0 6.4297-3.4688 7.1797-13.621 7.1797-10.148 0-13.617-0.75-13.617-7.1797v-98.051h-11.883c-4.707 0-5.9492-2.4805-5.9492-8.9219 0-5.9375 0.75-7.668 4.2109-8.6602l13.621-2.2265v-18.57c0-27.73 17.578-45.07 50.27-45.07 6.9297 0 14.359 0.9883 22.027 2.7305 5.9531 1.4805 9.6601 4.6992 9.6601 11.629"/>
<path d="m1552 2624.6v-13.133c-41.109-0.4883-50.27 11.641-50.27 23.281 0 10.891 8.1679 16.828 18.57 16.828 11.141 0 21.789-6.6797 27.238-13.859 2.2304-2.9688 4.4609-6.9375 4.4609-13.117zm27.23-30.961v71.07c0 5.9375-1.7305 7.1797-10.152 7.1797-8.1679 0-10.398-1.2422-11.387-6.4414l-2.4805-12.129c-10.152 12.621-25.992 20.551-43.332 20.551-20.801 0-37.879-11.891-37.879-35.16 0-22.781 16.09-47.789 78-46.062v-4.6992c0-13.121-5.9492-22.039-25.762-22.039-22.77 0-33.168 8.9179-37.137 8.9179-3.961 0-7.4219-6.6875-7.4219-13.617 0-5.9414 2.9687-9.4101 10.398-11.891 9.1602-3.2187 23.524-5.6914 36.641-5.6914 35.66 0 50.512 14.609 50.512 50.012"/>
<path d="m1607.7 2608.8c0-47.051 24.754-65.121 57.188-65.121 11.637 0 22.531 1.9805 30.703 4.9492 6.9336 2.4805 10.16 5.2032 10.16 11.891 0 6.6796-3.7187 13.371-7.6797 13.371-3.707 0-12.379-7.9296-30.211-7.9296-18.32 0-31.688 9.1601-31.688 42.84 0 33.918 13.367 42.832 31.941 42.832 18.309 0 27.977-8.414 31.688-8.414 3.9688 0 7.6758 6.9336 7.6758 13.371 0 6.6797-3.2149 9.1601-9.6563 11.633-7.9179 3.2187-19.066 5.6992-32.684 5.6992-32.684 0-57.438-18.082-57.438-65.121"/>
<path d="m1755.8 2600.1c8.8985 0.7383 16.336 1.2383 22.027 1.2383 22.285 0 31.195-5.9414 31.195-18.57 0-12.379-8.6641-18.82-23.512-18.82-15.852 0-28.234 7.1797-29.711 36.152zm77.988 56.207c0 6.6797-3.2226 9.1601-9.4179 11.641-8.168 3.2109-20.043 5.9414-34.152 5.9414-36.91 0-63.148-16.84-63.148-65.371 0-46.047 23.773-64.871 59.172-64.871 32.699 0 50.274 16.34 50.274 40.113 0 25.746-22.039 37.637-56.695 37.637-8.1914 0-15.852-0.75-23.535-1.9766 2.9727 25.5 15.606 32.18 33.676 32.18 22.535 0 32.684-8.6601 36.156-8.6601 4.2149 0 7.6719 6.9297 7.6719 13.367"/>
<path d="m1866.7 2668.9c-6.9297-2.4805-10.152-5.4492-10.152-11.887 0-6.6836 3.7109-13.621 7.664-13.621 3.7227 0 15.117 9.4101 39.875 9.4101 14.356 0 21.539-4.9492 21.539-15.352 0-7.918-4.9453-13.371-26.746-17.578-24.504-4.6992-42.078-13.871-42.078-38.383 0-19.809 14.59-37.879 49.012-37.879 11.648 0 21.547 1.7305 29.965 4.4609 6.9297 2.4688 9.9102 5.4375 9.9102 11.879 0 6.6914-3.4727 13.621-7.4336 13.621-3.7227 0-14.356-9.1601-35.902-9.1601-13.371 0-20.055 6.9297-20.055 14.609 0 8.4101 7.4258 13.609 25.754 17.332 24.504 4.9492 43.324 14.109 43.324 39.609 0 21.051-14.606 37.891-50.258 37.891-13.875 0-25.512-1.7305-34.418-4.9531"/>
<path d="m2124.9 2497.6c0 6.6875-3.7148 13.617-7.6797 13.617-2.9726 0-9.6445-5.6875-24.262-5.6875-15.094 0-22.773 7.918-22.773 23.27v17.328h30.453c4.707 0 5.6992 2.4804 5.6992 10.16 0 7.6719-0.9922 10.402-5.6992 10.402h-30.453v98.047c0 6.4336-3.4805 7.1836-13.621 7.1836-10.156 0-13.625-0.75-13.625-7.1836v-98.047h-11.875c-4.7188 0-5.9454-2.4805-5.9454-8.9219 0-5.9375 0.7422-7.668 4.211-8.6602l13.609-2.2304v-18.57c0-27.726 17.586-45.066 50.27-45.066 6.9336 0 14.367 0.9883 22.031 2.7266 5.9454 1.4805 9.6602 4.7031 9.6602 11.633"/>
<path d="m2203.9 2608.3c0-35.402-12.875-43.082-29.473-43.082-16.586 0-29.215 7.6797-29.215 43.082 0 35.406 12.629 44.316 29.215 44.316 16.598 0 29.473-8.9101 29.473-44.316zm-87.16 0c0-45.801 24.516-64.621 57.688-64.621 33.43 0 57.945 18.07 57.945 64.621 0 46.547-25.008 65.617-57.945 65.617-33.172 0-57.688-18.078-57.688-65.617"/>
<path d="m2339.3 2556.5c0 6.6914-1.9805 13.871-6.4454 13.871-2.7109 0-5.9414-1.7305-12.125-1.7305-10.148 0-19.562 2.9727-26.738 11.883-2.9727 2.9688-4.4649 7.6797-4.4649 12.879v71.309c0 6.4297-3.4726 7.1797-13.617 7.1797-10.391 0-13.621-0.75-13.621-7.1797v-111.92c0-5.9414 2.7266-7.1797 10.16-7.1797 7.4219 0 9.6445 1.2383 11.625 5.6875l2.7422 11.641c11.379-12.629 28.461-18.82 41.09-18.82 8.4219 0 11.395 3.9687 11.395 12.379"/>
<path d="m2620.6 2664.7c0 6.4297-3.4727 7.1797-14.359 7.1797-10.898 0-14.356-0.75-14.356-7.1797 0-43.09-4.2109-92.859-12.379-137.18-21.543 31.449-38.394 75.281-45.562 111.92-0.7421 3.961-3.7304 4.711-12.383 4.711-8.664 0-11.641-0.75-12.379-4.711-7.1875-36.637-24.277-80.219-45.305-111.67-8.1836 44.32-12.379 94.09-12.379 136.93 0 6.4297-3.4726 7.1797-14.375 7.1797-10.898 0-14.355-0.75-14.355-7.1797 0-52.25 7.4257-111.67 19.066-164.41 1.4804-6.6914 5.6914-7.6797 14.598-7.6797 9.4219 0 11.883 0.7422 14.613 4.2109 20.051 25.75 39.617 66.109 49.777 101.52h1.2227c9.6602-34.672 29.469-74.781 50.016-101.52 2.4922-3.2226 5.211-4.2109 14.613-4.2109 9.1641 0 13.379 0.9883 14.856 7.6797 11.641 52.738 19.07 112.16 19.07 164.41"/>
<path d="m2764.5 2552.8v111.92c0 5.9414-1.7304 7.1797-10.398 7.1797-7.4258 0-9.4101-0.9883-11.394-5.6992l-2.4766-12.629c-11.398 13.379-27.73 19.809-41.348 19.809-27.73 0-39.367-15.598-39.367-40.359v-80.219c0-6.1914 3.207-7.1836 13.621-7.1836 10.156 0 13.617 0.9922 13.617 7.1836v75.27c0 12.129 4.4609 21.789 19.555 21.789 10.652 0 20.32-5.1993 26.254-12.871 2.9688-3.2188 4.6993-7.6797 4.6993-12.879v-71.309c0-6.1914 3.2226-7.1836 13.617-7.1836 10.144 0 13.621 0.9922 13.621 7.1836"/>
<path d="m2802.8 2668.9c-6.9257-2.4766-10.148-5.4492-10.148-11.887 0-6.6797 3.7187-13.621 7.6875-13.621 3.7031 0 15.094 9.4101 39.859 9.4101 14.367 0 21.539-4.9492 21.539-15.352 0-7.918-4.957-13.367-26.746-17.578-24.5-4.6992-42.094-13.871-42.094-38.379 0-19.812 14.617-37.879 49.035-37.879 11.641 0 21.543 1.7266 29.957 4.457 6.9453 2.4727 9.9023 5.4415 9.9023 11.883 0 6.6875-3.4726 13.617-7.4219 13.617-3.7187 0-14.367-9.1601-35.91-9.1601-13.356 0-20.051 6.9297-20.051 14.609 0 8.4101 7.4219 13.609 25.738 17.332 24.535 4.9492 43.348 14.109 43.348 39.609 0 21.051-14.613 37.891-50.273 37.891-13.852 0-25.492-1.7305-34.422-4.9531"/>
<path d="m2915.3 2664.7v-111.92c0-6.1914 3.2149-7.1797 13.606-7.1797 10.156 0 13.629 0.9883 13.629 7.1797v111.92c0 6.4297-3.4727 7.1797-13.629 7.1797-10.391 0-13.606-0.75-13.606-7.1797zm-2.9844-158.22c0-11.141 2.2422-15.352 16.59-15.352 14.367 0 16.844 3.461 16.844 15.352 0 11.879-2.4765 15.348-16.844 15.348-14.348 0-16.59-3.4687-16.59-15.348"/>
<path d="m2972.2 2608.8c0-47.051 24.746-65.121 57.18-65.121 11.648 0 22.539 1.9805 30.719 4.9531 6.9179 2.4766 10.141 5.1993 10.141 11.887 0 6.6835-3.7148 13.371-7.6719 13.371-3.7109 0-12.383-7.9296-30.211-7.9296-18.316 0-31.699 9.1601-31.699 42.84 0 33.922 13.383 42.832 31.945 42.832 18.32 0 27.988-8.414 31.68-8.414 3.9765 0 7.6914 6.9336 7.6914 13.371 0 6.6797-3.2227 9.1601-9.668 11.629-7.918 3.2226-19.055 5.7031-32.68 5.7031-32.68 0-57.426-18.082-57.426-65.121"/>
<path d="m3167.3 2624.6v-13.133c-41.098-0.4883-50.25 11.641-50.25 23.281 0 10.891 8.1523 16.828 18.559 16.828 11.152 0 21.793-6.6758 27.242-13.859 2.2343-2.9688 4.4492-6.9375 4.4492-13.117zm27.242-30.961v71.07c0 5.9414-1.7227 7.1797-10.152 7.1797-8.1719 0-10.406-1.2383-11.387-6.4414l-2.4883-12.129c-10.152 12.621-25.988 20.551-43.332 20.551-20.793 0-37.863-11.891-37.863-35.16 0-22.781 16.09-47.789 77.98-46.062v-4.6992c0-13.117-5.9375-22.039-25.75-22.039-22.774 0-33.184 8.9218-37.141 8.9218-3.9571 0-7.4297-6.6914-7.4297-13.621 0-5.9414 2.9804-9.4101 10.41-11.891 9.1719-3.2187 23.516-5.6914 36.648-5.6914 35.648 0 50.504 14.613 50.504 50.012"/>
<path d="m3230.9 2664.7v-172.34c0-6.4336 3.2187-7.1836 13.633-7.1836 10.133 0 13.613 0.75 13.613 7.1836v172.34c0 6.4336-3.4805 7.1797-13.613 7.1797-10.414 0-13.633-0.7461-13.633-7.1797"/>
<path d="m3467.4 2659.8c0 8.6719-0.7461 11.641-6.4492 11.641h-98.043c-4.4648 0-6.9336-2.4687-6.9336-6.9297v-164.41c0-4.461 2.4688-6.9297 6.9336-6.9297h96.555c5.4453 0 6.1914 2.9687 6.1914 11.629 0 8.9219-0.7461 11.641-6.1914 11.641h-75.004v51.012h58.668c5.6992 0 6.4453 2.9688 6.4453 11.879 0 8.6679-0.7461 11.641-6.4453 11.641h-58.668v57.199h76.492c5.7031 0 6.4492 2.7187 6.4492 11.629"/>
<path d="m3597.6 2664.5c0 6.6836-3.2227 7.4336-13.859 7.4336-10.641 0-13.133-0.75-14.367-7.4336-1.2382-15.348-9.6484-32.188-26.488-47.047-17.082 14.859-25.512 31.699-26.75 47.047-1.2344 6.6836-3.7071 7.4336-14.348 7.4336-10.66 0-13.883-0.75-13.883-7.4336 0-19.066 15.606-45.559 36.906-60.168-21.059-14.848-33.684-33.668-33.684-51.25 0-6.4375 3.2227-7.4297 13.863-7.4297 10.418 0 13.375 0.9922 14.125 7.4297 0.7266 12.871 7.1719 26.742 23.77 39.609 16.332-12.867 23.02-26.738 23.773-39.609 0.7266-6.4375 3.707-7.4297 14.102-7.4297 10.66 0 13.859 0.9922 13.859 7.4297 0 17.582-13.109 36.402-33.898 51.25 21.273 14.609 36.879 41.102 36.879 60.168"/>
<path d="m3709.8 2608.8c0-34.668-12.133-41.352-26.742-41.352-10.641 0-19.309 5.9414-24.996 13.621-2.7305 3.711-4.2188 8.1719-4.2188 20.793v13.867c0 12.383 1.2383 16.59 4.2188 20.801 5.4336 7.6797 14.355 13.871 24.996 13.871 14.609 0 26.742-6.9414 26.742-41.602zm28.484 0c0 48.531-21.305 64.871-48.527 64.871-12.891 0-26.262-5.6914-35.41-14.609v64.867c0 6.1914-3.4648 6.9414-13.625 6.9414s-13.621-0.75-13.621-6.9414v-171.09c0-5.9414 1.7422-7.1836 10.16-7.1836 7.6836 0 9.6562 0.9922 10.894 5.9414l2.4766 10.902c10.641-12.383 25.5-18.574 39.355-18.574 27.242 0 48.297 16.34 48.297 64.871"/>
<path d="m3845.2 2556.5c0 6.6875-1.9805 13.871-6.4415 13.871-2.7343 0-5.9414-1.7305-12.125-1.7305-10.168 0-19.578 2.9688-26.75 11.879-2.9726 2.9727-4.457 7.6797-4.457 12.883v71.309c0 6.4297-3.4687 7.1797-13.613 7.1797-10.402 0-13.613-0.75-13.613-7.1797v-111.92c0-5.9375 2.7148-7.1797 10.144-7.1797 7.4336 0 9.6484 1.2422 11.629 5.6914l2.7383 11.637c11.371-12.625 28.473-18.816 41.094-18.816 8.4219 0 11.395 3.9687 11.395 12.379"/>
<path d="m3883.6 2600.1c8.9024 0.7383 16.344 1.2383 22.035 1.2383 22.277 0 31.203-5.9414 31.203-18.57 0-12.379-8.6601-18.82-23.52-18.82-15.856 0-28.234 7.1797-29.719 36.152zm77.996 56.207c0 6.6836-3.2109 9.164-9.4101 11.641-8.1719 3.2109-20.066 5.9414-34.172 5.9414-36.894 0-63.137-16.84-63.137-65.371 0-46.051 23.785-64.871 59.172-64.871 32.688 0 50.273 16.34 50.273 40.113 0 25.75-22.035 37.637-56.695 37.637-8.1719 0-15.856-0.75-23.516-1.9805 2.9648 25.504 15.59 32.184 33.66 32.184 22.52 0 32.688-8.6601 36.141-8.6601 4.2071 0 7.6836 6.9297 7.6836 13.367"/>
<path d="m3994.5 2668.9c-6.9336-2.4844-10.137-5.4492-10.137-11.895 0-6.6757 3.7031-13.617 7.6836-13.617 3.7031 0 15.09 9.4101 39.84 9.4101 14.363 0 21.547-4.9492 21.547-15.352 0-7.918-4.9531-13.367-26.727-17.578-24.527-4.6992-42.094-13.871-42.094-38.383 0-19.805 14.59-37.879 49-37.879 11.66 0 21.574 1.7305 29.98 4.4609 6.9336 2.4688 9.9101 5.4415 9.9101 11.879 0 6.6914-3.4765 13.621-7.4336 13.621-3.7031 0-14.363-9.1601-35.91-9.1601-13.363 0-20.047 6.9297-20.047 14.609 0 8.4101 7.4336 13.613 25.754 17.332 24.5 4.9492 43.316 14.109 43.316 39.609 0 21.047-14.613 37.887-50.25 37.887-13.891 0-25.5-1.7266-34.434-4.9453"/>
<path d="m4108.9 2668.9c-6.9454-2.4766-10.164-5.4453-10.164-11.891 0-6.6757 3.707-13.617 7.668-13.617 3.7304 0 15.102 9.4101 39.879 9.4101 14.355 0 21.531-4.9492 21.531-15.352 0-7.918-4.9375-13.367-26.73-17.582-24.516-4.6953-42.09-13.867-42.09-38.375 0-19.812 14.586-37.883 49.012-37.883 11.652 0 21.535 1.7305 29.973 4.4609 6.9219 2.4688 9.9062 5.4415 9.9062 11.879 0 6.6875-3.4765 13.621-7.4375 13.621-3.7304 0-14.355-9.1601-35.891-9.1601-13.379 0-20.066 6.9297-20.066 14.609 0 8.4101 7.4336 13.613 25.754 17.332 24.492 4.9492 43.324 14.109 43.324 39.609 0 21.047-14.613 37.891-50.27 37.891-13.867 0-25.496-1.7344-34.398-4.9531"/>
<path d="m4221.3 2664.7v-111.92c0-6.1875 3.207-7.1758 13.617-7.1758 10.144 0 13.613 0.9883 13.613 7.1758v111.92c0 6.4297-3.4688 7.1797-13.613 7.1797-10.41 0-13.617-0.75-13.617-7.1797zm-2.9727-158.22c0-11.141 2.2149-15.348 16.59-15.348 14.344 0 16.824 3.461 16.824 15.348 0 11.883-2.4805 15.352-16.824 15.352-14.375 0-16.59-3.4687-16.59-15.352"/>
<path d="m4365.4 2608.2c0-35.402-12.883-43.082-29.461-43.082-16.606 0-29.223 7.6797-29.223 43.082 0 35.41 12.617 44.32 29.223 44.32 16.578 0 29.461-8.9101 29.461-44.32zm-87.176 0c0-45.801 24.531-64.617 57.715-64.617 33.426 0 57.926 18.066 57.926 64.617s-24.988 65.621-57.926 65.621c-33.184 0-57.715-18.078-57.715-65.621"/>
<path d="m4529.3 2584.7v79.98c0 6.4297-3.4727 7.1797-13.613 7.1797-10.144 0-13.617-0.75-13.617-7.1797v-75.027c0-12.383-4.4726-22.031-19.812-22.031-10.391 0-20.562 5.1993-26.758 12.867-2.6953 3.2227-4.4453 7.6797-4.4453 12.883v71.309c0 6.4297-3.4766 7.1797-13.617 7.1797-10.141 0-13.617-0.75-13.617-7.1797v-111.92c0-5.9414 2.9727-7.1836 10.145-7.1836 7.4453 0 9.4179 1.2422 10.668 5.9414l3.4453 12.129c11.395-13.121 28.234-19.559 41.848-19.559 27.484 0 39.375 15.602 39.375 40.609"/>
<path d="m1166.6 2805.1c-1.2109 7.0898-1.8203 9.5195-6.2812 9.5195h-59.758l-7.0899 44.774h46.188c4.6602 0 4.4492 2.6289 3.4414 9.7187-1.0117 7.0899-1.8203 9.5195-6.2812 9.5195h-46.391l-9.1093 57.942c-0.8086 4.8593-3.8477 5.2695-12.559 5.2695-8.9219 0-11.75-0.4102-10.941-5.2695l21.27-134.71c0.8125-4.2617 3.043-6.2812 7.293-6.2812h76.777c4.6602 0 4.4492 2.4297 3.4414 9.5195"/>
<path d="m1181.6 2884.7h6.6914c21.07 0 35.25-5.0625 35.25-18.844 0-7.8984-5.4687-11.547-13.781-11.547-15.391 0-24.707 13.367-28.16 30.391zm-1.6172 15.398v0.3985c0 19.453 9.5195 24.922 21.07 24.922 14.988 0 24.309-8.5117 27.547-8.5117 3.6523 0 6.4805 5.6719 6.4805 9.7227 0 4.8672-1.8203 6.8867-6.6797 9.3203-8.918 4.6562-19.25 7.5-30.789 7.5-23.301 0-40.52-12.562-40.52-41.73 0-33.832 19.648-64.832 55.301-64.832 21.68 0 32.008 11.551 32.008 26.949 0 24.711-22.48 36.863-51.859 36.863-3.8516 0-8.1016-0.2031-12.559-0.6016"/>
<path d="m1325.2 2866.4c-3.6523-6.8906-8.9101-11.141-16.812-11.141-17.828 0-27.957 22.078-27.957 45.168 0 18.84 7.289 24.723 17.418 24.723 7.5 0 14.988-3.6523 21.07-11.352 3.2382-4.0507 4.4609-7.8984 5.6679-14.18 1.2227-5.8711 2.0313-12.148 2.8438-18.23 0.8086-5.668 0.1992-10.328-2.2305-14.988zm38.09-72.121-22.492 141.6c-0.8086 4.8594-2.2305 5.8789-9.1172 5.8789-6.2813 0-8.3008-0.4102-8.711-4.6602l-0.8125-8.9101c-9.3203 9.9179-20.047 14.988-31.797 14.988-17.832 0-33.024-12.16-33.024-41.527 0-33.832 19.242-64.621 48.41-64.621 11.152 0 19.863 4.6602 26.34 14.18l8.9102-56.93c0.8125-4.8594 3.4531-5.2617 11.75-5.2617 8.5117 0 11.352 0.4023 10.543 5.2617"/>
<path d="m1395.3 2884.7h6.6875c21.07 0 35.25-5.0625 35.25-18.844 0-7.8984-5.4688-11.547-13.777-11.547-15.391 0-24.711 13.367-28.16 30.391zm-1.6211 15.398v0.3985c0 19.453 9.5195 24.922 21.07 24.922 14.988 0 24.309-8.5117 27.551-8.5117 3.6484 0 6.4804 5.6719 6.4804 9.7227 0 4.8672-1.8203 6.8867-6.6836 9.3203-8.9062 4.6562-19.25 7.5-30.789 7.5-23.301 0-40.52-12.562-40.52-41.73 0-33.832 19.652-64.832 55.309-64.832 21.672 0 32 11.551 32 26.949 0 24.711-22.476 36.863-51.859 36.863-3.8477 0-8.0977-0.2031-12.559-0.6016"/>
<path d="m1545.8 2844.4c0 7.289-3.4414 14.379-8.3125 14.379-2.4297 0-4.6602-0.1992-7.2891-0.1992-8.3008 0-15.801 2.832-22.488 9.5195-3.0312 2.6328-4.4492 5.6719-5.2617 10.332l-9.1211 58.141c-0.8086 4.8593-3.4375 5.2695-11.949 5.2695-8.3086 0-11.141-0.4102-10.328-5.2695l14.578-92.172c0.8125-4.8594 2.2305-5.8789 9.3203-5.8789 6.0821 0 7.5 0.8086 8.5117 4.6601l0.8086 10.129c9.5196-9.9179 21.07-16 33.832-16 6.2773 0 7.6992 2.2305 7.6992 7.0899"/>
<path d="m1615.5 2866.6c-3.6562-7.0898-9.3203-11.34-17.219-11.34-17.836 0-27.965 22.082-27.965 45.172 0 18.84 7.3008 24.719 17.43 24.719 7.4961 0 14.988-3.6484 20.867-11.148 3.4336-4.25 4.8555-8.1016 5.875-14.383 1.0117-5.8672 2.0195-12.148 2.8281-18.23 0.8086-5.668 0.4141-10.328-1.8164-14.789zm29.781-22.277-14.594 91.559c-0.8086 4.8593-2.4336 5.8789-9.3203 5.8789-6.2813 0-8.1016-0.4102-8.5156-4.6602l-0.8047-8.9062c-9.3125 9.9179-20.047 14.988-31.801 14.988-17.824 0-33.016-12.16-33.016-41.531 0-33.828 19.25-64.621 48.617-64.621 12.148 0 21.672 5.2617 27.953 15.391l3.6445-9.3203c1.625-4.0508 3.8477-4.6601 9.9258-4.6601 7.1016 0 8.7187 1.0195 7.9102 5.8828"/>
<path d="m1660.5 2936.5 22.492-142.21c0.8086-4.8594 3.6446-5.2578 11.953-5.2578 8.5118 0 11.137 0.3984 10.332 5.2578l-22.484 142.21c-0.8164 4.8593-3.4531 5.2695-11.961 5.2695-8.3008 0-11.137-0.4102-10.332-5.2695"/>
<path d="m1770.4 2878.4 12.359-77.988c0.8125-4.8593 3.6406-5.2695 12.359-5.2695 8.9179 0 11.746 0.4102 11.129 5.2695l-12.348 78.398c-4.4492 28.562 3.4453 44.359 23.293 44.359 19.246 0 31.004-12.359 36.059-44.16l12.16-78.598c0.8125-4.8593 3.836-5.2695 12.566-5.2695 8.9063 0 11.746 0.4102 10.922 5.2695l-12.348 79.207c-7.0938 45.781-28.973 63.812-61.375 63.812-36.059 0-50.852-25.531-44.777-65.031"/>
<path d="m1993.3 2874.7-9.7149 61.789c-0.8086 4.8594-3.4414 5.2696-11.953 5.2696-8.3047 0-11.137-0.4102-10.328-5.2696l9.5195-59.961c1.6172-10.539-1.0156-19.449-12.766-19.449-8.1055 0-16.606 4.6601-22.277 10.531-2.6328 2.6407-4.6679 6.2813-5.2695 10.738l-9.1133 58.141c-0.8203 4.8594-3.6484 5.2696-11.953 5.2696-8.3047 0-11.133-0.4102-10.324-5.2696l14.574-92.168c0.8086-4.8594 2.2305-5.8828 9.125-5.8828 6.2734 0 7.6914 0.8125 8.0977 4.6601l1.2109 10.742c9.7266-10.332 22.086-16.609 35.656-16.609 22.086 0 28.762 16.809 25.516 37.469"/>
<path d="m2030.6 2808.9c0-10.332 3.8516-14.992 14.789-14.992 9.918 0 13.566 3.4414 13.566 10.133 0 10.117-4.0547 14.988-14.789 14.988-10.133 0-13.566-3.2383-13.566-10.129zm-16.812 127.62 14.574-92.582c0.8086-5.0625 3.6524-5.4687 11.949-5.4687 8.5156 0 11.141 0.4062 10.332 5.4687l-14.574 92.582c-0.8086 4.8593-3.4492 5.2695-11.949 5.2695-8.3125 0-11.141-0.4102-10.332-5.2695"/>
<path d="m2071.9 2899.7 8.707-55.711c0.8086-5.0586 3.6445-5.4687 11.953-5.4687 8.5078 0 11.133 0.4101 10.324 5.4687l-9.1172 58.949c-2.4257 15.203 0.6094 23.102 9.7266 23.102 15.188 0 33.836-20.871 33.836-54.289 0-17.832-4.2695-23.5-4.2695-26.949 0-4.0508 5.4727-7.2929 14.594-7.2929 5.6718 0 8.3086 1.8203 9.5273 7.0898 1.8164 5.8789 3.0352 13.172 3.0352 23.703 0 44.16-30.391 75.156-61.785 75.156-24.106 0-31-16.609-26.531-43.758"/>
<path d="m2199.7 2884.7h6.6757c21.07 0 35.242-5.0586 35.242-18.836 0-7.9023-5.4687-11.555-13.77-11.555-15.394 0-24.707 13.371-28.148 30.391zm-1.625 15.402v0.3985c0 19.453 9.5234 24.922 21.07 24.922 14.992 0 24.305-8.5117 27.555-8.5117 3.6367 0 6.4804 5.6719 6.4804 9.7188 0 4.8711-1.832 6.8906-6.6914 9.3242-8.9101 4.6562-19.25 7.4961-30.801 7.4961-23.289 0-40.5-12.559-40.5-41.73 0-33.828 19.652-64.828 55.297-64.828 21.684 0 32.012 11.551 32.012 26.949 0 24.711-22.488 36.859-51.859 36.859-3.8594 0-8.1055-0.1992-12.562-0.5977"/>
<path d="m2350.2 2844.4c0 7.289-3.4453 14.379-8.3047 14.379-2.4219 0-4.6563-0.1992-7.2813-0.1992-8.3203 0-15.801 2.832-22.492 9.5195-3.0429 2.6328-4.457 5.6719-5.2773 10.332l-9.0977 58.141c-0.8242 4.8593-3.4609 5.2695-11.953 5.2695-8.3047 0-11.144-0.4102-10.34-5.2695l14.594-92.172c0.8086-4.8594 2.2188-5.8789 9.3125-5.8789 6.086 0 7.4844 0.8086 8.5078 4.6601l0.8086 10.129c9.5313-9.9218 21.066-16 33.84-16 6.2734 0 7.6836 2.2305 7.6836 7.0899"/>
<path d="m2356.9 2936.3c-4.8555-2.4297-6.0782-5.0703-6.0782-8.7109 0-4.6602 3.8438-11.141 7.8946-11.141 3.8593 0 11.754 10.328 28.781 10.328 10.324 0 16.211-5.0664 16.211-14.18 0-6.6875-4.0664-10.938-14.602-14.387-20.856-6.4805-29.777-14.383-29.777-28.973 0-19.848 16.016-32.41 39.105-32.41 9.5196 0 17.621 2.0312 23.699 5.2695 4.4571 2.0313 6.0782 4.6602 6.0782 8.9102 0 5.0742-3.6485 10.539-7.2852 10.539-3.4531 0-10.949-8.5078-24.52-8.5078-10.742 0-16 6.0781-16 13.168 0 6.0703 3.8437 9.7226 15.391 13.574 20.258 6.2773 28.957 14.988 28.957 30.391 0 20.856-15.18 33.219-40.102 33.219-11.145 0-20.051-2.6406-27.754-7.0899"/>
<path d="m2460.2 2808.9c0-10.332 3.8476-14.992 14.797-14.992 9.9218 0 13.57 3.4414 13.57 10.133 0 10.117-4.0469 14.988-14.793 14.988-10.121 0-13.574-3.2383-13.574-10.129zm-16.809 127.62 14.582-92.582c0.8086-5.0586 3.6485-5.4687 11.953-5.4687 8.5039 0 11.145 0.4101 10.336 5.4687l-14.582 92.582c-0.8085 4.8593-3.4492 5.2695-11.969 5.2695-8.2891 0-11.129-0.4102-10.32-5.2695"/>
<path d="m2567 2847.2c-1.0078 6.0781-1.8125 8.5078-5.6719 8.5078h-26.121l-8.3203 52.871c-1.4023 8.918 0.2227 15.199 8.3203 15.199 8.3008 0 13.172-5.0703 15.598-5.0703 3.2461 0 5.6719 5.8789 5.6719 10.129 0 4.8594-2.0313 7.5-7.9102 9.9297-6.2695 3.043-12.949 4.461-20.055 4.461-21.867 0-27.129-13.781-23.902-34.848l8.5078-52.672h-10.727c-3.4492 0-3.6406-2.0195-2.8359-7.289 0.8047-5.0625 1.6211-6.2813 4.664-7.0899l12.145-2.0312 6.8867-19.648c1.8281-3.8437 4.0469-4.25 10.129-4.25 6.8867 0 8.0977 1.0078 7.293 5.8789l-2.8321 17.617h26.137c3.8437 0 4.0468 2.2344 3.0234 8.3047"/>
<path d="m2674.6 2843.9-15.394 97.441c-5.0703 33.02-23.309 49.84-53.887 49.84-11.34 0-20.664-2.6407-28.359-6.8907-4.8594-2.6406-6.2891-5.0703-6.2891-8.9101 0-5.0703 4.6641-12.16 8.7188-12.16 3.6406 0 10.324 9.1211 27.754 9.1211 17.629 0 26.129-8.9218 29.379-29.172l2.2148-13.98c-8.9101 8.5117-19.644 13.773-31.809 13.773-22.074 0-28.969-16.812-25.504-37.68l9.5196-61.383c0.8046-5.0586 3.6406-5.4687 11.949-5.4687 8.5 0 11.125 0.4101 10.324 5.4687l-9.5234 59.762c-1.6211 10.539 1.2148 19.449 12.754 19.449 8.125 0 16.02-4.6602 21.684-10.738 2.6406-2.6328 4.25-5.8711 5.0703-10.531l9.1093-57.941c0.8204-5.0586 3.6602-5.4687 11.949-5.4687 8.3203 0 11.144 0.4101 10.34 5.4687"/>
<path d="m2809.5 2879.6c0-19.449-8.7032-25.328-18.836-25.328-19.844 0-30.394 22.488-30.394 46.188 0 19.25 8.7226 25.531 18.84 25.531 19.859 0 30.391-22.691 30.391-46.391zm-72.309 22.082c0-33.828 19.031-64.828 56.098-64.828 22.695 0 39.309 12.356 39.309 41.726 0 33.633-19.047 64.832-56.113 64.832-22.695 0-39.293-12.359-39.293-41.73"/>
<path d="m2937.9 2800.2c0 5.0625-3.6563 10.941-7.4961 10.941-3.0274 0-7.8946-5.0703-18.438-5.0703-10.129 0-17.215 6.082-19.234 18.641l-2.2344 14.18h23.703c3.8555 0 4.0547 2.2305 3.0469 8.2969-0.8125 6.082-1.8398 8.5117-5.6797 8.5117h-23.699l-12.762 80.832c-0.8125 4.8593-3.6406 5.2695-11.949 5.2695-8.3125 0-11.141-0.4102-10.328-5.2695l12.762-80.832h-10.746c-3.4414 0-3.6407-2.0195-2.8282-7.289 0.8125-5.0586 1.6211-6.2813 4.6524-7.0899l11.535-1.8203 2.2344-14.789c4.0547-24.723 19.051-37.27 41.723-37.27 7.3008 0 13.375 1.207 19.668 3.6406 4.4493 1.8164 6.0704 4.6563 6.0704 9.1172"/>
<path d="m3061.1 2836.9c0-16-10.523-22.277-28.754-22.277h-20.062l-8.1016 51.25h19.856c21.066 0 37.062-9.3203 37.062-28.973zm-20.254 40.918v0.8125c5.2617 1.6211 9.918 5.4688 13.777 9.9297 10.941 11.949 17.414 29.781 18.02 48.012 0.2109 4.8593-3.2344 5.2695-12.148 5.2695-8.9179 0-12.551-0.4102-13.156-5.2695-0.8125-17.02-7.2852-34.031-18.039-45.172-4.8632-5.2696-8.3086-6.6875-14.176-6.6875h-13.988l-8.1016 51.859c-0.793 4.8593-3.8398 5.2695-12.547 5.2695-8.914 0-11.754-0.4102-10.941-5.2695l21.277-134.71c0.7929-4.2578 3.0273-6.2812 7.2851-6.2812h37.27c32.004 0 49.836 11.75 49.836 37.07 0 24.922-18.039 40.922-44.367 45.168"/>
<path d="m3113.6 2808.9c0-10.332 3.8359-14.992 14.785-14.992 9.9258 0 13.57 3.4414 13.57 10.133 0 10.117-4.0469 14.988-14.785 14.988-10.117 0-13.57-3.2383-13.57-10.129zm-16.809 127.62 14.594-92.582c0.8086-5.0586 3.625-5.4687 11.93-5.4687 8.5196 0 11.145 0.4101 10.332 5.4687l-14.59 92.582c-0.8086 4.8593-3.4336 5.2695-11.934 5.2695-8.3047 0-11.141-0.4102-10.332-5.2695"/>
<path d="m3221.3 2879.6c0-19.449-8.6992-25.332-18.828-25.332-19.848 0-30.375 22.492-30.375 46.192 0 19.25 8.6992 25.531 18.828 25.531 19.844 0 30.375-22.691 30.375-46.391zm-72.312 22.078c0-33.828 19.047-64.828 56.129-64.828 22.672 0 39.293 12.359 39.293 41.73 0 33.629-19.051 64.828-56.109 64.828-22.691 0-39.312-12.359-39.312-41.73"/>
<path d="m3311.7 2885.3c0-47 23.297-91.77 72.121-91.77 13.758 0 25.922 4.0508 34.223 8.711 4.4531 2.4257 6.2813 5.4648 6.2813 9.7265 0 6.0703-5.0625 13.57-9.5196 13.57-4.2422 0-12.562-10.328-31.805-10.328-31.406 0-47.605 33.219-47.394 69.68 0 29.168 13.57 39.098 29.559 39.098 21.281 0 34.453-15.598 34.453-43.547 0-5.4727-0.4179-10.332-1.2187-15.602-0.6094-5.2695 1.8281-6.0781 10.734-6.0781 8.9101 0 11.555 0.4062 12.355 5.4687 0.6094 4.25 1.0078 8.9102 1.0078 13.777 0 38.891-19.832 65.43-59.137 65.43-26.555 0-51.66-14.586-51.66-58.137"/>
<path d="m3514.2 2844.4c0 7.289-3.4492 14.379-8.3008 14.379-2.4336 0-4.6562-0.1992-7.3086-0.1992-8.3008 0-15.781 2.8281-22.465 9.5195-3.0391 2.6289-4.461 5.6719-5.2813 10.332l-9.1211 58.141c-0.7968 4.8593-3.4257 5.2695-11.941 5.2695-8.3008 0-11.148-0.4102-10.328-5.2695l14.594-92.172c0.8007-4.8594 2.2226-5.8828 9.2929-5.8828 6.0821 0 7.5039 0.8125 8.5156 4.664l0.8204 10.129c9.5078-9.9218 21.066-16 33.828-16 6.2734 0 7.6953 2.2305 7.6953 7.0899"/>
<path d="m3583.9 2866.6c-3.6601-7.0898-9.3359-11.344-17.23-11.344-17.828 0-27.941 22.082-27.941 45.172 0 18.84 7.2735 24.723 17.41 24.723 7.4922 0 14.988-3.6523 20.867-11.152 3.4375-4.25 4.8555-8.0977 5.875-14.379 1.0195-5.8711 2.0195-12.148 2.8398-18.23 0.7969-5.6719 0.3985-10.328-1.8203-14.789zm29.758-22.281-14.566 91.562c-0.8203 4.8554-2.4414 5.875-9.3359 5.875-6.2774 0-8.0938-0.4102-8.4922-4.6563l-0.8203-8.9101c-9.3164 9.9179-20.047 14.988-31.801 14.988-17.828 0-33.02-12.16-33.02-41.531 0-33.828 19.25-64.617 48.609-64.617 12.152 0 21.688 5.2617 27.961 15.391l3.6367-9.3203c1.6211-4.0508 3.8594-4.6601 9.9336-4.6601 7.0977 0 8.7148 1.0195 7.8945 5.8789"/>
<path d="m3723.3 2874.7-9.7188 61.793c-0.7969 4.8593-3.4297 5.2695-11.957 5.2695-8.2969 0-11.133-0.4102-10.309-5.2695l9.5117-59.961c1.6211-10.539-1.0078-19.449-12.758-19.449-8.1172 0-16.621 4.6602-22.293 10.527-2.6289 2.6407-4.664 6.2813-5.2578 10.742l-9.1211 58.141c-0.8242 4.8593-3.6562 5.2695-11.957 5.2695s-11.133-0.4102-10.332-5.2695l14.586-92.172c0.8203-4.8594 2.2383-5.8789 9.1211-5.8789 6.2852 0 7.7031 0.8086 8.0937 4.6601l1.2344 10.738c9.7149-10.328 22.062-16.609 35.641-16.609 22.086 0 28.762 16.812 25.516 37.469"/>
<path d="m3810.6 2866.4c-3.6367-6.8906-8.9024-11.141-16.816-11.141-17.805 0-27.938 22.078-27.938 45.168 0 18.844 7.2734 24.723 17.406 24.723 7.5078 0 14.996-3.6484 21.066-11.352 3.2578-4.0507 4.461-7.8984 5.668-14.18 1.2266-5.8711 2.0312-12.152 2.8555-18.23 0.8047-5.668 0.1914-10.328-2.2422-14.988zm38.094-72.121-22.484 141.6c-0.8008 4.8594-2.2422 5.8789-9.1133 5.8789-6.2852 0-8.3164-0.4102-8.7149-4.6602l-0.8047-8.9101c-9.3281 9.9218-20.074 14.992-31.812 14.992-17.828 0-33.039-12.16-33.039-41.531 0-33.832 19.273-64.621 48.438-64.621 11.125 0 19.84 4.6602 26.332 14.18l8.9063-56.93c0.8242-4.8594 3.4453-5.2578 11.758-5.2578 8.5039 0 11.336 0.3984 10.535 5.2578"/>
<path d="m3880.7 2884.7h6.6992c21.051 0 35.227-5.0625 35.227-18.84 0-7.9023-5.4414-11.551-13.766-11.551-15.387 0-24.703 13.371-28.16 30.391zm-1.6211 15.398v0.3985c0 19.453 9.5313 24.922 21.07 24.922 15 0 24.316-8.5117 27.559-8.5117 3.6524 0 6.4844 5.6719 6.4844 9.7227 0 4.8672-1.8164 6.8906-6.6797 9.3164-8.9258 4.664-19.258 7.5-30.797 7.5-23.301 0-40.524-12.559-40.524-41.727 0-33.832 19.644-64.832 55.305-64.832 21.676 0 32.008 11.551 32.008 26.953 0 24.707-22.5 36.856-51.871 36.856-3.8476 0-8.0781-0.1992-12.555-0.5977"/>
<path d="m4071.6 2866.4c-3.6563-6.8906-8.9258-11.144-16.82-11.144-17.828 0-27.965 22.082-27.965 45.172 0 18.844 7.3125 24.719 17.426 24.719 7.5117 0 15.004-3.6484 21.082-11.348 3.2266-4.0507 4.4375-7.8984 5.6719-14.18 1.211-5.8711 2.0195-12.152 2.8242-18.23 0.8086-5.668 0.2032-10.328-2.2187-14.988zm38.078-72.125-22.492 141.6c-0.8086 4.8633-2.2187 5.8828-9.1054 5.8828-6.2774 0-8.3204-0.4141-8.7266-4.6602l-0.8047-8.9101c-9.3047 9.9218-20.047 14.988-31.801 14.988-17.828 0-33.035-12.16-33.035-41.531 0-33.828 19.27-64.617 48.445-64.617 11.121 0 19.844 4.6602 26.324 14.18l8.9023-56.934c0.8086-4.8594 3.4571-5.2578 11.754-5.2578 8.5235 0 11.348 0.3984 10.539 5.2578"/>
<path d="m4189.4 2879.6c0-19.449-8.7109-25.328-18.84-25.328-19.875 0-30.395 22.488-30.395 46.188 0 19.254 8.711 25.531 18.84 25.531 19.852 0 30.394-22.688 30.394-46.391zm-72.336 22.082c0-33.832 19.047-64.828 56.105-64.828 22.691 0 39.309 12.356 39.309 41.726 0 33.633-19.047 64.832-56.105 64.832-22.691 0-39.309-12.359-39.309-41.73"/>
<path d="m4278.8 2932.3c-5.2618-3.25-6.6836-6.4922-6.6836-10.742 0-5.2696 5.0468-13.172 9.7187-13.172 5.0781 0 14.367 14.793 36.469 14.793 16.41 0 27.125-7.6993 27.125-21.883 0-13.98-10.93-19.039-24.707-24.707-15.789-6.4805-33.809-14.59-33.809-39.098 0-27.953 23.684-43.961 52.258-43.961 12.352 0 23.496 3.4453 31.793 8.5078 4.461 2.6289 6.2852 5.2696 6.2852 10.129 0 5.8711-4.6719 13.371-8.9141 13.371-4.6758 0-13.562-11.75-31.609-11.75-14.984 0-25.512 7.8985-25.512 20.66 0 12.16 9.5078 16.41 23.094 21.879 16.195 6.4805 35.852 15.191 35.852 41.121 0 30.59-24.113 45.988-53.68 45.988-15.82 0-28.172-4.6602-37.68-11.137"/>
<path d="m4487.6 2843.9-14.594 91.969c-0.8243 4.8633-2.2305 5.8828-9.1133 5.8828-6.2774 0-8.3164-0.6094-8.7031-4.6602l-0.8243-10.129c-9.1132 9.7188-19.25 16-32.41 16-22.086 0-31.008-16.812-27.758-37.684l9.7226-61.379c0.8242-5.0586 3.6602-5.4687 11.949-5.4687 8.3164 0 11.152 0.4101 10.356 5.4687l-9.5312 59.762c-1.6211 10.539 1.2148 19.449 12.75 19.449 8.0976 0 16-4.6602 21.699-10.738 2.6172-2.6328 4.2422-5.8711 5.039-10.531l9.1172-57.941c0.8242-5.0586 3.4414-5.4687 11.949-5.4687 8.3165 0 11.152 0.4101 10.352 5.4687"/>
<path d="m4502.8 2936.5 22.492-142.21c0.8086-4.8594 3.6289-5.2578 11.941-5.2578 8.5117 0 11.137 0.3984 10.324 5.2578l-22.488 142.21c-0.8086 4.8593-3.4336 5.2695-11.945 5.2695-8.3125 0-11.133-0.4102-10.324-5.2695"/>
<path d="m2940.1 3109.5c0-17.02-9.1289-24.918-26.949-24.918h-20.461l-9.5274 60.367h20.875c23.496 0 36.062-13.168 36.062-35.449zm24.098-2.0312c0 35.25-23.898 56.723-61.578 56.723h-22.496l-6.6719 42.34c-0.8203 4.8593-3.8555 5.2695-12.566 5.2695-8.9102 0-11.75-0.4102-10.93-5.2695l21.258-134.71c0.8203-4.2578 3.0391-6.2812 7.293-6.2812h36.66c29.988 0 49.031 13.773 49.031 41.93"/>
<path d="m3040.4 3149.6c0-19.449-8.7227-25.328-18.832-25.328-19.867 0-30.391 22.488-30.391 46.188 0 19.25 8.6992 25.531 18.832 25.531 19.863 0 30.391-22.691 30.391-46.391zm-72.324 22.082c0-33.832 19.059-64.832 56.121-64.832 22.688 0 39.301 12.359 39.301 41.73 0 33.629-19.059 64.832-56.121 64.832-22.684 0-39.301-12.363-39.301-41.73"/>
<path d="m3153.4 3114.4c0 7.289-3.4414 14.379-8.2969 14.379-2.4375 0-4.664-0.1992-7.2929-0.1992-8.3008 0-15.809 2.832-22.48 9.5195-3.0391 2.6328-4.4687 5.6719-5.2812 10.332l-9.1133 58.141c-0.8125 4.8593-3.4453 5.2695-11.957 5.2695-8.3007 0-11.144-0.4102-10.332-5.2695l14.59-92.172c0.8125-4.8594 2.2226-5.8789 9.3242-5.8789 6.0742 0 7.4883 0.8086 8.4922 4.6601l0.8125 10.129c9.5195-9.9179 21.066-16 33.836-16 6.2891 0 7.6992 2.2305 7.6992 7.0899"/>
<path d="m3230.2 3117.2c-1.0078 6.0781-1.8242 8.5078-5.668 8.5078h-26.148l-8.2852 52.871c-1.4258 8.918 0.1992 15.199 8.2852 15.199 8.3281 0 13.184-5.0703 15.602-5.0703 3.25 0 5.6719 5.8789 5.6719 10.129 0 4.8633-2.0234 7.5-7.8906 9.9297-6.2852 3.043-12.965 4.461-20.062 4.461-21.867 0-27.137-13.777-23.906-34.848l8.5235-52.672h-10.746c-3.4492 0-3.6446-2.0195-2.8321-7.289 0.8125-5.0586 1.625-6.2813 4.6563-7.0899l12.152-2.0312 6.8985-19.648c1.8047-3.8398 4.0429-4.25 10.129-4.25 6.8789 0 8.0898 1.0078 7.2773 5.8789l-2.8164 17.621h26.129c3.8438 0 4.043 2.2305 3.0313 8.3008"/>
<path d="m3311.9 3149.6c0-19.449-8.6953-25.328-18.82-25.328-19.867 0-30.406 22.488-30.406 46.188 0 19.25 8.7188 25.531 18.844 25.531 19.848 0 30.383-22.691 30.383-46.391zm-72.305 22.082c0-33.832 19.027-64.832 56.102-64.832 22.691 0 39.305 12.359 39.305 41.73 0 33.629-19.051 64.832-56.102 64.832-22.691 0-39.305-12.363-39.305-41.73"/>
<path d="m3424.5 3157.9h56.531c-1.2266-26.129-5.8907-52.059-16.215-73.332-16.621 20.262-30.188 45.98-40.316 73.332zm80.418 18.84c0 10.539-0.4063 21.27-1.418 29.781-0.4062 4.8593-3.6328 5.2695-12.75 5.2695-9.1406 0-11.957-0.8125-11.57-5.2695 1.0352-8.711 1.6367-19.652 2.043-29.582h-63c-3.0313 9.7305-5.4649 19.652-7.5039 29.582-1.0118 4.6601-3.4414 5.2695-13.375 5.2695-9.0977 0-12.344-0.6094-11.141-5.8828 12.172-54.09 38.492-107.16 66.465-136.33 3.8281-4.0507 6.8828-4.4609 14.578-4.4609 7.8945 0 10.539 0.4102 13.57 5.0703 15.996 24.512 24.102 63.199 24.102 106.55"/>
<path d="m3528.4 3206.5 22.496-142.21c0.8125-4.8594 3.6406-5.2617 11.949-5.2617 8.5078 0 11.141 0.4023 10.328 5.2617l-22.496 142.21c-0.8125 4.8593-3.4414 5.2695-11.949 5.2695-8.2891 0-11.141-0.4102-10.328-5.2695"/>
<path d="m3605.2 3154.7h6.6836c21.062 0 35.238-5.0625 35.238-18.84 0-7.9023-5.4687-11.551-13.773-11.551-15.391 0-24.707 13.367-28.148 30.391zm-1.6211 15.398v0.3985c0 19.453 9.5196 24.922 21.062 24.922 14.988 0 24.305-8.5117 27.543-8.5117 3.6445 0 6.4805 5.6719 6.4805 9.7227 0 4.8672-1.8203 6.8867-6.6836 9.3203-8.9102 4.6601-19.238 7.5-30.781 7.5-23.316 0-40.531-12.562-40.531-41.73 0-33.832 19.648-64.832 55.312-64.832 21.672 0 32 11.551 32 26.949 0 24.711-22.48 36.863-51.867 36.863-3.8281 0-8.1016-0.2031-12.535-0.6016"/>
<path d="m3749.2 3136.6c-3.6641-7.0898-9.3242-11.34-17.23-11.34-17.832 0-27.941 22.078-27.941 45.168 0 18.84 7.2813 24.723 17.414 24.723 7.4883 0 15.004-3.6523 20.871-11.152 3.4297-4.25 4.6601-8.0977 5.8632-14.379 1.2071-5.8711 2.0196-12.152 2.8321-18.23 0.8086-5.6719 0.4179-10.328-1.8086-14.789zm29.773-22.281-15.398 97.031c-5.2617 32.82-23.281 49.84-54.91 49.84-11.734 0-21.055-2.6407-28.754-6.8907-4.8476-2.6406-6.2851-5.0703-6.2851-8.9101 0-5.0703 4.4531-12.16 8.7187-12.16 3.6406 0 10.32 9.1211 27.941 9.1211 18.856 0 27.363-8.9218 30.586-29.172l2.25-13.367c-8.5079 8.707-18.434 13.367-29.172 13.367-17.832 0-33.02-12.16-33.02-41.527 0-33.832 19.453-64.621 48.605-64.621 12.148 0 21.68 5.2617 27.965 15.391l3.6406-9.3203c2.4336-3.8515 4.0586-4.6601 10.344-4.6601 6.8868 0 8.3008 1.0195 7.4883 5.8789"/>
<path d="m3869.2 3114.4c0 7.289-3.4414 14.379-8.3086 14.379-2.4219 0-4.6524-0.1992-7.2891-0.1992-8.3047 0-15.809 2.832-22.5 9.5195-3.0391 2.6328-4.4648 5.6719-5.2695 10.332l-9.0938 58.141c-0.8281 4.8593-3.4414 5.2695-11.961 5.2695-8.3086 0-11.133-0.4102-10.328-5.2695l14.574-92.172c0.8086-4.8594 2.2344-5.8789 9.332-5.8789 6.0742 0 7.4766 0.8086 8.4961 4.6601l0.8086 10.129c9.5156-9.9179 21.078-16 33.848-16 6.2656 0 7.6914 2.2305 7.6914 7.0899"/>
<path d="m3895.1 3154.7h6.6757c21.078 0 35.258-5.0625 35.258-18.84 0-7.9023-5.4882-11.551-13.793-11.551-15.395 0-24.719 13.367-28.141 30.391zm-1.629 15.398v0.3985c0 19.453 9.5196 24.922 21.078 24.922 14.98 0 24.281-8.5117 27.535-8.5117 3.6407 0 6.4805 5.6719 6.4805 9.7227 0 4.8672-1.8203 6.8867-6.6758 9.3203-8.9101 4.6601-19.254 7.5-30.789 7.5-23.309 0-40.527-12.562-40.527-41.73 0-33.832 19.668-64.832 55.316-64.832 21.684 0 32 11.551 32 26.949 0 24.711-22.484 36.863-51.863 36.863-3.8359 0-8.1093-0.2031-12.555-0.6016"/>
<path d="m3960.3 3212 63.617-147.07c2.4102-5.4688 4.4453-5.8711 12.344-5.8711 7.1015 0 11.148 0.4023 8.7148 5.8711l-63.6 147.1c-2.4101 5.4688-4.4453 5.8711-12.34 5.8711-7.1016 0-11.152-0.4023-8.7188-5.8711"/>
<path d="m4107.6 3084.6h-19.047l-6.6836 42.34h20.047c21.676 0 30.602-11.75 30.602-23.91 0-11.34-7.5-18.43-24.918-18.43zm21.883 81.641c0-12.969-9.1289-20.258-27.363-20.258h-23.285l-7.2929 46.391h25.297c21.703 0 32.645-10.531 32.645-26.133zm23.488 0.6093c0 26.133-22.492 44.562-59.141 44.562h-42.359c-4.2578 0-6.0703-2.4297-5.4571-6.8906l21.066-132.68c0.8164-4.2617 3.0352-6.2812 7.293-6.2812h36.875c30.371 0 45.57 12.359 45.57 32.211 0 18.23-10.328 31.801-28.766 37.68v0.6016c14.18 3.2382 24.918 12.16 24.918 30.797"/>
<path d="m4245.7 3114.4c0 7.289-3.4375 14.379-8.3086 14.379-2.4219 0-4.6641-0.1992-7.293-0.1992-8.3086 0-15.785 2.832-22.48 9.5195-3.0469 2.6328-4.4532 5.6719-5.2618 10.332l-9.1172 58.141c-0.8046 4.8593-3.4375 5.2695-11.953 5.2695-8.3086 0-11.148-0.4102-10.344-5.2695l14.59-92.172c0.8047-4.8594 2.2383-5.8789 9.3242-5.8789 6.0703 0 7.5 0.8086 8.5157 4.6601l0.8086 10.129c9.5078-9.9179 21.074-16 33.808-16 6.2774 0 7.711 2.2305 7.711 7.0899"/>
<path d="m4315.5 3136.6c-3.6523-7.0898-9.332-11.34-17.223-11.34-17.836 0-27.969 22.078-27.969 45.168 0 18.84 7.3047 24.723 17.438 24.723 7.4922 0 14.984-3.6523 20.848-11.152 3.4414-4.25 4.8828-8.0977 5.8672-14.379 1.039-5.8711 2.0546-12.152 2.8515-18.23 0.8008-5.6719 0.4024-10.328-1.8125-14.789zm29.785-22.281-14.613 91.559c-0.8008 4.8633-2.4258 5.8828-9.3047 5.8828-6.293 0-8.1055-0.4102-8.5039-4.6602l-0.8281-8.9101c-9.3047 9.9179-20.051 14.988-31.781 14.988-17.84 0-33.035-12.16-33.035-41.527 0-33.832 19.25-64.621 48.633-64.621 12.129 0 21.648 5.2578 27.941 15.391l3.6523-9.3203c1.6289-4.0508 3.8399-4.6601 9.918-4.6601 7.0938 0 8.7188 1.0195 7.9219 5.8789"/>
<path d="m4438.2 3126.9c-23.086 15.602-46.984 40.512-59.738 66.242h47.391c4.2539 0 4.0351 2.6289 3.246 8.7109-1.0117 7.0898-1.8281 9.5195-5.8867 9.5195h-62.984c-4.0586 0-5.2852-1.4218-5.668-7.0898-0.4102-5.0625 0-7.0899 2.0156-10.941 12.973-24.508 32.625-49.02 54.289-66.238h-38.07c-4.2813 0-4.0625-2.4297-3.0547-9.1211 1.0078-6.6797 1.8281-9.1094 5.8593-9.1094h61.402c3.4336 0 4.4414 1.6172 4.8516 7.0899 0.4062 6.2773 0.2187 8.3008-3.6524 10.938"/>
<path d="m4467.6 3078.9c0-10.332 3.8321-14.988 14.781-14.988 9.9297 0 13.57 3.4375 13.57 10.129 0 10.117-4.0547 14.988-14.781 14.988-10.125 0-13.57-3.2383-13.57-10.129zm-16.828 127.62 14.594-92.582c0.8243-5.0586 3.6407-5.4687 11.969-5.4687 8.4961 0 11.117 0.4101 10.316 5.4687l-14.59 92.582c-0.8008 4.8593-3.4493 5.2695-11.945 5.2695-8.3007 0-11.141-0.4102-10.344-5.2695"/>
<path d="m4502.8 3206.5 22.492-142.21c0.8086-4.8594 3.6289-5.2617 11.941-5.2617 8.5117 0 11.137 0.4023 10.324 5.2617l-22.488 142.21c-0.8086 4.8593-3.4336 5.2695-11.945 5.2695-8.3125 0-11.133-0.4102-10.324-5.2695"/>
<path d="m5001.8 2689.8h-112.88l-1.0937-33.75c0-93.312 14.008-158.95 42.023-196.95 28.402-38.336 75.98-57.531 142.76-57.531 125.75 0 188.63 69.723 188.63 209.12 0 94.047-47.027 229.58-141.08 406.61l-68.043 127.8c-0.3554 0.75-1.4843 2.9492-3.3242 6.6406-1.8398 3.6914-4.4219 9.0508-7.7148 16.051h211.32v98.469h-375.09c6.2618-14 19.367-41.848 39.281-83.531 19.914-41.68 47.027-97.93 81.34-168.74 29.113-61.973 53.449-114.51 73.012-157.67 19.527-43.156 34.277-78.559 44.25-106.22 19.914-55.309 29.891-103.08 29.891-143.28 0-70.809-24.531-106.22-73.594-106.22-47.223 0-70.816 43.891-70.816 131.66l0.5508 48.68 0.5781 8.8633"/>
</g>
<g clip-path="url(#a)">
<path d="m5614.3 2845.8c0-129.07-5.5547-218.32-16.598-267.75-11.074-49.035-31.188-73.566-60.305-73.566-29.148 0-49.438 24.34-60.867 73.008-11.039 48.691-16.598 136.28-16.598 262.78 0 126.52 5.5586 214.3 16.598 263.35 11.43 48.68 31.719 73.012 60.867 73.012 28.766 0 48.668-24.152 59.742-72.469 11.43-46.09 17.16-132.22 17.16-258.36zm117.27 0c0 153.44-14.734 264.08-44.234 331.94-29.152 65.66-78.766 98.469-148.85 98.469-70.078 0-119.84-33-149.34-99.02-29.188-64.168-43.742-176.84-43.742-338.03 0-161.15 14.555-273.82 43.742-338.01 29.113-66.379 78.73-99.578 148.81-99.578 64.91 0 112.84 29.137 143.82 87.41 33.195 61.59 49.793 180.54 49.793 356.82" fill="#fff"/>
</g>
<path d="m5809.9 2412.1h194.73v854.17h-110.07v-756.25h-84.656v-97.918"/>
<path d="m6395.4 2675.4c0-112.48-24.152-168.73-72.465-168.73-47.949 0-71.902 55.512-71.902 166.51 0 58.289 5.5898 100.52 16.848 126.71 11.258 26.191 29.586 39.262 55.055 39.262 25.434 0 43.879-13 55.297-39.004 11.461-26 17.168-67.566 17.168-124.75zm-64.719 590.85h-122.81l82.406-165.97c14.73-30.242 29.426-61.301 43.996-93.199 14.574-31.91 28.867-65.191 42.879-99.883-28.426 22.883-57.73 34.312-87.953 34.312-50.547 0-87.797-20.371-111.79-61.121-23.957-40.746-35.934-104.11-35.934-190.05 0-103.26 14.016-177.22 42.043-221.84 28.027-44.629 74.699-66.941 139.98-66.941 65.992 0 113.23 22.504 141.61 67.504 28.383 44.996 42.598 119.86 42.598 224.61 0 77.453-8.8633 149-26.551 214.64-8.5039 32.469-20.68 68.699-36.531 108.72-15.848 40.008-35.613 84.918-59.168 134.7l-44.836 93.5-9.9414 21.02"/>
</g>
</g>
</g>
</svg>
