<svg xmlns:rdf="http://www.w3.org/1999/02/22-rdf-syntax-ns#" xmlns="http://www.w3.org/2000/svg" viewBox="0 0 6669.9133 3169.6746" height="3169.7pt" width="6669.9pt" version="1.1" xmlns:cc="http://creativecommons.org/ns#" xmlns:dc="http://purl.org/dc/elements/1.1/">
<defs>
<clipPath id="b">
<path d="m6813 1200h153.05v152h-153.05z"/>
</clipPath>
<clipPath id="a">
<path d="m5345 2401h387v875.22h-387z"/>
</clipPath>
</defs>
<g fill="#fff" transform="translate(-70.844 -92.144)">
<g transform="matrix(.95749 0 0 .95749 70.844 92.148)">
<g>
<path d="m6463.5 1338.4c19.207-13.891 31.801-36.43 31.801-61.902 0-42.117-34.273-76.391-76.391-76.391-42.121 0-76.391 34.273-76.391 76.391 0 26.152 13.27 49.203 33.352 62.973 0 0 14.148 12.391 43.039 12.391 24.785 0 44.551-13.102 44.59-13.461"/>
<path d="m6777.4 1338.4c19.215-13.891 31.789-36.434 31.789-61.902 0-42.121-34.254-76.387-76.402-76.387-42.109 0-76.363 34.266-76.363 76.387 0 26.152 13.242 49.203 33.336 62.969 0 0 14.117 12.391 43.027 12.391 24.77 0 44.531-13.098 44.613-13.457"/>
<path d="m6575.8 1315.8c-21.629 0-39.219-17.602-39.219-39.23 0-21.629 17.59-39.23 39.219-39.23s39.219 17.602 39.219 39.23c0 21.629-17.59 39.23-39.219 39.23zm76.398-39.23c0-42.121-34.281-76.391-76.398-76.391-0.121 0-0.246 0.02-0.4101 0.02-7.7539 0-15.223 1.211-22.281 3.4219-0.4101 0.1367-0.8164 0.3281-1.2656 0.4688-1.7969 0.5976-3.5898 1.2187-5.3476 1.9492-27.629 11.523-47.094 38.793-47.094 70.531 0 26.152 13.262 49.203 33.383 62.973 0 0 18.242 12.391 43.016 12.391s43.016-12.391 43.016-12.391c20.117-13.77 33.383-36.812 33.383-62.973"/>
</g>
<g clip-path="url(#b)">
<path d="m6889.7 1315.8c-21.668 0-39.23-17.602-39.23-39.23 0-21.629 17.562-39.226 39.23-39.226 21.625 0 39.188 17.598 39.188 39.226 0 21.629-17.562 39.23-39.188 39.23zm76.371-39.23c0-42.121-34.277-76.387-76.371-76.387-0.1719 0-0.3008 0.016-0.4258 0.016-7.7383 0-15.258 1.211-22.27 3.418-0.4258 0.1445-0.8516 0.3359-1.2813 0.4727-1.7929 0.6015-3.5898 1.2226-5.3398 1.9531-27.609 11.516-47.098 38.785-47.098 70.527 0 26.148 13.25 49.203 33.379 62.973 0 0 18.246 12.391 43.035 12.391 24.742 0 42.992-12.391 42.992-12.391 20.086-13.77 33.379-36.812 33.379-62.973" fill="#fff"/>
</g>
<g>
<path d="m1208.4 900.75 0.035-0.10157h0.3047zm-5.0625-0.76563 2.1797-0.0391 1.2695 0.0195zm-680.15 0.66406 0.85938-0.16015 0.15234 0.23828zm1208.8-64.71c0-446.47-392.7-828.6-858.06-835.63l-0.24-0.30391-7.67 0.1211-5.05-0.1211-2.79 0.14063-0.11 0.16406c-465.34 7.0937-857.98 389.2-857.98 835.63 0 1.8086 0.054688 3.5977 0.11719 5.3867l-0.11719 1305.1h528.52v-1192.3h0.24218l-0.14843-9.707c-0.0508-1.9922-0.0937-3.9609-0.0937-5.9727 0-3.375 0.0859-6.7109 0.16797-10.066l0.043-2.0938-0.21093-4.0781c0-0.90625 0.0742-1.7891 0.13672-2.6719 0.0742-1.0078 0.13671-2.0117 0.16015-3.2188l-0.22265-12.82 0.86328-0.38281 0.19922-3.2969c10.859-181.98 129.88-367.88 336.18-371.04 206.48 3.1562 325.49 189.05 336.35 371.04l1.0703 3.0547-0.2187 13.648c0.02 1.0039 0.078 2.0078 0.1562 3.0156 0.062 0.88282 0.1328 1.7656 0.1328 2.6719l-0.2109 4.3008 0.039 1.8711c0.09 3.3555 0.1718 6.6914 0.1718 10.066 0 2.0117-0.043 3.9805-0.09 5.9727l0.09 1202h528.52v-1299.7l-0.168-3.4766 0.027-1.1641c0.07-2.0312 0.1407-4.082 0.1407-6.1289"/>
<path d="m5807.3 953.21h525.85v-96.699h-525.85v96.699"/>
<path d="m6848.1 1331.9c-24.867 392.57-382.73 736.17-788.92 738.94-111.32-0.7578-219.04-26.707-317.27-71.988v-79.23c93.941 46.66 199.4 73.77 310.85 75.547-0.5547 0.043 0.2968 0.293 1.4023 0.293l5.0586-0.1289 5.8633 0.1289 1.2343-0.3203c373.38-6.2813 680.02-302.48 705.99-663.24h-79.742c-42.805 325.79-310.46 585.29-633.39 587.93-115.36-0.9414-223.67-33.973-317.27-90.801v-84.41c87.902 60.672 193.96 96.969 309.36 99.539l0.125 0.1485 2.7656 0.1523 5.1406-0.1289 7.5664 0.1289 0.2578-0.3008c288.23-6.3789 518.36-228.84 551.73-512.26h-79.23c-41.316 242.49-240.97 434.34-480.45 436.9-121.02-1.293-231.83-49.5-317.27-128v-102.06c72.305 92.371 180.61 150.04 308.21 154.08l0.043 0.1015 3.9961 0.5274c1.0195 0 2.0391-0.066 3.0586-0.1484l2.082-0.1016 1.9571 0.1016c0.9765 0.082 1.996 0.1484 3.0195 0.1484l3.9922-0.6289c204.63-6.4492 359.82-155.7 395.74-360.92h-83.059c-38.723 148.99-149.92 283.14-321.82 285.77-165.61-2.5351-274.89-122.82-317.23-264.28v-400.16l0.6797-96.703c1.914-27.098 9.4375-88.234 38.98-150.5 43.442-78.828 111.49-141.75 201.57-166.22 24.016-5.9219 50.367-9.7539 79.359-10.996 191.66 2.9336 317.61 144.24 334.36 327.71l0.6367 96.703h530.95v-84.758h0.086v-21.742l-0.168-3.4766 0.039-1.1758c0.043-2.0234 0.1289-4.0703 0.1289-6.1289 0-446.47-392.63-828.6-857.99-835.64l-0.2539-0.29297-7.6953 0.125-5.0586-0.125-2.7618 0.14453-0.1289 0.14844c-223.9 3.5009-430.9 93.685-585.5 236.02-154.6-142.36-361.5-232.55-585.4-235.93l-0.2539-0.29297-7.6523 0.125-5.0586-0.125-2.7618 0.14453-0.125 0.14844c-228.9 3.493-440.3 97.856-596 245.99-155.7-148.15-367.1-242.53-596.1-245.99l-0.25-0.29297-7.6718 0.125-5.0508-0.125-2.7813 0.14453-0.1172 0.14844c-465.33 7.1016-857.97 389.21-857.97 835.64 0 1.8086 0.051 3.5977 0.1133 5.3867l-0.098 64.723 2.2539 350.99v9.707c0.051 1.9805 0 3.957 0 5.9609 0 3.3789 0.082 6.7188 0 10.07v6.1797c0 0.8985 0.062 1.7891 0 2.668-0.074 0.9922 0.023 2.0039 0 3.2031v16.516c-10.859 181.97 25.613 291.02-111.91 305.67-205.34 21.863-325.49-123.7-336.35-305.67l-1.0664-3.0468 0.078-305.11h-528.67v361.27l0.1835 3.4805-0.031 1.1758c-0.078 2.0234-0.1523 4.0625-0.1523 6.1328 0 446.46 392.65 785.02 858.01 792.05l0.25 0.2968 7.6601-0.1289 5.0625 0.1289 2.7813-0.1484 0.1172-0.1484c326.39-4.9844 618.65 0.3086 618.65 0.3086s6.8594-659.09 6.8594-792.36c0-1.8203 0.07-3.6094 0-5.3984 0 0 5.0508-452.3 5.082-453.5l-0.2305-12.828 0.8672-0.37891 0.1992-3.3047c10.859-181.98 129.87-367.87 336.18-371.03 206.48 3.1641 325.49 189.05 336.35 371.03l1.0664 3.0508-0.2148 13.652c0.016 1.0117 0.078 2.0195 0.1484 3.0117 0.066 0.88672 0.1406 1.7695 0.1406 2.6758l-0.2109 4.2969 0.039 1.875c0.09 3.3516 0.1719 6.6992 0.1719 10.07 0 2.0039-0.043 3.9844-0.1015 5.9648l0.1015 1202h528.52v-1158l5.8672-88.617c10.84-181.98 129.86-367.87 336.18-371.03 206.45 3.1641 325.47 189.05 336.35 371.03l1.0625 3.0508-0.211 13.652c0 1.0117 0.082 2.0195 0.125 3.0117 0.086 0.88672 0.1719 1.7695 0.1719 2.6758l-0.2148 4.2969 0.043 1.875c0.086 3.3516 0.1719 6.6992 0.1719 10.07 0 2.0039-0.043 3.9844-0.1289 5.9648l0.1289 1202h528.48v-62.426c96.492 38.43 200.97 60.477 309.36 62.125l0.125 0.1524 2.7656 0.1484 5.0586-0.1289 7.6484 0.1289 0.2578-0.3008c457.16-6.9062 844.09-376.69 857.61-812.96 0.9336-0.3984 1.8672-0.8711 2.7617-1.3086h-79.402"/>
<path d="m2354.9 636.03h-75.496v264.64h75.547l-0.051-264.64"/>
<path d="m2203.9 334.02h-75.488v566.66h75.578l-0.09-566.66"/>
<path d="m2052.9 161.44h-75.5v739.23h75.594l-0.094-739.23"/>
<path d="m1901.9 485.02h-75.496v415.65h75.566l-0.07-415.65"/>
</g>
</g>
<g transform="translate(0,-14.4)">
<g fill="#fff">
<path d="m5001.8 2689.8h-112.88l-1.0937-33.75c0-93.312 14.008-158.95 42.023-196.95 28.402-38.336 75.98-57.531 142.76-57.531 125.75 0 188.63 69.723 188.63 209.12 0 94.047-47.027 229.58-141.08 406.61l-68.043 127.8c-0.3554 0.75-1.4843 2.9492-3.3242 6.6406-1.8398 3.6914-4.4219 9.0508-7.7148 16.051h211.32v98.469h-375.09c6.2618-14 19.367-41.848 39.281-83.531 19.914-41.68 47.027-97.93 81.34-168.74 29.113-61.973 53.449-114.51 73.012-157.67 19.527-43.156 34.277-78.559 44.25-106.22 19.914-55.309 29.891-103.08 29.891-143.28 0-70.809-24.531-106.22-73.594-106.22-47.223 0-70.816 43.891-70.816 131.66l0.5508 48.68 0.5781 8.8633"/>
<g clip-path="url(#a)">
<path d="m5614.3 2845.8c0-129.07-5.5547-218.32-16.598-267.75-11.074-49.035-31.188-73.566-60.305-73.566-29.148 0-49.438 24.34-60.867 73.008-11.039 48.691-16.598 136.28-16.598 262.78 0 126.52 5.5586 214.3 16.598 263.35 11.43 48.68 31.719 73.012 60.867 73.012 28.766 0 48.668-24.152 59.742-72.469 11.43-46.09 17.16-132.22 17.16-258.36zm117.27 0c0 153.44-14.734 264.08-44.234 331.94-29.152 65.66-78.766 98.469-148.85 98.469-70.078 0-119.84-33-149.34-99.02-29.188-64.168-43.742-176.84-43.742-338.03 0-161.15 14.555-273.82 43.742-338.01 29.113-66.379 78.73-99.578 148.81-99.578 64.91 0 112.84 29.137 143.82 87.41 33.195 61.59 49.793 180.54 49.793 356.82" fill="#fff"/>
</g>
<path d="m5809.9 2412.1h194.73v854.17h-110.07v-756.25h-84.656v-97.918"/>
<path d="m6395.4 2675.4c0-112.48-24.152-168.73-72.465-168.73-47.949 0-71.902 55.512-71.902 166.51 0 58.289 5.5898 100.52 16.848 126.71 11.258 26.191 29.586 39.262 55.055 39.262 25.434 0 43.879-13 55.297-39.004 11.461-26 17.168-67.566 17.168-124.75zm-64.719 590.85h-122.81l82.406-165.97c14.73-30.242 29.426-61.301 43.996-93.199 14.574-31.91 28.867-65.191 42.879-99.883-28.426 22.883-57.73 34.312-87.953 34.312-50.547 0-87.797-20.371-111.79-61.121-23.957-40.746-35.934-104.11-35.934-190.05 0-103.26 14.016-177.22 42.043-221.84 28.027-44.629 74.699-66.941 139.98-66.941 65.992 0 113.23 22.504 141.61 67.504 28.383 44.996 42.598 119.86 42.598 224.61 0 77.453-8.8633 149-26.551 214.64-8.5039 32.469-20.68 68.699-36.531 108.72-15.848 40.008-35.613 84.918-59.168 134.7l-44.836 93.5-9.9414 21.02"/>
</g>
</g>
</g>
</svg>
