<?xml version="1.0" encoding="UTF-8" standalone="no"?>
<svg
   xmlns:dc="http://purl.org/dc/elements/1.1/"
   xmlns:cc="http://creativecommons.org/ns#"
   xmlns:rdf="http://www.w3.org/1999/02/22-rdf-syntax-ns#"
   xmlns:svg="http://www.w3.org/2000/svg"
   xmlns="http://www.w3.org/2000/svg"
   version="1.1"
   id="svg2"
   viewBox="0 0 744.91906 136.34543"
   height="38.47971mm"
   width="210.23273mm">
  <defs
     id="defs4" />
  <metadata
     id="metadata7">
    <rdf:RDF>
      <cc:Work
         rdf:about="">
        <dc:format>image/svg+xml</dc:format>
        <dc:type
           rdf:resource="http://purl.org/dc/dcmitype/StillImage" />
        <dc:title></dc:title>
      </cc:Work>
    </rdf:RDF>
  </metadata>
  <g
     transform="translate(-52.849919,-414.69778)"
     id="layer1">
    <path
       d="m 144.45896,487.22539 -5.60872,-9.26996 0,-57.64516 5.60872,0 0,66.91512 z m 11.21743,18.38414 -5.60872,-9.42577 0,-75.87349 5.60872,0 0,85.29926 z m 11.21744,18.61783 -5.60872,-9.50367 0,-94.41342 5.60872,0 0,103.91709 z m -80.391631,-41.8317 5.608718,9.26997 0,57.64516 -5.608718,0 0,-66.91513 z m -11.217437,-18.38413 5.608718,9.42576 0,75.8735 -5.608718,0 0,-85.29926 z m -11.217437,-18.61783 5.608718,9.50366 0,94.41343 -5.608718,0 0,-103.91709 z m 1.947472,-25.08343 6.543504,0 79.301049,129.00052 -6.54351,0 -79.301043,-129.00052 z m 13.242807,0 6.621404,0 79.223152,129.00052 -6.69931,0 -79.145246,-129.00052 z m 13.164909,0 6.543504,0 73.536533,119.88635 0,-119.88635 5.60872,0 0,129.00052 q 0,0 -6.62141,0 L 92.422513,420.31027 Z m -33.963907,9.11416 0,119.88636 -5.608718,0 0,-129.00052 q 0,0 6.699303,0 l 79.067349,129.00052 -6.46561,0 -73.692324,-119.88636 z"
       style="font-style:normal;font-variant:normal;font-weight:normal;font-stretch:normal;font-size:medium;line-height:125%;font-family:Monoton;-inkscape-font-specification:Monoton;letter-spacing:48.13999939px;word-spacing:0px;fill:#ffffff;fill-opacity:1;stroke:none;stroke-width:1px;stroke-linecap:butt;stroke-linejoin:miter;stroke-opacity:1"
       id="path4168" />
    <path
       d="m 274.86015,469.58409 5.60872,0 0,79.7267 -5.60872,0 0,-79.7267 z m -11.21743,0 5.60872,0 0,79.7267 -5.60872,0 0,-79.7267 z m -11.21744,0 5.60872,0 0,79.7267 -5.60872,0 0,-79.7267 z m -11.21744,0 5.60872,0 0,79.7267 -5.60872,0 0,-79.7267 z"
       style="font-style:normal;font-variant:normal;font-weight:normal;font-stretch:normal;font-size:medium;line-height:125%;font-family:Monoton;-inkscape-font-specification:Monoton;letter-spacing:48.13999939px;word-spacing:0px;fill:#ffffff;fill-opacity:1;stroke:none;stroke-width:1px;stroke-linecap:butt;stroke-linejoin:miter;stroke-opacity:1"
       id="path4170" />
    <path
       d="m 436.42091,502.25988 5.60872,-10.59425 0,57.64516 -5.60872,0 0,-47.05091 z m 11.21744,-21.50009 5.60872,-10.59425 0,79.14525 -5.60872,0 0,-68.551 z m 11.21744,-21.18849 5.60872,-10.67215 0,100.41164 -5.60872,0 0,-89.73949 z m -37.62516,40.04001 -3.19385,-5.84241 38.63784,-73.45863 6.30981,0 -41.7538,79.30104 z m -6.4656,-12.23012 -3.27175,-5.92031 32.40593,-61.15061 6.3877,0 -35.52188,67.07092 z m -37.54726,4.90763 5.60872,10.59425 0,46.42772 -5.60872,0 0,-57.02197 z m -11.21743,-21.34429 5.60872,10.59425 0,67.77201 -5.60872,0 0,-78.36626 z m -11.21744,-21.34429 5.60872,10.67215 0,89.0384 -5.60872,0 0,-99.71055 z m 45.33714,66.05824 -6.30981,0 -44.63605,-84.67607 0,118.32838 -5.60872,0 0,-129.00052 6.30981,0 50.24477,95.34821 z m 12.69752,0 -6.38771,0 -50.16687,-95.34821 6.38771,0 50.16687,95.34821 z m 57.25566,-84.67607 -44.63605,84.67607 -6.3877,0 -50.08898,-95.34821 6.30981,0 47.05092,89.4279 46.97302,-89.4279 6.3877,0 0,129.00052 -5.60872,0 0,-118.32838 z"
       style="font-style:normal;font-variant:normal;font-weight:normal;font-stretch:normal;font-size:medium;line-height:125%;font-family:Monoton;-inkscape-font-specification:Monoton;letter-spacing:48.13999939px;word-spacing:0px;fill:#ffffff;fill-opacity:1;stroke:none;stroke-width:1px;stroke-linecap:butt;stroke-linejoin:miter;stroke-opacity:1"
       id="path4172" />
    <path
       id="path4388"
       d="m 558.25069,549.31079 -5.60872,0 0,-129.00052 5.60872,0 0,129.00052 z"
       style="font-style:normal;font-variant:normal;font-weight:normal;font-stretch:normal;font-size:medium;line-height:125%;font-family:Monoton;-inkscape-font-specification:Monoton;letter-spacing:48.13999939px;word-spacing:0px;fill:#ffffff;fill-opacity:1;stroke:none;stroke-width:1px;stroke-linecap:butt;stroke-linejoin:miter;stroke-opacity:1" />
    <path
       id="path4386"
       d="m 547.03325,549.31079 -5.60872,0 0,-129.00052 5.60872,0 0,129.00052 z"
       style="font-style:normal;font-variant:normal;font-weight:normal;font-stretch:normal;font-size:medium;line-height:125%;font-family:Monoton;-inkscape-font-specification:Monoton;letter-spacing:48.13999939px;word-spacing:0px;fill:#ffffff;fill-opacity:1;stroke:none;stroke-width:1px;stroke-linecap:butt;stroke-linejoin:miter;stroke-opacity:1" />
    <path
       id="path4384"
       d="m 535.81581,549.31079 -5.60871,0 0,-129.00052 5.60871,0 0,129.00052 z"
       style="font-style:normal;font-variant:normal;font-weight:normal;font-stretch:normal;font-size:medium;line-height:125%;font-family:Monoton;-inkscape-font-specification:Monoton;letter-spacing:48.13999939px;word-spacing:0px;fill:#ffffff;fill-opacity:1;stroke:none;stroke-width:1px;stroke-linecap:butt;stroke-linejoin:miter;stroke-opacity:1" />
    <path
       transform="translate(17.416817,384.87719)"
       id="path4424"
       d="m 604.38086,157.0918 0,9.07422 9.07422,0 0,-9.07422 -9.07422,0 z m 2.80469,2.80468 3.46484,0 0,3.46485 -3.46484,0 0,-3.46485 z"
       style="font-style:normal;font-variant:normal;font-weight:normal;font-stretch:normal;font-size:medium;line-height:125%;font-family:Monoton;-inkscape-font-specification:Monoton;letter-spacing:48.13999939px;word-spacing:0px;fill:#ffffff;fill-opacity:1;stroke:none;stroke-width:1px;stroke-linecap:butt;stroke-linejoin:miter;stroke-opacity:1" />
    <path
       transform="translate(17.416817,384.87719)"
       id="path4420"
       d="m 604.38086,145.875 0,9.07422 9.07422,0 0,-9.07422 -9.07422,0 z m 2.80469,2.80469 3.46484,0 0,3.46484 -3.46484,0 0,-3.46484 z"
       style="font-style:normal;font-variant:normal;font-weight:normal;font-stretch:normal;font-size:medium;line-height:125%;font-family:Monoton;-inkscape-font-specification:Monoton;letter-spacing:48.13999939px;word-spacing:0px;fill:#ffffff;fill-opacity:1;stroke:none;stroke-width:1px;stroke-linecap:butt;stroke-linejoin:miter;stroke-opacity:1" />
    <path
       transform="translate(17.416817,384.87719)"
       id="path4418"
       d="m 604.38086,134.6582 0,9.07227 9.07422,0 0,-9.07227 -9.07422,0 z m 2.80469,2.80274 3.46484,0 0,3.46679 -3.46484,0 0,-3.46679 z"
       style="font-style:normal;font-variant:normal;font-weight:normal;font-stretch:normal;font-size:medium;line-height:125%;font-family:Monoton;-inkscape-font-specification:Monoton;letter-spacing:48.13999939px;word-spacing:0px;fill:#ffffff;fill-opacity:1;stroke:none;stroke-width:1px;stroke-linecap:butt;stroke-linejoin:miter;stroke-opacity:1" />
    <path
       transform="translate(17.416817,384.87719)"
       id="path4174"
       d="m 546.44336,35.433594 0,128.999996 54.0625,0 0,-5.60937 -48.45508,0 0,-5.60742 48.45508,0 0,-5.60938 -48.45508,0 0,-5.60937 48.45508,0 0,-5.60743 -48.45508,0 0,-22.43554 30.61524,0 0,-5.60938 -30.61524,0 0,-5.60742 30.61524,0 0,-5.609374 -30.61524,0 0,-5.609375 30.61524,0 0,-5.607422 -30.61524,0 0,-22.435547 59.67188,0 0,-5.609374 -59.67188,0 0,-5.607422 59.67188,0 0,-5.609375 -59.67188,0 0,-5.609375 59.67188,0 0,-5.607422 -65.2793,0 z"
       style="font-style:normal;font-variant:normal;font-weight:normal;font-stretch:normal;font-size:medium;line-height:125%;font-family:Monoton;-inkscape-font-specification:Monoton;letter-spacing:48.13999939px;word-spacing:0px;fill:#ffffff;fill-opacity:1;stroke:none;stroke-width:1px;stroke-linecap:butt;stroke-linejoin:miter;stroke-opacity:1" />
    <g
       style="fill:#ffffff"
       id="g4254">
      <path
         id="path4224"
         style="font-style:normal;font-variant:normal;font-weight:normal;font-stretch:normal;font-size:medium;line-height:125%;font-family:Montserrat;-inkscape-font-specification:Montserrat;letter-spacing:0px;word-spacing:0px;fill:#ffffff;fill-opacity:1;stroke:none;stroke-width:1px;stroke-linecap:butt;stroke-linejoin:miter;stroke-opacity:1"
         d="m 736.60737,471.26874 0,5.07669 -38.94772,0 0,-4.04549 23.08307,-22.60713 q 4.36278,-4.28345 5.86992,-7.37706 1.58646,-3.17293 1.58646,-6.34586 0,-4.91805 -3.4109,-7.61504 -3.33157,-2.77631 -9.59811,-2.77631 -9.75676,0 -15.15074,6.18721 l -4.04549,-3.49022 q 3.25225,-3.80752 8.24962,-5.86992 5.07669,-2.06241 11.42255,-2.06241 8.48759,0 13.40563,4.04549 4.99737,3.96616 4.99737,10.94661 0,4.28346 -1.90376,8.24962 -1.90376,3.96616 -7.21842,9.12218 l -18.87894,18.56164 30.53946,0 z" />
      <path
         id="path4226"
         style="font-style:normal;font-variant:normal;font-weight:normal;font-stretch:normal;font-size:medium;line-height:125%;font-family:Montserrat;-inkscape-font-specification:Montserrat;letter-spacing:0px;word-spacing:0px;fill:#ffffff;fill-opacity:1;stroke:none;stroke-width:1px;stroke-linecap:butt;stroke-linejoin:miter;stroke-opacity:1"
         d="m 775.55851,476.82137 q -6.42519,0 -11.50188,-3.4109 -4.99736,-3.4109 -7.853,-9.75676 -2.77631,-6.42519 -2.77631,-15.07142 0,-8.64624 2.77631,-14.9921 2.85564,-6.42519 7.853,-9.83609 5.07669,-3.4109 11.50188,-3.4109 6.42518,0 11.42255,3.4109 5.07669,3.4109 7.93232,9.83609 2.85564,6.34586 2.85564,14.9921 0,8.64623 -2.85564,15.07142 -2.85563,6.34586 -7.93232,9.75676 -4.99737,3.4109 -11.42255,3.4109 z m 0,-5.23534 q 4.83872,0 8.48759,-2.69699 3.72819,-2.69699 5.79059,-7.853 2.06241,-5.15601 2.06241,-12.45375 0,-7.29774 -2.06241,-12.45376 -2.0624,-5.15601 -5.79059,-7.853 -3.64887,-2.69699 -8.48759,-2.69699 -4.83872,0 -8.56692,2.69699 -3.64887,2.69699 -5.71127,7.853 -2.06241,5.15602 -2.06241,12.45376 0,7.29774 2.06241,12.45375 2.0624,5.15601 5.71127,7.853 3.7282,2.69699 8.56692,2.69699 z" />
      <path
         id="path4228"
         style="font-style:normal;font-variant:normal;font-weight:normal;font-stretch:normal;font-size:medium;line-height:125%;font-family:Montserrat;-inkscape-font-specification:Montserrat;letter-spacing:0px;word-spacing:0px;fill:#ffffff;fill-opacity:1;stroke:none;stroke-width:1px;stroke-linecap:butt;stroke-linejoin:miter;stroke-opacity:1"
         d="m 722.57359,493.67472 0,55.52629 -5.71128,0 0,-50.4496 -13.08834,0 0,-5.07669 18.79962,0 z" />
      <path
         id="path4230"
         style="font-style:normal;font-variant:normal;font-weight:normal;font-stretch:normal;font-size:medium;line-height:125%;font-family:Montserrat;-inkscape-font-specification:Montserrat;letter-spacing:0px;word-spacing:0px;fill:#ffffff;fill-opacity:1;stroke:none;stroke-width:1px;stroke-linecap:butt;stroke-linejoin:miter;stroke-opacity:1"
         d="m 773.60335,493.19878 q 11.02594,0 16.89586,7.29774 5.86992,7.21842 5.86992,20.46541 0,9.28082 -3.17293,15.706 -3.17293,6.42519 -8.88421,9.75676 -5.71127,3.25226 -13.3263,3.25226 -8.24962,0 -13.16767,-3.01429 l 2.30038,-4.60075 q 3.96616,2.61767 10.78796,2.61767 9.2015,0 14.43684,-5.7906 5.23533,-5.86992 5.23533,-16.97517 0,-2.06241 -0.23797,-4.52143 -2.0624,4.52143 -6.58383,7.05977 -4.52142,2.45902 -10.39135,2.45902 -5.4733,0 -9.75676,-2.0624 -4.20413,-2.06241 -6.58383,-5.7906 -2.3797,-3.80752 -2.3797,-8.80488 0,-5.07669 2.45903,-8.96353 2.45902,-3.88684 6.74247,-5.94925 4.36278,-2.14173 9.75676,-2.14173 z m 0.63459,28.87367 q 4.20413,0 7.37706,-1.58646 3.25226,-1.58647 5.07669,-4.36278 1.82444,-2.77632 1.82444,-6.18722 0,-3.17293 -1.74511,-5.86992 -1.66579,-2.69699 -4.99737,-4.36278 -3.33158,-1.66579 -7.93233,-1.66579 -6.02856,0 -9.83608,3.33158 -3.72819,3.25225 -3.72819,8.72556 0,5.4733 3.72819,8.72556 3.80752,3.25225 10.2327,3.25225 z" />
    </g>
    <g
       style="fill:#ffffff"
       id="g4364">
      <path
         style="font-style:normal;font-variant:normal;font-weight:normal;font-stretch:normal;font-size:medium;line-height:125%;font-family:Monoton;-inkscape-font-specification:Monoton;letter-spacing:48.13999939px;word-spacing:0px;fill:#ffffff;fill-opacity:1;stroke:none;stroke-width:1px;stroke-linecap:butt;stroke-linejoin:miter;stroke-opacity:1"
         d="m 274.86015,421.88673 5.60872,0 0,42.08485 -5.60872,0 0,-42.08485 z"
         id="path4339" />
      <path
         style="font-style:normal;font-variant:normal;font-weight:normal;font-stretch:normal;font-size:medium;line-height:125%;font-family:Monoton;-inkscape-font-specification:Monoton;letter-spacing:48.13999939px;word-spacing:0px;fill:#ffffff;fill-opacity:1;stroke:none;stroke-width:1px;stroke-linecap:butt;stroke-linejoin:miter;stroke-opacity:1"
         d="m 263.64272,414.69778 5.60872,0 0,49.2738 -5.60872,0 0,-49.2738 z"
         id="path4337" />
      <path
         style="font-style:normal;font-variant:normal;font-weight:normal;font-stretch:normal;font-size:medium;line-height:125%;font-family:Monoton;-inkscape-font-specification:Monoton;letter-spacing:48.13999939px;word-spacing:0px;fill:#ffffff;fill-opacity:1;stroke:none;stroke-width:1px;stroke-linecap:butt;stroke-linejoin:miter;stroke-opacity:1"
         d="m 252.42528,433.5187 5.60872,0 0,30.45288 -5.60872,0 0,-30.45288 z"
         id="path4335" />
      <path
         style="font-style:normal;font-variant:normal;font-weight:normal;font-stretch:normal;font-size:medium;line-height:125%;font-family:Monoton;-inkscape-font-specification:Monoton;letter-spacing:48.13999939px;word-spacing:0px;fill:#ffffff;fill-opacity:1;stroke:none;stroke-width:1px;stroke-linecap:butt;stroke-linejoin:miter;stroke-opacity:1"
         d="m 241.20784,445.15067 5.60872,0 0,18.82091 -5.60872,0 0,-18.82091 z"
         id="path4313" />
    </g>
    <text
       id="text3393"
       y="946.78241"
       x="361.07068"
       style="font-style:normal;font-weight:normal;font-size:40px;line-height:125%;font-family:sans-serif;letter-spacing:0px;word-spacing:0px;fill:#000000;fill-opacity:1;stroke:none;stroke-width:1px;stroke-linecap:butt;stroke-linejoin:miter;stroke-opacity:1"
       xml:space="preserve"><tspan
         y="946.78241"
         x="361.07068"
         id="tspan3395" /></text>
  </g>
</svg>
