<svg xmlns:rdf="http://www.w3.org/1999/02/22-rdf-syntax-ns#" xmlns="http://www.w3.org/2000/svg" viewBox="0 0 744.76 140.145" version="1.1" xmlns:cc="http://creativecommons.org/ns#" xmlns:dc="http://purl.org/dc/elements/1.1/">
<g transform="translate(-52.8499 -414.698)">
<path style="fill:#fff" d="m736.202 472.712v3.63063h-37.9637v-2.84137l23.3623-23.2044q4.57775-4.57775 6.15629-7.81374 1.65746-3.31492 1.65746-6.7877 0-5.28809-3.63063-8.2873-3.5517-2.99922-10.3394-2.99922-5.20916 0-9.1555 1.57854-3.86741 1.57853-6.70877 4.81453l-2.84136-2.52566q3.15707-3.63063 7.9716-5.60379 4.89345-1.97317 11.0497-1.97317 8.12945 0 12.944 3.94633 4.81452 3.94634 4.81452 10.6551 0 4.26204-1.89424 8.12945t-7.1034 8.99764l-20.3631 20.2842h32.0442z"/>
<path style="fill:#fff" d="m774.052 493.715q10.734 0 16.4168 7.34018 5.76165 7.26126 5.76165 20.3631 0 9.1555-3.07814 15.5486-2.99921 6.31414-8.52408 9.55013-5.52487 3.236-12.944 3.236-7.81375 0-12.5494-2.84136l1.65746-3.236q3.94634 2.52566 10.8919 2.52566 9.55013 0 14.9961-6.15629 5.52487-6.23521 5.52487-17.9953 0-3.63062-0.47356-6.62984-1.65746 5.36702-6.47199 8.36623-4.7356 2.99922-11.1287 2.99922-5.44595 0-9.70799-1.97317-4.18311-2.0521-6.47199-5.76165-2.28887-3.78848-2.28887-8.68194 0-4.97238 2.3678-8.76086t6.55091-5.84058q4.18312-2.05209 9.47121-2.05209zm0.63141 29.5975q4.4199 0 7.89267-1.73639 3.5517-1.73638 5.44595-4.7356 1.97316-2.99921 1.97316-6.70877 0-3.31492-1.89424-6.31413-1.81531-2.99922-5.36701-4.81453-3.55171-1.81532-8.52409-1.81532-6.47199 0-10.4972 3.63063-4.02526 3.5517-4.02526 9.4712 0 5.91951 4.02526 9.47121t10.9708 3.5517z"/>
<path style="fill:#fff" d="m722.323 494.109v55.2487h-4.02527v-51.6181h-13.4965v-3.63063h17.5217z"/>
<path style="fill:#fff" d="m775.984 476.737q-6.31414 0-11.2865-3.39385-4.89345-3.47277-7.65589-9.78691-2.68351-6.31414-2.68351-14.8382 0-8.52409 2.68351-14.8382 2.76244-6.31414 7.65589-9.70799 4.97238-3.47277 11.2865-3.47277 6.31414 0 11.2076 3.47277 4.97239 3.39385 7.65589 9.70799 2.76244 6.31413 2.76244 14.8382 0 8.52408-2.76244 14.8382-2.6835 6.31414-7.65589 9.78691-4.89345 3.39385-11.2076 3.39385zm0-3.70956q5.20916 0 9.1555-2.84136 4.02526-2.92029 6.23521-8.36623 2.20995-5.52487 2.20995-13.1018 0-7.57697-2.20995-13.0229-2.20995-5.52487-6.23521-8.36623-3.94634-2.92029-9.1555-2.92029t-9.23442 2.92029q-3.94634 2.84136-6.15629 8.36623-2.20994 5.44594-2.20994 13.0229t2.20994 13.1018q2.20995 5.44594 6.15629 8.36623 4.02526 2.84136 9.23442 2.84136z"/>
<path d="m144.459 487.225-5.60872-9.26996v-57.6452h5.60872v66.9151zm11.2174 18.3841-5.60872-9.42577v-75.8735h5.60872v85.2993zm11.2174 18.6178-5.60872-9.50367v-94.4134h5.60872v103.917zm-80.3916-41.8317 5.60872 9.26997v57.6452h-5.60872v-66.9151zm-11.2174-18.3841 5.60872 9.42576v75.8735h-5.60872v-85.2993zm-11.2174-18.6178 5.60872 9.50366v94.4134h-5.60872v-103.917zm1.94747-25.0834h6.5435l79.301 129.001h-6.54351l-79.301-129.001zm13.2428 0h6.6214l79.2232 129.001h-6.69931l-79.1452-129.001zm13.1649 0h6.5435l73.5365 119.886v-119.886h5.60872v129.001t-6.62141 0l-79.0675-129.001zm-33.9639 9.11416v119.886h-5.60872v-129.001t6.6993 0l79.0673 129.001h-6.46561l-73.6923-119.886z" style="fill:#fff"/>
<path d="m274.86 469.584h5.60872v79.7267h-5.60872v-79.7267zm-11.2174 0h5.60872v79.7267h-5.60872v-79.7267zm-11.2174 0h5.60872v79.7267h-5.60872v-79.7267zm-11.2174 0h5.60872v79.7267h-5.60872v-79.7267z" style="fill:#fff"/>
<path d="m436.421 502.26 5.60872-10.5942v57.6452h-5.60872v-47.0509zm11.2174-21.5001 5.60872-10.5942v79.1452h-5.60872v-68.551zm11.2174-21.1885 5.60872-10.6722v100.412h-5.60872v-89.7395zm-37.6252 40.04-3.19385-5.84241 38.6378-73.4586h6.30981l-41.7538 79.301zm-6.4656-12.2301-3.27175-5.92031 32.4059-61.1506h6.3877l-35.5219 67.0709zm-37.5473 4.90763 5.60872 10.5942v46.4277h-5.60872v-57.022zm-11.2174-21.3443 5.60872 10.5942v67.772h-5.60872v-78.3663zm-11.2174-21.3443 5.60872 10.6722v89.0384h-5.60872v-99.7106zm45.3371 66.0582h-6.30981l-44.636-84.6761v118.328h-5.60872v-129.001h6.30981l50.2448 95.3482zm12.6975 0h-6.38771l-50.1669-95.3482h6.38771l50.1669 95.3482zm57.2557-84.6761-44.636 84.6761h-6.3877l-50.089-95.3482h6.30981l47.0509 89.4279 46.973-89.4279h6.3877v129.001h-5.60872v-118.328z" style="fill:#fff"/>
<path style="fill:#fff" d="m558.251 549.311h-5.60872v-129.001h5.60872v129.001z"/>
<path style="fill:#fff" d="m547.033 549.311h-5.60872v-129.001h5.60872v129.001z"/>
<path style="fill:#fff" d="m535.816 549.311h-5.60871v-129.001h5.60871v129.001z"/>
<path style="fill:#fff" transform="translate(17.4168 384.877)" d="m604.381 157.092v9.07422h9.07422v-9.07422h-9.07422zm2.80469 2.80468h3.46484v3.46485h-3.46484v-3.46485z"/>
<path style="fill:#fff" transform="translate(17.4168 384.877)" d="m604.381 145.875v9.07422h9.07422v-9.07422h-9.07422zm2.80469 2.80469h3.46484v3.46484h-3.46484v-3.46484z"/>
<path style="fill:#fff" transform="translate(17.4168 384.877)" d="m604.381 134.658v9.07227h9.07422v-9.07227h-9.07422zm2.80469 2.80274h3.46484v3.46679h-3.46484v-3.46679z"/>
<path style="fill:#fff" transform="translate(17.4168 384.877)" d="m546.443 35.4336v129h54.0625v-5.60937h-48.4551v-5.60742h48.4551v-5.60938h-48.4551v-5.60937h48.4551v-5.60743h-48.4551v-22.4355h30.6152v-5.60938h-30.6152v-5.60742h30.6152v-5.60937h-30.6152v-5.60938h30.6152v-5.60742h-30.6152v-22.4355h59.6719v-5.60937h-59.6719v-5.60742h59.6719v-5.60938h-59.6719v-5.60938h59.6719v-5.60742h-65.2793z"/>
<g style="fill:#fff">
<path d="m274.86 421.887h5.60872v42.0848h-5.60872v-42.0848z" style="fill:#fff"/>
<path d="m263.643 414.698h5.60872v49.2738h-5.60872v-49.2738z" style="fill:#fff"/>
<path d="m252.425 433.519h5.60872v30.4529h-5.60872v-30.4529z" style="fill:#fff"/>
<path d="m241.208 445.151h5.60872v18.8209h-5.60872v-18.8209z" style="fill:#fff"/>
</g>
</g>
</svg>
